<svg width="1342" height="1147" viewBox="0 0 1342 1147" fill="none" xmlns="http://www.w3.org/2000/svg">
<path d="M1341.28 1025.81H0V1026.48H1341.28V1025.81Z" fill="#EBEBEB"/>
<path d="M1206.88 1068.97H1118.04V1069.64H1206.88V1068.97Z" fill="#EBEBEB"/>
<path d="M888.517 1076.27H865.206V1076.94H888.517V1076.27Z" fill="#EBEBEB"/>
<path d="M1115.35 1044.08H1063.88V1044.75H1115.35V1044.08Z" fill="#EBEBEB"/>
<path d="M256.587 1048.59H140.727V1049.26H256.587V1048.59Z" fill="#EBEBEB"/>
<path d="M297.469 1048.59H280.488V1049.26H297.469V1048.59Z" fill="#EBEBEB"/>
<path d="M603.978 1059.91H352.676V1060.58H603.978V1059.91Z" fill="#EBEBEB"/>
<path d="M635.767 906.169H117.791C113.733 906.161 109.844 904.545 106.977 901.673C104.111 898.801 102.501 894.909 102.501 890.851V162.724C102.536 158.69 104.162 154.832 107.025 151.989C109.888 149.146 113.757 147.548 117.791 147.541H635.767C639.829 147.541 643.725 149.155 646.598 152.027C649.47 154.9 651.084 158.796 651.084 162.858V890.851C651.084 894.914 649.47 898.81 646.598 901.682C643.725 904.555 639.829 906.169 635.767 906.169V906.169ZM117.791 148.077C113.911 148.084 110.193 149.631 107.452 152.377C104.711 155.123 103.171 158.844 103.171 162.724V890.851C103.171 894.731 104.711 898.453 107.452 901.199C110.193 903.945 113.911 905.491 117.791 905.498H635.767C639.649 905.491 643.37 903.945 646.116 901.2C648.861 898.455 650.406 894.734 650.413 890.851V162.724C650.406 158.842 648.861 155.12 646.116 152.375C643.37 149.63 639.649 148.084 635.767 148.077H117.791Z" fill="#EBEBEB"/>
<path d="M1216.03 906.169H698.029C693.969 906.161 690.077 904.545 687.206 901.674C684.335 898.803 682.719 894.911 682.711 890.851V162.724C682.754 158.687 684.385 154.83 687.253 151.987C690.12 149.145 693.992 147.548 698.029 147.541H1216.03C1220.06 147.555 1223.92 149.156 1226.78 151.998C1229.64 154.841 1231.26 158.694 1231.29 162.724V890.851C1231.29 894.904 1229.69 898.792 1226.83 901.663C1223.97 904.534 1220.08 906.154 1216.03 906.169V906.169ZM698.029 148.077C694.146 148.084 690.425 149.63 687.68 152.375C684.935 155.12 683.389 158.842 683.382 162.724V890.851C683.389 894.734 684.935 898.455 687.68 901.2C690.425 903.945 694.146 905.491 698.029 905.498H1216.03C1219.91 905.491 1223.63 903.945 1226.38 901.2C1229.13 898.455 1230.67 894.734 1230.68 890.851V162.724C1230.67 158.842 1229.13 155.12 1226.38 152.375C1223.63 149.63 1219.91 148.084 1216.03 148.077H698.029Z" fill="#EBEBEB"/>
<path d="M202.962 779.525H393.961C398.371 779.525 402.739 780.394 406.813 782.082C410.888 783.769 414.591 786.243 417.709 789.362C420.828 792.481 423.302 796.183 424.99 800.258C426.678 804.333 427.546 808.7 427.546 813.111V984.794C427.546 993.702 424.008 1002.24 417.709 1008.54C411.411 1014.84 402.868 1018.38 393.961 1018.38H202.962V779.632V779.525Z" fill="#F0F0F0"/>
<path d="M204.545 779.525H201.38C182.831 779.525 167.794 794.562 167.794 813.111V984.687C167.794 1003.24 182.831 1018.27 201.38 1018.27H204.545C223.094 1018.27 238.131 1003.24 238.131 984.687V813.111C238.131 794.562 223.094 779.525 204.545 779.525Z" fill="#F5F5F5"/>
<path d="M228.527 1018.27H477.818V867.594H228.527L228.527 1018.27Z" fill="#F0F0F0"/>
<path d="M208.059 1025.81H657.361C659.185 1025.8 660.932 1025.07 662.219 1023.78C663.506 1022.49 664.229 1020.74 664.229 1018.92V1018.27H394.068L201.192 1018.92C201.192 1020.74 201.915 1022.49 203.202 1023.78C204.489 1025.07 206.236 1025.8 208.059 1025.81Z" fill="#E0E0E0"/>
<path d="M404.852 680.485H636.786C642.785 680.372 648.74 681.54 654.252 683.911C659.764 686.282 664.707 689.801 668.751 694.234C672.796 698.666 675.848 703.911 677.705 709.616C679.562 715.322 680.18 721.359 679.519 727.322L664.229 901.689H338.62L353.883 727.322C355.181 714.633 361.084 702.859 370.476 694.228C379.868 685.597 392.098 680.708 404.852 680.485V680.485Z" fill="#E0E0E0"/>
<path d="M368.208 680.485H604.676C610.382 680.391 616.044 681.511 621.284 683.773C626.524 686.034 631.223 689.384 635.07 693.601C638.916 697.817 641.821 702.804 643.592 708.23C645.364 713.655 645.961 719.395 645.343 725.069L629.865 901.662H304.229L319.707 725.069C320.939 712.992 326.555 701.785 335.493 693.569C344.431 685.353 356.07 680.698 368.208 680.485V680.485Z" fill="#F5F5F5"/>
<path d="M248.512 853.832H445.976C451.582 853.832 456.959 856.059 460.923 860.023C464.887 863.987 467.114 869.364 467.114 874.97V894.043C467.118 896.822 466.573 899.573 465.513 902.141C464.452 904.709 462.895 907.042 460.932 909.008C458.969 910.974 456.637 912.533 454.071 913.597C451.505 914.661 448.754 915.209 445.976 915.209H248.512C240.373 915.209 232.567 911.976 226.812 906.22C221.057 900.465 217.824 892.659 217.824 884.52V884.52C217.824 876.381 221.057 868.576 226.812 862.82C232.567 857.065 240.373 853.832 248.512 853.832V853.832Z" fill="#E0E0E0"/>
<path d="M478.917 779.525H669.916C678.823 779.525 687.366 783.064 693.664 789.362C699.963 795.661 703.501 804.203 703.501 813.111V984.794C703.501 993.702 699.963 1002.24 693.664 1008.54C687.366 1014.84 678.823 1018.38 669.916 1018.38H478.917V779.632V779.525Z" fill="#F0F0F0"/>
<path d="M480.5 779.525H477.335C458.786 779.525 443.749 794.562 443.749 813.111V984.687C443.749 1003.24 458.786 1018.27 477.335 1018.27H480.5C499.049 1018.27 514.086 1003.24 514.086 984.687V813.111C514.086 794.562 499.049 779.525 480.5 779.525Z" fill="#F5F5F5"/>
<path d="M1005.99 648.294H822.365V1025.81H1005.99V648.294Z" fill="#F0F0F0"/>
<path d="M849.835 996.41V677.695H845.596V996.41H849.835Z" fill="#E6E6E6"/>
<path d="M978.92 677.695H845.596V683.06H978.92V677.695Z" fill="#E6E6E6"/>
<path d="M1193.85 648.294H1010.23V1025.81H1193.85V648.294Z" fill="#F0F0F0"/>
<path d="M1193.87 1025.81H1218.18V648.294H1193.87V1025.81Z" fill="#E0E0E0"/>
<path d="M1037.69 996.41V677.695H1033.46V996.41H1037.69Z" fill="#E6E6E6"/>
<path d="M1010.25 1025.81V652.586H1006.01V1025.81H1010.25Z" fill="#E6E6E6"/>
<path d="M1166.78 677.695H1033.46V683.06H1166.78V677.695Z" fill="#E6E6E6"/>
<path d="M997.939 731.802H988.818V815.23H997.939V731.802Z" fill="#E0E0E0"/>
<path d="M1027.39 731.802H1018.27V815.23H1027.39V731.802Z" fill="#E0E0E0"/>
<path d="M1143.07 254.629H206.799V588.58H1143.07V254.629Z" fill="#E0E0E0"/>
<path d="M1134.48 254.629H198.214V588.58H1134.48V254.629Z" fill="#F0F0F0"/>
<path d="M1106.39 560.494V282.715L226.301 282.715V560.494H1106.39Z" fill="#FAFAFA"/>
<path d="M369.174 560.494L427.493 282.715H556.229L497.91 560.494H369.174Z" fill="white"/>
<path d="M552.232 560.494L610.551 282.715H674.932L616.586 560.494H552.232Z" fill="white"/>
<path d="M945.28 560.494L1003.6 282.715H1067.98L1009.63 560.494H945.28Z" fill="white"/>
<path d="M670.64 1146.96C957.895 1146.96 1190.76 1133.36 1190.76 1116.59C1190.76 1099.82 957.895 1086.22 670.64 1086.22C383.385 1086.22 150.518 1099.82 150.518 1116.59C150.518 1133.36 383.385 1146.96 670.64 1146.96Z" fill="#F5F5F5"/>
<path d="M445.305 310.211C452.065 294.733 392.19 280.703 374.083 328.399C357.666 371.669 330.411 382.721 343.234 412.685C357.102 445.117 435.567 449.007 469.636 413.061C497.266 383.901 467.275 371.615 471.138 344.199C475.001 316.783 466.9 307.851 445.305 310.211Z" fill="#263238"/>
<path d="M336.232 403.081C333.12 386.181 339.397 379.207 347.338 370.381C358.068 359.493 365.419 345.732 368.503 330.76C370.103 322.583 374.191 315.101 380.208 309.338C386.226 303.575 393.877 299.814 402.116 298.569C419.821 295.296 438.572 301.091 443.534 308.441C444.325 309.476 444.775 310.731 444.823 312.033C444.871 313.335 444.515 314.619 443.803 315.71L441.549 314.262C441.983 313.613 442.194 312.841 442.151 312.062C442.107 311.283 441.811 310.539 441.308 309.943C436.908 303.397 419.043 298.167 402.625 301.225C390.903 303.397 375.8 310.372 371.132 331.35C367.954 346.771 360.379 360.941 349.323 372.151C341.597 380.736 335.91 386.959 338.888 402.572L336.232 403.081Z" fill="#263238"/>
<path d="M299.347 390.232L297.684 384.867C296.535 381.221 294.455 377.938 291.648 375.344L286.283 370.462C284.586 368.892 282.394 367.966 280.086 367.844C277.779 367.721 275.501 368.41 273.648 369.791L267.907 374.083C266.858 374.867 265.975 375.852 265.309 376.98C264.643 378.108 264.208 379.357 264.028 380.654C263.848 381.952 263.928 383.272 264.262 384.538C264.597 385.805 265.179 386.992 265.976 388.032L269.678 392.861C269.678 392.861 278.369 407.561 290.95 412.658L293.848 410.19C296.619 407.769 298.618 404.586 299.596 401.037C300.574 397.489 300.487 393.732 299.347 390.232Z" fill="#FFC3BD"/>
<path d="M403.618 483.37L401.901 484.685L400.506 485.704L397.824 487.582C396.026 488.762 394.202 489.862 392.458 490.935C388.808 493.033 385.047 494.932 381.192 496.622C373.263 500.119 364.927 502.607 356.378 504.026C347.352 505.543 338.14 505.597 329.096 504.187C324.468 503.459 319.922 502.282 315.523 500.673C314.423 500.324 313.323 499.868 312.25 499.412L310.64 498.742L309.836 498.393L308.95 498.017L307.824 497.481C305.482 496.281 303.324 494.755 301.412 492.947C300.038 491.669 298.773 490.278 297.63 488.789C294.595 484.674 292.14 480.16 290.333 475.376C288.724 471.406 287.49 467.597 286.39 463.868C284.389 456.653 282.768 449.337 281.535 441.952C279.084 427.679 277.712 413.242 277.43 398.762C277.098 396.052 277.812 393.317 279.427 391.115C281.041 388.912 283.434 387.408 286.119 386.909C288.804 386.41 291.578 386.953 293.876 388.427C296.174 389.902 297.824 392.197 298.488 394.846V395.141C303.156 407.991 307.636 421.162 312.357 433.663C314.798 439.886 317.159 446.083 319.842 451.716C321.129 454.533 322.524 457.215 323.839 459.549C324.734 461.259 325.882 462.824 327.245 464.19C327.245 464.19 327.245 464.19 327.058 463.815C326.44 463.173 325.713 462.647 324.912 462.259L324.402 461.99C324.241 461.99 323.919 461.803 324.107 461.856H324.536L325.368 462.071C325.921 462.243 326.486 462.377 327.058 462.473C329.322 462.925 331.618 463.203 333.925 463.305C338.755 463.453 343.582 462.947 348.277 461.803C353.428 460.503 358.441 458.707 363.245 456.438C365.74 455.311 368.208 453.996 370.622 452.682C371.83 452.011 373.01 451.287 374.137 450.59L376.819 448.873L378.912 447.558C383.625 444.562 389.316 443.508 394.79 444.619C400.264 445.729 405.095 448.917 408.268 453.514C411.441 458.111 412.71 463.758 411.808 469.27C410.906 474.782 407.903 479.73 403.43 483.075L403.618 483.37Z" fill="#FFC3BD"/>
<path d="M450.67 1104.89C467.651 1099.29 481.949 1087.8 479.078 1067.66C477.817 1059.02 505.528 1055.64 505.528 1055.64C502.39 1083.08 505.823 1087.83 509.123 1094.03C512.422 1100.23 512.235 1107.82 506.44 1108.49C499.573 1109.32 498.044 1108.49 489.513 1109.69C479.534 1111.01 473.069 1116.21 453.138 1116.21C442.381 1116.21 445.305 1106.66 450.67 1104.89Z" fill="#FF0356"/>
<path d="M502.309 811.769C504.268 674.315 491.579 599.391 491.579 599.391L389.883 604.461C389.883 604.461 404.932 730.22 431.651 822.848C438.786 872.556 454.855 956.628 465.987 1013.1C482.506 1011.68 498.837 1008.59 514.73 1003.87C518.619 954.267 519.317 882.562 502.309 811.769Z" fill="#FF0356"/>
<path d="M504.509 1069.11C504.509 1069.11 508.479 1043.14 511.162 1003.87C497.667 1008.57 483.666 1011.66 469.448 1013.1C475.242 1047.38 479.373 1069.21 479.373 1069.21C487.503 1072.14 496.404 1072.1 504.509 1069.11V1069.11Z" fill="#FFC3BD"/>
<path d="M460.435 996.651C461.32 1001.37 463.788 1013.2 466.229 1017.36C466.37 1017.6 466.564 1017.81 466.797 1017.96C467.029 1018.11 467.294 1018.21 467.57 1018.25C486.536 1020.63 505.475 1016.82 513.174 1013.39C513.389 1013.3 513.584 1013.17 513.745 1013.01C513.907 1012.84 514.032 1012.64 514.113 1012.42C516.259 1006.74 517.037 994.774 517.278 989.73C517.291 989.458 517.242 989.185 517.135 988.934C517.027 988.683 516.864 988.46 516.657 988.281C516.45 988.103 516.205 987.974 515.941 987.904C515.677 987.835 515.4 987.826 515.132 987.879C497.555 991.137 479.801 993.358 461.964 994.532C461.719 994.561 461.484 994.639 461.272 994.764C461.06 994.888 460.876 995.055 460.732 995.255C460.588 995.454 460.488 995.681 460.436 995.922C460.385 996.162 460.384 996.411 460.435 996.651V996.651Z" fill="#263238"/>
<path d="M391.224 442.837C376.148 445.52 353.159 458.262 353.159 458.262C353.159 458.262 341.061 487.233 355.546 508.104C369.818 511.484 377.007 508.721 377.007 508.721L391.224 442.837Z" fill="#263238"/>
<path opacity="0.2" d="M355.546 508.104C369.818 511.484 377.007 508.721 377.007 508.721L376.497 469.636C366.813 482.673 358.739 495.603 355.546 508.104Z" fill="black"/>
<path opacity="0.2" d="M501.773 730.676C490.399 702.858 478.166 679.948 473.472 659.024C465.424 715.922 471.755 768.258 502.363 805.76C502.712 778.076 502.417 753.021 501.773 730.676Z" fill="black"/>
<path d="M657.227 948.821L616.64 977.686C583.51 934.523 533.829 868.586 521.811 839.883C491.284 767.051 429.907 606.5 429.907 606.5L509.579 587.99C509.579 587.99 559.85 634.667 592.282 810.804C619.43 849.379 642.285 906.142 657.227 948.821Z" fill="#FF0356"/>
<path d="M654.893 1085.63C665.006 1065.86 665.141 1044.08 654.223 1026.91C649.528 1019.56 673.376 1005.05 673.376 1005.05C681.799 1031.36 688.667 1032.89 694.515 1036.97C700.363 1041.05 700.953 1049.82 696.017 1052.8C690.63 1055.96 686.042 1060.32 682.604 1065.54C676.488 1073.59 673.054 1084.64 664.282 1091.53C658.676 1095.91 650.44 1094.3 654.893 1085.63Z" fill="#FF0356"/>
<path d="M677.802 1017.12C677.802 1017.12 670.801 992.493 657.066 955.608C646.693 965.433 635.216 974.021 622.864 981.2C642.258 1010.06 656.449 1030.8 656.449 1030.8C664.695 1028.3 672.086 1023.57 677.802 1017.12V1017.12Z" fill="#FFC3BD"/>
<path d="M607.868 969.933C610.551 973.85 617.74 983.641 621.683 986.404C621.914 986.567 622.179 986.676 622.457 986.722C622.736 986.769 623.022 986.751 623.293 986.672C641.534 981.039 657.227 969.745 662.968 963.388C663.129 963.217 663.251 963.014 663.325 962.791C663.399 962.569 663.424 962.333 663.397 962.1C663.021 956.064 658.783 944.824 656.932 940.13C656.831 939.881 656.675 939.658 656.476 939.477C656.278 939.296 656.041 939.162 655.783 939.085C655.526 939.008 655.255 938.989 654.989 939.031C654.724 939.072 654.471 939.173 654.249 939.325C639.611 949.538 624.383 958.881 608.646 967.304C608.407 967.409 608.194 967.565 608.022 967.761C607.85 967.957 607.722 968.188 607.648 968.438C607.574 968.689 607.556 968.952 607.593 969.21C607.631 969.468 607.725 969.715 607.868 969.933V969.933Z" fill="#263238"/>
<path d="M368.208 482.861C371.856 506.601 357.719 525.004 379.475 535.949C375.853 554.002 381.219 590.056 389.83 604.354C401.928 610.926 461.105 601.215 509.472 587.963C508.774 567.308 491.794 526.667 496.515 459.013C496.769 455.312 496.243 451.599 494.97 448.114C493.697 444.63 491.706 441.452 489.127 438.786C486.547 436.12 483.436 434.026 479.995 432.64C476.554 431.254 472.86 430.606 469.153 430.739C464.968 430.739 460.515 431.141 456.008 431.543C440.164 432.56 424.413 434.712 408.876 437.982C403.859 439.162 398.682 440.503 393.773 441.898C385.239 444.417 377.925 449.977 373.214 457.526C368.503 465.074 366.722 474.088 368.208 482.861V482.861Z" fill="#263238"/>
<path d="M402.384 464.807C402.384 464.807 417.54 459.281 425.481 472.855C438.706 465.424 457.296 434.011 455.981 431.624C433.85 437.713 402.384 464.807 402.384 464.807Z" fill="white"/>
<path d="M402.384 464.807C402.384 464.807 390.876 463.439 387.63 473.633C387.63 453.514 401.204 440.852 407.132 438.491C405.067 443.749 402.384 464.807 402.384 464.807Z" fill="white"/>
<path d="M450.187 378.375C448.497 394.068 448.229 419.284 456.008 431.651C456.008 431.651 426.5 451.85 402.357 464.807C394.766 447.236 407.105 438.491 407.105 438.491C418.613 434.092 418.506 419.365 416.95 408.098L450.187 378.375Z" fill="#FFC3BD"/>
<path opacity="0.2" d="M417.004 408.098L435.782 391.198C436.412 394.352 436.209 397.616 435.192 400.667C431.939 409.459 425.688 416.821 417.54 421.457C417.836 416.997 417.656 412.519 417.004 408.098V408.098Z" fill="black"/>
<path d="M456.25 349.216C453.567 374.7 453.165 385.511 440.02 398.119C420.223 417.084 390.098 408.393 385.135 382.694C380.655 359.543 385.564 321.773 410.458 312.572C435.353 303.371 458.718 323.758 456.25 349.216Z" fill="#FFC3BD"/>
<path d="M450.67 367.859C446.737 364.094 444.438 358.935 444.267 353.493C444.096 348.05 446.068 342.758 449.758 338.754C456.464 331.967 465.853 346.023 465.853 346.023L450.67 367.859Z" fill="#263238"/>
<path d="M419.579 356.271C419.579 358.363 418.318 359.999 416.897 359.946C415.475 359.892 414.509 358.149 414.59 356.083C414.67 354.017 415.85 352.354 417.272 352.408C418.694 352.461 419.66 354.098 419.579 356.271Z" fill="#263238"/>
<path d="M393.988 355.654C393.988 357.719 392.754 359.356 391.305 359.302C389.856 359.248 388.917 357.532 388.998 355.439C389.078 353.347 390.232 351.737 391.681 351.791C393.129 351.845 394.068 353.561 393.988 355.654Z" fill="#263238"/>
<path d="M392.271 351.925L387.335 350.289C387.335 350.289 389.749 354.286 392.271 351.925Z" fill="#263238"/>
<path d="M400.292 356.459C398.219 361.136 395.511 365.505 392.244 369.442C393.275 370.237 394.466 370.797 395.736 371.084C397.005 371.371 398.322 371.379 399.594 371.105L400.292 356.459Z" fill="#ED847E"/>
<path d="M411.371 379.26C410.207 379.425 409.03 379.479 407.856 379.421C407.697 379.414 407.547 379.346 407.437 379.231C407.327 379.116 407.266 378.963 407.266 378.804C407.27 378.723 407.289 378.644 407.323 378.57C407.358 378.497 407.406 378.43 407.466 378.376C407.526 378.321 407.596 378.278 407.672 378.251C407.748 378.223 407.829 378.21 407.91 378.214C410.493 378.368 413.076 377.915 415.452 376.89C417.828 375.865 419.931 374.297 421.591 372.312C421.634 372.246 421.69 372.19 421.756 372.146C421.822 372.102 421.895 372.071 421.973 372.056C422.05 372.041 422.13 372.042 422.207 372.058C422.285 372.075 422.358 372.106 422.423 372.151C422.49 372.197 422.547 372.256 422.591 372.324C422.636 372.392 422.666 372.468 422.681 372.547C422.696 372.627 422.695 372.709 422.678 372.788C422.662 372.868 422.629 372.943 422.584 373.01C419.802 376.474 415.779 378.716 411.371 379.26Z" fill="#263238"/>
<path d="M460.488 370.569C459.493 372.676 458.059 374.546 456.282 376.054C454.506 377.562 452.428 378.674 450.187 379.314C444.473 380.736 441.818 374.459 443.588 368.181C445.171 362.521 450.08 354.983 455.713 356.351C461.347 357.719 463.251 365.07 460.488 370.569Z" fill="#FFC3BD"/>
<path d="M443.052 312.974C424.993 324.24 404.717 331.478 383.606 334.193C383.606 315.871 419.445 295.296 443.052 312.974Z" fill="#263238"/>
<path d="M429.21 315.201C425.052 331.296 466.765 360.804 458.718 389.186C472.345 367.967 462.527 320.217 462.527 320.217C462.527 320.217 427.385 297.979 429.21 315.201Z" fill="#263238"/>
<path d="M424.917 342.59C424.755 342.567 424.599 342.51 424.46 342.422C424.321 342.334 424.203 342.217 424.113 342.08C423.285 340.787 422.163 339.707 420.839 338.929C419.516 338.15 418.027 337.695 416.494 337.6C416.335 337.607 416.175 337.582 416.026 337.526C415.877 337.47 415.74 337.384 415.625 337.274C415.509 337.164 415.418 337.031 415.355 336.884C415.292 336.737 415.26 336.579 415.26 336.42C415.253 336.257 415.279 336.094 415.336 335.941C415.394 335.789 415.481 335.649 415.594 335.531C415.707 335.413 415.843 335.32 415.993 335.256C416.143 335.192 416.304 335.159 416.467 335.159C418.404 335.243 420.292 335.791 421.973 336.758C423.654 337.724 425.078 339.08 426.125 340.712C426.216 340.844 426.28 340.992 426.313 341.149C426.346 341.305 426.347 341.467 426.318 341.624C426.288 341.782 426.227 341.931 426.138 342.065C426.05 342.198 425.936 342.313 425.803 342.402C425.675 342.49 425.531 342.552 425.379 342.584C425.227 342.616 425.07 342.618 424.917 342.59V342.59Z" fill="#263238"/>
<path d="M382.667 341.704C382.354 341.683 382.059 341.549 381.835 341.329C381.722 341.217 381.632 341.083 381.57 340.936C381.509 340.788 381.477 340.63 381.477 340.47C381.477 340.311 381.509 340.153 381.57 340.005C381.632 339.858 381.722 339.724 381.835 339.612C383.174 338.206 384.829 337.141 386.663 336.507C388.498 335.872 390.457 335.686 392.378 335.964C392.693 336.035 392.967 336.226 393.143 336.497C393.318 336.767 393.381 337.096 393.317 337.412C393.285 337.57 393.222 337.72 393.132 337.853C393.041 337.986 392.925 338.099 392.79 338.187C392.655 338.274 392.504 338.334 392.346 338.362C392.187 338.39 392.025 338.387 391.868 338.351C390.346 338.157 388.798 338.325 387.353 338.843C385.908 339.36 384.606 340.212 383.552 341.329C383.318 341.566 383 341.701 382.667 341.704V341.704Z" fill="#263238"/>
<path d="M417.862 352.542L412.926 350.932C412.926 350.932 415.314 354.929 417.862 352.542Z" fill="#263238"/>
<path opacity="0.2" d="M495.871 472.13C495.389 486.453 495.864 500.792 497.293 515.051C483.88 500.888 467.034 474.142 465.934 460.73L495.871 472.13Z" fill="black"/>
<path d="M583.457 421.752L586.381 404.718L612.858 414.938C612.858 414.938 606.715 430.792 595.421 437.794L592.282 435.809C589.821 434.311 587.743 432.261 586.211 429.822C584.679 427.382 583.736 424.619 583.457 421.752V421.752Z" fill="#FFC3BD"/>
<path d="M602.905 395.222L611.624 399.97C613.528 401.003 614.947 402.748 615.57 404.824C616.193 406.899 615.97 409.137 614.95 411.049L612.884 414.938L586.408 404.718L592.712 397.18C593.928 395.733 595.605 394.749 597.461 394.392C599.317 394.036 601.239 394.329 602.905 395.222V395.222Z" fill="#FFC3BD"/>
<path d="M491.15 441.201L494.53 444.688L498.205 448.417C500.7 450.858 503.195 453.353 505.77 455.713C510.867 460.515 516.124 464.968 521.409 469.126C526.394 473.035 531.687 476.533 537.236 479.588C541.48 481.974 546.096 483.625 550.89 484.47L543.674 485.812C541.904 486.67 542.011 487.045 542.387 486.75C543.111 486.265 543.777 485.698 544.372 485.06C546.335 483.018 548.129 480.82 549.737 478.488C553.385 473.311 557.087 467.436 560.467 461.347C563.847 455.257 567.442 449.007 570.902 442.569L581.23 423.469V423.308C582.441 421.032 584.422 419.261 586.819 418.311C589.216 417.361 591.873 417.295 594.314 418.123C596.755 418.952 598.823 420.622 600.146 422.835C601.469 425.048 601.962 427.659 601.537 430.202C600.303 437.928 598.613 445.224 596.735 452.655C594.858 460.086 592.846 467.436 590.163 474.813C587.534 482.42 584.416 489.848 580.828 497.051C578.746 501.107 576.389 505.015 573.773 508.747C572.121 511.05 570.272 513.204 568.247 515.186C565.246 518.177 561.705 520.571 557.811 522.241C555.9 523.055 553.852 523.501 551.776 523.555H550.595C539.996 523.617 529.505 521.413 519.826 517.09C515.554 515.264 511.382 513.213 507.326 510.947C503.445 508.658 499.698 506.288 496.086 503.838C489.066 498.923 482.38 493.546 476.074 487.743C472.989 484.899 469.931 482.029 467.007 478.998C465.558 477.496 464.083 475.993 462.661 474.411C461.239 472.828 459.979 471.379 458.235 469.367C454.379 465.099 452.376 459.473 452.668 453.728C452.96 447.983 455.522 442.589 459.791 438.733C464.059 434.877 469.685 432.874 475.43 433.166C481.175 433.458 486.569 436.02 490.426 440.289L491.15 441.201Z" fill="#FFC3BD"/>
<path d="M470.333 430.873C489.996 431.463 509.552 455.016 509.552 455.016C509.552 455.016 501.987 486.268 480.446 499.734C468.321 490.291 458.047 482.727 458.047 482.727C440.905 457.591 446.619 440.905 470.333 430.873Z" fill="#263238"/>
<path d="M385.913 602.61C387.362 611.007 389.105 617.606 389.669 619.618C389.723 619.831 389.82 620.032 389.954 620.207C390.087 620.382 390.255 620.528 390.447 620.637C393.317 622.22 406.408 628.685 430.444 627.263C457.269 625.814 496.622 611.168 517.037 595.582C517.334 595.352 517.548 595.03 517.645 594.667C517.742 594.303 517.716 593.918 517.573 593.57C515.996 590.074 514.158 586.703 512.074 583.484C511.87 583.175 511.572 582.94 511.224 582.814C510.876 582.689 510.496 582.679 510.142 582.786C501.344 585.469 445.949 601.323 387.603 600.625C387.355 600.626 387.111 600.68 386.886 600.785C386.661 600.889 386.462 601.04 386.302 601.229C386.141 601.418 386.023 601.639 385.956 601.877C385.889 602.116 385.874 602.366 385.913 602.61V602.61Z" fill="#FF0356"/>
<path opacity="0.3" d="M385.913 602.61C387.362 611.007 389.105 617.606 389.669 619.618C389.723 619.831 389.82 620.032 389.954 620.207C390.087 620.382 390.255 620.528 390.447 620.637C393.317 622.22 406.408 628.685 430.444 627.263C457.269 625.814 496.622 611.168 517.037 595.582C517.334 595.352 517.548 595.03 517.645 594.667C517.742 594.303 517.716 593.918 517.573 593.57C515.996 590.074 514.158 586.703 512.074 583.484C511.87 583.175 511.572 582.94 511.224 582.814C510.876 582.689 510.496 582.679 510.142 582.786C501.344 585.469 445.949 601.323 387.603 600.625C387.355 600.626 387.111 600.68 386.886 600.785C386.661 600.889 386.462 601.04 386.302 601.229C386.141 601.418 386.023 601.639 385.956 601.877C385.889 602.116 385.874 602.366 385.913 602.61V602.61Z" fill="white"/>
<path d="M923.525 1036.57H570.339C563.807 1036.63 557.332 1035.34 551.324 1032.77C545.315 1030.21 539.902 1026.43 535.424 1021.67C530.947 1016.92 527.502 1011.28 525.307 1005.13C523.112 998.979 522.214 992.438 522.67 985.921L565.591 251.839C566.57 238.213 572.625 225.45 582.559 216.073C592.492 206.695 605.583 201.385 619.242 201.192H972.508C979.041 201.132 985.515 202.424 991.524 204.987C997.532 207.55 1002.95 211.329 1007.42 216.086C1011.9 220.844 1015.35 226.476 1017.54 232.628C1019.73 238.781 1020.63 245.322 1020.18 251.839L977.122 985.921C976.144 999.538 970.097 1012.29 960.174 1021.67C950.252 1031.05 937.175 1036.36 923.525 1036.57V1036.57Z" fill="#FF0356"/>
<path opacity="0.8" d="M923.525 1036.57H570.339C563.807 1036.63 557.332 1035.34 551.324 1032.77C545.315 1030.21 539.902 1026.43 535.424 1021.67C530.947 1016.92 527.502 1011.28 525.307 1005.13C523.112 998.979 522.214 992.438 522.67 985.921L565.591 251.839C566.57 238.213 572.625 225.45 582.559 216.073C592.492 206.695 605.583 201.385 619.242 201.192H972.508C979.041 201.132 985.515 202.424 991.524 204.987C997.532 207.55 1002.95 211.329 1007.42 216.086C1011.9 220.844 1015.35 226.476 1017.54 232.628C1019.73 238.781 1020.63 245.322 1020.18 251.839L977.122 985.921C976.144 999.538 970.097 1012.29 960.174 1021.67C950.252 1031.05 937.175 1036.36 923.525 1036.57V1036.57Z" fill="white"/>
<path d="M921.432 1021.87H578.065C573.475 1021.91 568.926 1021.01 564.704 1019.21C560.481 1017.41 556.677 1014.75 553.53 1011.41C550.383 1008.07 547.961 1004.12 546.417 999.793C544.874 995.471 544.241 990.876 544.56 986.297L587.481 255.406C588.169 245.856 592.403 236.909 599.353 230.322C606.302 223.735 615.463 219.985 625.036 219.809H968.404C972.995 219.768 977.545 220.678 981.767 222.48C985.99 224.282 989.794 226.938 992.94 230.281C996.087 233.625 998.508 237.582 1000.05 241.906C1001.6 246.23 1002.23 250.826 1001.91 255.406L958.988 986.297C958.3 995.844 954.064 1004.79 947.114 1011.37C940.164 1017.95 931.003 1021.7 921.432 1021.87V1021.87Z" fill="#FF0356"/>
<path d="M917.73 1017.95H574.363C569.772 1017.99 565.222 1017.08 561 1015.28C556.777 1013.48 552.973 1010.82 549.826 1007.48C546.68 1004.14 544.259 1000.18 542.715 995.854C541.172 991.53 540.539 986.933 540.858 982.353L583.779 251.463C584.467 241.913 588.701 232.965 595.651 226.379C602.6 219.792 611.761 216.042 621.334 215.866H964.702C969.293 215.825 973.843 216.734 978.065 218.537C982.288 220.339 986.092 222.995 989.238 226.338C992.385 229.681 994.806 233.639 996.35 237.963C997.893 242.287 998.525 246.883 998.207 251.463L955.286 982.353C954.598 991.904 950.364 1000.85 943.414 1007.44C936.465 1014.02 927.304 1017.77 917.73 1017.95V1017.95Z" fill="white"/>
<path opacity="0.1" d="M907.698 990.777H587.481C584.643 990.802 581.832 990.24 579.222 989.127C576.612 988.013 574.261 986.372 572.316 984.306C570.372 982.24 568.875 979.795 567.921 977.123C566.966 974.451 566.575 971.61 566.771 968.78L584.798 663.907C585.221 657.991 587.847 652.449 592.158 648.376C596.47 644.303 602.152 641.995 608.083 641.91H928.166C931.003 641.884 933.814 642.446 936.424 643.56C939.034 644.673 941.385 646.315 943.33 648.38C945.275 650.446 946.771 652.892 947.725 655.564C948.68 658.236 949.071 661.076 948.875 663.907L930.982 968.78C930.56 974.696 927.933 980.238 923.622 984.311C919.31 988.384 913.628 990.691 907.698 990.777V990.777Z" fill="#FF0356"/>
<path opacity="0.1" d="M836.583 270.08H743.257C742.243 270.09 741.237 269.89 740.304 269.492C739.371 269.095 738.531 268.508 737.835 267.77C737.14 267.032 736.605 266.158 736.263 265.203C735.922 264.247 735.783 263.232 735.853 262.22V262.22C736.001 260.099 736.941 258.11 738.486 256.65C740.031 255.189 742.069 254.362 744.196 254.333H837.495C838.521 254.308 839.54 254.498 840.488 254.89C841.436 255.283 842.291 255.869 842.998 256.612C843.706 257.355 844.25 258.238 844.596 259.204C844.942 260.17 845.081 261.197 845.006 262.22V262.22C844.857 264.353 843.905 266.35 842.342 267.808C840.779 269.267 838.721 270.079 836.583 270.08Z" fill="#FF0356"/>
<path opacity="0.1" d="M873.711 564.326C931.179 508.518 935.103 419.344 882.474 365.149C829.846 310.955 740.595 312.262 683.126 368.069C625.658 423.877 621.735 513.051 674.363 567.246C726.992 621.441 816.243 620.133 873.711 564.326Z" fill="#FF0356"/>
<path d="M679.761 559.501C668.018 547 658.985 532.207 653.229 516.05C647.473 499.894 645.117 482.722 646.309 465.612H648.992C647.829 482.354 650.136 499.156 655.768 514.966C661.399 530.775 670.234 545.252 681.719 557.49L679.761 559.501Z" fill="#FF0356"/>
<path d="M910.514 466.765L907.832 466.604C908.564 454.787 907.662 442.926 905.149 431.356L907.832 430.765C910.397 442.582 911.3 454.699 910.514 466.765V466.765Z" fill="#FF0356"/>
<path d="M897.37 408.017C890.804 393.451 881.413 380.334 869.739 369.425C858.066 358.516 844.343 350.033 829.367 344.467L830.306 341.946C845.625 347.626 859.66 356.298 871.593 367.457C883.526 378.617 893.118 392.04 899.811 406.944L897.37 408.017Z" fill="#FF0356"/>
<path d="M861.452 551.701C911.533 503.067 914.957 425.36 869.099 378.138C823.242 330.915 745.468 332.06 695.386 380.694C645.305 429.328 641.881 507.035 687.738 554.258C733.596 601.48 811.37 600.336 861.452 551.701Z" fill="#FF0356"/>
<path d="M764.771 482.861C770.673 481.546 773.436 476.503 774.696 470.762C774.831 470.145 774.938 469.555 775.045 468.965V468.429C775.367 466.036 775.546 463.626 775.582 461.212C769.868 460.647 764.562 458 760.674 453.775C756.786 449.551 754.587 444.044 754.497 438.303C754.201 426.92 756.726 415.64 761.847 405.469C760.528 405.641 759.279 406.16 758.225 406.971C758.124 407.049 758.006 407.103 757.881 407.131C757.756 407.159 757.626 407.159 757.501 407.132C757.268 407.092 757.058 406.968 756.911 406.783C756.768 406.582 756.708 406.333 756.743 406.089C756.778 405.844 756.905 405.622 757.099 405.469C758.767 404.208 760.802 403.53 762.893 403.537C763.296 402.894 763.671 402.223 764.073 401.606C762.357 401.606 760.693 401.606 759.084 401.606C760.854 389.213 784.702 378.804 800.959 388.193C808.202 389.642 820.166 399.996 820.166 399.996C820.406 406.592 820.218 413.196 819.602 419.767C818.529 430.98 815.874 444.151 809.409 451.502C811.017 447.742 811.609 443.625 811.126 439.564C809.576 441.096 807.652 442.197 805.546 442.756C804.781 444.4 803.884 445.979 802.863 447.478C800.342 458.986 798.544 474.303 802.38 483.129C805.841 483.344 809.194 483.665 812.386 484.014L813.164 484.148C815.271 482.911 817.296 481.54 819.227 480.044C843.37 461.266 817.751 439.215 823.787 419.016C829.823 398.816 824.726 391.144 808.228 390.5C815.069 379.582 771.611 362.146 752.512 396.026C735.209 426.742 729.629 442.086 735.853 466.095C738.192 473.942 743.493 480.57 750.634 484.578C751.85 484.245 753.086 483.994 754.336 483.826C757.743 483.505 761.284 483.129 764.771 482.861Z" fill="#263238"/>
<path d="M727.242 530.074C726.257 528.332 725.362 526.541 724.559 524.709C722.735 530.074 720.938 535.439 719.194 540.804C717.531 545.633 715.948 550.461 714.285 555.075L711.79 561.594L710.717 564.276C710.342 565.001 710.717 564.571 710.717 564.786C709.574 566.118 708.307 567.34 706.935 568.434C706.64 568.729 706.264 568.998 705.942 569.266C713.365 574.273 721.351 578.387 729.737 581.525C729.924 569.266 731.427 556.524 733.036 553.117C723.379 546.411 724.828 539.195 727.242 530.074Z" fill="#FFC3BD"/>
<path d="M736.631 493.886L735.96 494.825C736.175 494.503 736.416 494.208 736.658 493.913L736.631 493.886Z" fill="#263238"/>
<path d="M730.434 511.859C730.395 505.954 732.185 500.182 735.558 495.335C730.415 503.426 726.186 512.063 722.95 521.087C722.95 521.087 723.433 522.509 724.452 524.735C725.255 526.568 726.15 528.359 727.135 530.101C729.047 524.196 730.157 518.06 730.434 511.859V511.859Z" fill="#263238"/>
<path d="M823.948 550.783C820.768 546.11 817.944 541.205 815.498 536.11C814.693 536.539 813.862 536.968 813.003 537.344C804.956 528.84 798.088 521.972 798.088 521.972C788.056 501.049 794.252 489.138 813.272 484.283C816.223 484.89 819.04 486.026 821.588 487.636C819.079 485.872 816.196 484.715 813.164 484.256L812.386 484.122C809.194 483.773 805.841 483.451 802.38 483.236C803.131 485.195 785.909 510.062 775.099 514.005C770.673 502.846 758.252 502.095 758.252 502.095C758.252 502.095 746.664 499.707 743.069 507.004C745.43 491.928 759.942 483.987 764.771 482.861C761.284 483.156 757.743 483.531 754.336 483.961C753.086 484.128 751.85 484.379 750.634 484.712C745.114 486.226 740.219 489.458 736.658 493.94C736.416 494.235 736.175 494.53 735.96 494.852L735.558 495.361C732.185 500.209 730.395 505.981 730.434 511.886C730.19 518.073 729.116 524.199 727.242 530.101C724.828 539.114 723.379 546.437 732.848 553.144C731.239 556.551 729.737 569.239 729.549 581.552C742.88 586.495 756.991 589.002 771.209 588.956C789.414 588.929 807.401 584.985 823.948 577.394C823.487 567.409 823.568 557.406 824.19 547.43V547.43C824.109 548.503 824.002 549.683 823.948 550.783Z" fill="#263238"/>
<path d="M758.252 502.095C758.252 502.095 770.673 502.846 775.099 514.005C785.829 509.928 803.131 485.195 802.38 483.236C802.38 483.236 777.942 495.093 758.252 502.095Z" fill="white"/>
<path d="M764.825 482.861C759.996 484.014 745.483 491.955 743.123 507.004C746.717 499.707 758.306 502.095 758.306 502.095C754.55 487.984 764.825 482.861 764.825 482.861Z" fill="white"/>
<path d="M802.863 447.585C800.532 450.967 797.583 453.88 794.172 456.169C792.737 457.201 791.211 458.099 789.611 458.852C786.097 464.492 780.857 468.848 774.67 471.272V470.816C773.409 476.557 770.646 481.546 764.744 482.914C764.744 482.914 754.47 488.065 758.172 502.175C777.889 495.174 802.3 483.397 802.3 483.397C798.544 474.438 800.342 459.093 802.863 447.585Z" fill="#FFC3BD"/>
<path d="M774.75 470.736C774.884 470.119 774.991 469.528 775.099 468.938C774.991 469.448 774.884 470.119 774.75 470.736Z" fill="#263238"/>
<path opacity="0.2" d="M774.75 470.736C774.884 470.119 774.991 469.528 775.099 468.938C774.991 469.448 774.884 470.119 774.75 470.736Z" fill="black"/>
<path d="M775.716 461.186C775.68 463.6 775.501 466.009 775.179 468.402C775.513 466.01 775.692 463.6 775.716 461.186V461.186Z" fill="#263238"/>
<path opacity="0.2" d="M775.716 461.186C775.68 463.6 775.501 466.009 775.179 468.402C775.513 466.01 775.692 463.6 775.716 461.186V461.186Z" fill="black"/>
<path d="M789.611 458.718C785.291 460.788 780.482 461.623 775.716 461.132C775.692 463.546 775.513 465.957 775.179 468.348V468.885C775.179 469.475 774.965 470.065 774.831 470.682V471.138C780.958 468.684 786.139 464.331 789.611 458.718V458.718Z" fill="#FFC3BD"/>
<path opacity="0.2" d="M789.611 458.718C785.291 460.788 780.482 461.623 775.716 461.132C775.692 463.546 775.513 465.957 775.179 468.348V468.885C775.179 469.475 774.965 470.065 774.831 470.682V471.138C780.958 468.684 786.139 464.331 789.611 458.718V458.718Z" fill="black"/>
<path d="M789.611 458.718C791.211 457.965 792.737 457.067 794.172 456.035C797.583 453.746 800.532 450.833 802.863 447.451C803.884 445.953 804.781 444.374 805.546 442.73C805.036 442.73 804.526 442.998 804.044 443.052C799.564 443.454 798.303 438.411 800.342 433.904C801.032 432.38 801.935 430.962 803.024 429.692C801.853 425.862 802.14 421.735 803.829 418.104C799.751 409.734 795.433 402.008 795.03 396.402C784.993 399.504 774.576 401.211 764.073 401.472C763.671 402.089 763.296 402.759 762.893 403.403C763.803 403.4 764.707 403.535 765.576 403.806C765.689 403.847 765.793 403.911 765.881 403.993C765.969 404.075 766.04 404.174 766.09 404.284C766.14 404.394 766.168 404.512 766.171 404.633C766.175 404.753 766.155 404.873 766.112 404.986C766.027 405.215 765.857 405.402 765.636 405.507C765.416 405.612 765.163 405.627 764.932 405.549C763.968 405.257 762.95 405.183 761.954 405.335C756.902 415.514 754.442 426.784 754.792 438.142C754.882 443.883 757.081 449.39 760.969 453.614C764.857 457.839 770.163 460.486 775.877 461.051V461.051C780.582 461.538 785.331 460.731 789.611 458.718ZM783.629 406.032C785.09 406.319 786.46 406.958 787.619 407.893C788.778 408.827 789.692 410.03 790.282 411.397C790.386 411.622 790.399 411.879 790.32 412.114C790.24 412.348 790.073 412.543 789.853 412.658C789.63 412.751 789.379 412.751 789.155 412.658C789.035 412.625 788.923 412.564 788.83 412.48C788.737 412.396 788.665 412.292 788.619 412.175C788.132 411.092 787.389 410.143 786.454 409.409C785.52 408.676 784.422 408.18 783.254 407.964C783.012 407.924 782.794 407.794 782.645 407.599C782.495 407.405 782.425 407.161 782.449 406.917C782.46 406.78 782.501 406.647 782.569 406.527C782.638 406.407 782.731 406.304 782.844 406.225C782.957 406.145 783.086 406.092 783.221 406.068C783.357 406.044 783.496 406.05 783.629 406.086V406.032ZM782.69 419.284C783.138 419.62 783.469 420.088 783.638 420.622C783.806 421.156 783.803 421.729 783.629 422.262C783.334 423.818 782.261 424.944 781.242 424.703C780.222 424.461 779.632 423.093 779.927 421.537C780.075 420.749 780.481 420.032 781.081 419.499C780.245 419.056 779.59 418.335 779.23 417.46L782.69 419.284ZM760.693 418.157C760.838 417.381 761.234 416.674 761.82 416.145C760.998 415.681 760.355 414.953 759.996 414.08L763.51 415.877C763.943 416.226 764.263 416.694 764.43 417.224C764.597 417.754 764.604 418.321 764.449 418.855C764.127 420.411 763.081 421.537 762.062 421.323C761.042 421.108 760.398 419.767 760.693 418.211V418.157ZM766.917 431.195C765.922 431.253 764.927 431.094 764 430.728C763.073 430.362 762.238 429.798 761.552 429.075C764.424 426.473 766.933 423.495 769.009 420.223L766.917 431.195ZM772.094 438.384C771.975 438.352 771.873 438.276 771.808 438.171C771.743 438.067 771.721 437.941 771.746 437.821C771.771 437.704 771.842 437.602 771.942 437.536C772.043 437.471 772.165 437.448 772.282 437.472C774.218 437.889 776.225 437.844 778.141 437.34C780.056 436.837 781.826 435.89 783.307 434.575C783.35 434.531 783.4 434.495 783.456 434.471C783.512 434.446 783.572 434.433 783.633 434.432C783.694 434.431 783.755 434.441 783.812 434.464C783.869 434.486 783.921 434.519 783.965 434.561C784.009 434.603 784.044 434.654 784.068 434.71C784.093 434.766 784.106 434.826 784.107 434.887C784.109 434.948 784.098 435.009 784.076 435.066C784.054 435.122 784.02 435.174 783.978 435.218C781.484 437.515 778.192 438.747 774.804 438.652C773.897 438.644 772.991 438.572 772.094 438.438V438.384Z" fill="#FFC3BD"/>
<path d="M807.45 426.527C806.324 423.844 805.036 420.974 803.722 418.292C802.033 421.923 801.746 426.05 802.917 429.88C804.107 428.383 805.67 427.226 807.45 426.527V426.527Z" fill="#263238"/>
<path d="M781.027 419.579C780.427 420.112 780.022 420.829 779.874 421.618C779.579 423.174 780.169 424.596 781.188 424.783C782.208 424.971 783.281 423.898 783.576 422.342C783.749 421.81 783.752 421.237 783.584 420.703C783.416 420.169 783.084 419.701 782.637 419.365C782.41 419.537 782.143 419.648 781.86 419.686C781.578 419.723 781.291 419.687 781.027 419.579Z" fill="#263238"/>
<path d="M764.529 418.935C764.684 418.402 764.677 417.834 764.51 417.305C764.343 416.775 764.023 416.306 763.591 415.958C763.358 416.128 763.088 416.239 762.802 416.281C762.517 416.323 762.226 416.295 761.954 416.199C761.368 416.728 760.972 417.435 760.827 418.211C760.532 419.767 761.123 421.189 762.142 421.403C763.161 421.618 764.073 420.491 764.529 418.935Z" fill="#263238"/>
<path d="M763.456 415.958L759.942 414.16C760.302 415.034 760.944 415.761 761.766 416.226C762.048 416.328 762.35 416.356 762.646 416.31C762.942 416.263 763.22 416.142 763.456 415.958Z" fill="#263238"/>
<path d="M761.579 429.21C762.265 429.932 763.1 430.496 764.027 430.862C764.954 431.228 765.949 431.388 766.944 431.329L769.063 420.357C766.978 423.631 764.46 426.609 761.579 429.21V429.21Z" fill="#ED847E"/>
<path d="M783.924 434.575C783.834 434.488 783.714 434.439 783.589 434.439C783.464 434.439 783.344 434.488 783.254 434.575C781.779 435.881 780.018 436.824 778.112 437.327C776.207 437.831 774.21 437.88 772.282 437.472C772.165 437.448 772.043 437.471 771.942 437.536C771.842 437.602 771.771 437.704 771.746 437.821C771.721 437.941 771.743 438.067 771.808 438.172C771.873 438.276 771.975 438.352 772.094 438.384C772.981 438.536 773.878 438.625 774.777 438.652C778.166 438.747 781.457 437.515 783.951 435.219C784.027 435.127 784.066 435.01 784.061 434.891C784.056 434.773 784.007 434.66 783.924 434.575V434.575Z" fill="#263238"/>
<path d="M807.45 426.527C805.67 427.226 804.107 428.383 802.917 429.88C801.828 431.15 800.924 432.568 800.234 434.092C798.196 438.599 799.456 443.642 803.936 443.239C804.419 443.239 804.929 443.025 805.439 442.917C807.545 442.358 809.468 441.257 811.018 439.725C810.457 435.18 809.256 430.736 807.45 426.527Z" fill="#FFC3BD"/>
<path d="M795.54 392.512C795.701 388.649 797.901 387.71 800.905 388.301C784.649 378.804 760.801 389.213 759.03 401.713C760.64 401.713 762.303 401.713 764.02 401.713C774.522 401.452 784.939 399.746 794.977 396.643C794.821 395.241 795.014 393.822 795.54 392.512V392.512Z" fill="#263238"/>
<path d="M795.54 392.512C795.032 393.789 794.839 395.169 794.977 396.536C795.379 402.223 799.698 409.949 803.775 418.238C805.09 420.92 806.458 423.603 807.504 426.473C809.309 430.683 810.51 435.126 811.072 439.672C811.555 443.732 810.963 447.849 809.355 451.609C815.82 444.259 818.476 431.087 819.549 419.874C820.164 413.303 820.352 406.699 820.112 400.104C820.112 400.104 808.148 389.749 800.905 388.301C797.901 387.71 795.701 388.649 795.54 392.512Z" fill="#263238"/>
<path d="M783.307 407.937C784.475 408.153 785.574 408.649 786.508 409.383C787.442 410.116 788.185 411.065 788.673 412.148C788.718 412.265 788.79 412.37 788.884 412.453C788.977 412.537 789.088 412.598 789.209 412.631C789.432 412.724 789.683 412.724 789.906 412.631C790.126 412.516 790.293 412.321 790.373 412.087C790.453 411.852 790.44 411.596 790.336 411.371C789.745 410.004 788.831 408.801 787.672 407.866C786.513 406.931 785.144 406.293 783.683 406.005C783.438 405.975 783.19 406.042 782.995 406.193C782.799 406.344 782.67 406.565 782.637 406.81C782.586 407.048 782.627 407.296 782.752 407.505C782.876 407.714 783.074 407.868 783.307 407.937V407.937Z" fill="#263238"/>
<path d="M764.771 405.683C765.002 405.761 765.255 405.746 765.475 405.641C765.696 405.536 765.866 405.349 765.951 405.12C765.994 405.007 766.014 404.887 766.01 404.767C766.007 404.646 765.979 404.528 765.929 404.418C765.879 404.308 765.808 404.21 765.72 404.127C765.632 404.045 765.528 403.982 765.415 403.94C764.546 403.67 763.642 403.534 762.732 403.537C760.641 403.53 758.606 404.208 756.938 405.469C756.744 405.622 756.617 405.844 756.582 406.089C756.547 406.333 756.607 406.582 756.75 406.783C756.898 406.968 757.107 407.092 757.34 407.132C757.465 407.159 757.595 407.159 757.72 407.131C757.845 407.103 757.963 407.049 758.064 406.971C759.118 406.16 760.367 405.641 761.686 405.469C762.717 405.301 763.773 405.375 764.771 405.683Z" fill="#263238"/>
<path d="M781.027 419.579C781.291 419.687 781.578 419.723 781.861 419.686C782.143 419.648 782.41 419.537 782.637 419.365V419.365L779.123 417.567C779.501 418.441 780.176 419.153 781.027 419.579V419.579Z" fill="#263238"/>
<path d="M823.948 550.783C823.948 549.683 824.109 548.503 824.163 547.376C822.661 544.989 821.132 542.575 819.549 540.187L816.464 535.6L815.498 536.11C817.944 541.205 820.768 546.11 823.948 550.783V550.783Z" fill="#263238"/>
<path opacity="0.2" d="M823.948 550.783C823.948 549.683 824.109 548.503 824.163 547.376C822.661 544.989 821.132 542.575 819.549 540.187L816.464 535.6L815.498 536.11C817.944 541.205 820.768 546.11 823.948 550.783V550.783Z" fill="black"/>
<path d="M831.915 572.995V573.424C842.615 567.643 852.471 560.422 861.209 551.963C859.744 547.636 858.024 543.399 856.058 539.275C853.456 533.665 850.564 528.194 847.394 522.885C844.711 518.271 841.868 513.871 838.944 509.472C836.261 515.078 828.643 528.572 816.544 535.519L819.629 540.107C821.212 542.494 822.741 544.908 824.243 547.296C825.558 549.388 826.926 551.507 828.026 553.6C830.091 557.221 832.023 560.87 833.391 564.33L833.123 566.154C832.801 568.381 832.398 570.661 831.915 572.995Z" fill="#FFC3BD"/>
<path d="M798.088 521.972C798.088 521.972 804.956 528.84 813.003 537.344C813.862 536.968 814.693 536.539 815.498 536.11L816.464 535.6C828.562 528.652 836.127 515.159 838.863 509.552C839.641 507.969 840.044 507.004 840.044 507.004C840.044 507.004 832.264 494.127 821.587 487.636C819.04 486.026 816.223 484.89 813.272 484.283C794.252 489.138 788.056 501.049 798.088 521.972Z" fill="#263238"/>
<path d="M926.717 252.885H964.514C965.547 252.867 966.535 252.464 967.285 251.754C968.035 251.044 968.491 250.079 968.565 249.049V249.049C968.598 248.558 968.53 248.066 968.364 247.603C968.198 247.14 967.938 246.716 967.6 246.359C967.263 246.001 966.855 245.717 966.402 245.524C965.95 245.332 965.462 245.235 964.97 245.24H927.146C926.118 245.257 925.133 245.656 924.384 246.361C923.635 247.065 923.176 248.024 923.096 249.049V249.049C923.058 249.544 923.124 250.041 923.29 250.51C923.456 250.978 923.718 251.406 924.059 251.767C924.4 252.128 924.812 252.414 925.27 252.606C925.728 252.799 926.221 252.894 926.717 252.885V252.885Z" fill="#FF0356"/>
<path d="M925.939 266.056H963.736C964.769 266.039 965.757 265.635 966.507 264.925C967.257 264.215 967.713 263.25 967.787 262.22V262.22C967.824 261.727 967.759 261.232 967.594 260.766C967.43 260.3 967.171 259.873 966.833 259.512C966.495 259.152 966.086 258.865 965.631 258.671C965.177 258.477 964.687 258.379 964.192 258.384H926.395C925.358 258.395 924.363 258.796 923.608 259.506C922.852 260.217 922.392 261.186 922.318 262.22C922.288 262.714 922.36 263.208 922.529 263.672C922.698 264.137 922.96 264.562 923.299 264.921C923.639 265.28 924.048 265.566 924.502 265.762C924.956 265.957 925.445 266.057 925.939 266.056Z" fill="#FF0356"/>
<path d="M620.154 266.056H657.951C658.987 266.039 659.978 265.637 660.732 264.927C661.487 264.218 661.949 263.252 662.029 262.22V262.22C662.062 261.726 661.993 261.23 661.826 260.764C661.658 260.298 661.396 259.871 661.056 259.511C660.716 259.151 660.305 258.865 659.849 258.671C659.394 258.477 658.903 258.379 658.407 258.384H620.61C619.576 258.395 618.584 258.797 617.833 259.508C617.082 260.219 616.627 261.188 616.559 262.22C616.526 262.712 616.595 263.206 616.761 263.67C616.926 264.134 617.186 264.56 617.523 264.92C617.86 265.279 618.268 265.566 618.72 265.761C619.173 265.957 619.661 266.057 620.154 266.056Z" fill="#FF0356"/>
<path d="M925.161 279.201H963.039C964.076 279.19 965.071 278.789 965.827 278.079C966.582 277.368 967.042 276.399 967.116 275.365C967.146 274.871 967.074 274.377 966.905 273.913C966.736 273.448 966.474 273.023 966.135 272.664C965.795 272.305 965.386 272.019 964.932 271.823C964.478 271.628 963.989 271.528 963.495 271.529H925.617C924.582 271.546 923.59 271.948 922.836 272.658C922.082 273.367 921.62 274.332 921.54 275.365V275.365C921.506 275.859 921.576 276.355 921.743 276.821C921.91 277.287 922.172 277.714 922.512 278.074C922.852 278.434 923.263 278.72 923.719 278.914C924.175 279.108 924.666 279.206 925.161 279.201Z" fill="#FF0356"/>
<path d="M875.48 760.479H646.819C642.548 760.519 638.316 759.675 634.388 758C630.459 756.325 626.92 753.855 623.992 750.746C621.065 747.637 618.812 743.956 617.376 739.934C615.94 735.912 615.351 731.636 615.647 727.376C616.291 718.472 620.249 710.134 626.739 704.005C633.23 697.877 641.783 694.404 650.709 694.273H879.37C883.64 694.233 887.873 695.077 891.801 696.752C895.729 698.427 899.269 700.897 902.196 704.006C905.124 707.115 907.377 710.797 908.813 714.818C910.249 718.84 910.837 723.116 910.541 727.376C909.898 736.28 905.94 744.619 899.449 750.747C892.958 756.875 884.406 760.348 875.48 760.479V760.479Z" fill="white"/>
<path d="M870.276 849.459H641.588C637.317 849.491 633.086 848.641 629.16 846.962C625.233 845.282 621.696 842.81 618.769 839.7C615.843 836.59 613.59 832.908 612.153 828.887C610.716 824.865 610.124 820.59 610.416 816.33V816.33C611.079 807.44 615.045 799.121 621.534 793.01C628.023 786.898 636.565 783.437 645.477 783.307H874.166C878.436 783.267 882.668 784.112 886.597 785.787C890.525 787.462 894.065 789.931 896.992 793.04C899.92 796.15 902.173 799.831 903.609 803.853C905.045 807.874 905.633 812.15 905.337 816.41C904.675 825.302 900.71 833.624 894.221 839.74C887.733 845.856 879.191 849.323 870.276 849.459Z" fill="white"/>
<path d="M865.045 938.413H636.384C632.113 938.453 627.881 937.609 623.952 935.934C620.024 934.259 616.485 931.789 613.557 928.68C610.629 925.571 608.377 921.89 606.941 917.868C605.504 913.846 604.916 909.571 605.212 905.31V905.31C605.855 896.404 609.812 888.062 616.302 881.929C622.792 875.797 631.345 872.318 640.273 872.181H868.935C873.206 872.144 877.439 872.992 881.368 874.67C885.296 876.348 888.835 878.82 891.762 881.931C894.69 885.043 896.942 888.726 898.378 892.749C899.814 896.772 900.402 901.049 900.106 905.31V905.31C899.463 914.214 895.505 922.553 889.014 928.681C882.523 934.809 873.971 938.282 865.045 938.413V938.413Z" fill="white"/>
<path d="M664.583 739.24C671.545 732.479 672.026 721.683 665.658 715.125C659.289 708.567 648.483 708.732 641.522 715.492C634.56 722.253 634.079 733.049 640.447 739.607C646.815 746.165 657.621 746 664.583 739.24Z" fill="#FF0356"/>
<path d="M651.03 800.207L653.284 808.711C653.414 809.179 653.695 809.59 654.083 809.881C654.471 810.172 654.945 810.327 655.43 810.321H664.363C664.867 810.326 665.355 810.495 665.753 810.804C666.152 811.112 666.438 811.542 666.569 812.029C666.7 812.515 666.668 813.031 666.477 813.498C666.287 813.965 665.95 814.356 665.516 814.613L657.978 819.978C657.55 820.263 657.221 820.675 657.039 821.156C656.856 821.637 656.828 822.163 656.959 822.661L659.212 831.164C659.346 831.652 659.326 832.17 659.156 832.647C658.985 833.123 658.672 833.536 658.26 833.829C657.847 834.122 657.354 834.28 656.847 834.284C656.341 834.287 655.846 834.134 655.43 833.847L648.509 828.482C648.116 828.206 647.648 828.058 647.168 828.058C646.687 828.058 646.219 828.206 645.826 828.482L638.288 833.847C637.893 834.161 637.404 834.334 636.899 834.337C636.395 834.34 635.903 834.174 635.504 833.865C635.105 833.555 634.822 833.121 634.699 832.631C634.576 832.142 634.622 831.625 634.828 831.164L638.074 822.661C638.273 822.2 638.312 821.685 638.186 821.199C638.06 820.713 637.775 820.283 637.376 819.978L630.455 814.613C630.074 814.285 629.803 813.848 629.68 813.361C629.557 812.874 629.586 812.361 629.765 811.892C629.944 811.422 630.264 811.02 630.68 810.738C631.096 810.457 631.589 810.311 632.092 810.321H641.024C641.531 810.321 642.025 810.167 642.442 809.88C642.859 809.592 643.179 809.185 643.358 808.711L646.497 800.207C646.64 799.717 646.938 799.285 647.346 798.979C647.755 798.672 648.253 798.506 648.764 798.506C649.275 798.506 649.772 798.672 650.181 798.979C650.59 799.285 650.888 799.717 651.03 800.207V800.207Z" fill="#FF0356"/>
<path d="M657.227 896.297L655.805 920.172C655.738 921.173 655.293 922.111 654.562 922.798C653.83 923.485 652.865 923.869 651.862 923.873H630.965C630.503 923.847 630.051 923.727 629.636 923.522C629.221 923.318 628.851 923.032 628.548 922.682C628.246 922.332 628.016 921.924 627.874 921.484C627.731 921.043 627.679 920.579 627.719 920.118L629.463 890.395C629.524 889.394 629.961 888.453 630.688 887.761C631.415 887.069 632.376 886.678 633.379 886.666H648.402L657.227 896.297Z" fill="#FF0356"/>
<path d="M648.267 886.72L657.308 896.297H651.433C650.955 896.302 650.481 896.208 650.042 896.02C649.602 895.833 649.206 895.557 648.879 895.209C648.551 894.862 648.299 894.45 648.138 894C647.978 893.55 647.912 893.072 647.945 892.595L648.267 886.72ZM645.88 880.148L645.504 886.559L645.156 892.434C645.109 893.29 645.235 894.146 645.525 894.952C645.815 895.759 646.264 896.499 646.846 897.128C647.436 897.751 648.147 898.246 648.936 898.583C649.725 898.92 650.575 899.091 651.433 899.087H663.719L659.319 894.392L650.306 884.816L645.88 880.148V880.148Z" fill="white"/>
<path opacity="0.2" d="M867.808 723.862H696.687C695.995 723.867 695.309 723.729 694.672 723.458C694.035 723.186 693.461 722.786 692.985 722.283C692.509 721.779 692.142 721.183 691.907 720.532C691.672 719.881 691.573 719.188 691.617 718.497V718.497C691.731 717.052 692.379 715.701 693.436 714.708C694.493 713.716 695.882 713.154 697.331 713.132H868.425C869.118 713.127 869.804 713.264 870.441 713.536C871.078 713.808 871.652 714.208 872.128 714.711C872.603 715.214 872.97 715.81 873.205 716.462C873.441 717.113 873.539 717.806 873.495 718.497V718.497C873.388 719.94 872.745 721.29 871.693 722.283C870.64 723.276 869.255 723.839 867.808 723.862V723.862Z" fill="#FF0356"/>
<path opacity="0.2" d="M835.376 741.674H695.668C694.974 741.679 694.287 741.541 693.649 741.27C693.011 740.999 692.435 740.599 691.957 740.096C691.479 739.593 691.11 738.998 690.871 738.346C690.633 737.695 690.531 737.001 690.571 736.309V736.309C690.685 734.864 691.333 733.513 692.39 732.521C693.447 731.528 694.836 730.966 696.285 730.944H835.993C836.688 730.935 837.377 731.07 838.017 731.34C838.657 731.61 839.235 732.009 839.713 732.513C840.192 733.017 840.561 733.614 840.798 734.267C841.035 734.92 841.134 735.616 841.09 736.309V736.309C840.97 737.752 840.32 739.099 839.265 740.09C838.209 741.082 836.823 741.646 835.376 741.674Z" fill="#FF0356"/>
<path opacity="0.2" d="M862.175 819.844H814.962C813.51 819.86 812.118 820.42 811.06 821.414C810.002 822.407 809.355 823.762 809.248 825.209C809.203 825.9 809.302 826.593 809.537 827.244C809.773 827.896 810.139 828.492 810.615 828.995C811.091 829.498 811.665 829.898 812.302 830.17C812.939 830.442 813.625 830.579 814.318 830.574H861.531C862.982 830.558 864.374 829.998 865.432 829.004C866.491 828.011 867.137 826.656 867.245 825.209V825.209C867.289 824.518 867.19 823.825 866.955 823.174C866.72 822.522 866.353 821.926 865.877 821.423C865.402 820.92 864.827 820.52 864.19 820.248C863.553 819.976 862.867 819.839 862.175 819.844V819.844Z" fill="#FF0356"/>
<path opacity="0.2" d="M787.358 819.844H691.081C689.63 819.86 688.237 820.42 687.179 821.414C686.121 822.407 685.475 823.762 685.367 825.209V825.209C685.319 825.901 685.415 826.596 685.648 827.249C685.882 827.902 686.249 828.499 686.725 829.004C687.202 829.508 687.778 829.908 688.417 830.178C689.056 830.448 689.744 830.583 690.437 830.574H786.741C788.191 830.552 789.579 829.99 790.636 828.997C791.693 828.005 792.342 826.654 792.455 825.209V825.209C792.499 824.516 792.4 823.821 792.163 823.167C791.926 822.514 791.557 821.917 791.078 821.413C790.6 820.909 790.022 820.51 789.382 820.24C788.742 819.97 788.053 819.835 787.358 819.844V819.844Z" fill="#FF0356"/>
<path opacity="0.2" d="M831.835 802.085H692.1C690.649 802.102 689.257 802.662 688.199 803.655C687.141 804.649 686.494 806.003 686.387 807.45V807.45C686.342 808.142 686.441 808.834 686.676 809.486C686.911 810.137 687.278 810.733 687.754 811.236C688.23 811.74 688.804 812.14 689.441 812.411C690.078 812.683 690.764 812.821 691.457 812.816H831.164C832.614 812.793 834.003 812.231 835.059 811.239C836.116 810.247 836.765 808.896 836.878 807.45C836.922 806.762 836.824 806.071 836.591 805.422C836.357 804.772 835.993 804.177 835.52 803.674C835.047 803.171 834.476 802.771 833.842 802.498C833.208 802.224 832.525 802.084 831.835 802.085V802.085Z" fill="#FF0356"/>
<path opacity="0.2" d="M856.944 908.797H685.85C684.402 908.826 683.017 909.39 681.961 910.381C680.906 911.372 680.255 912.72 680.136 914.163C680.092 914.856 680.191 915.551 680.428 916.204C680.665 916.858 681.034 917.455 681.513 917.958C681.991 918.462 682.569 918.862 683.209 919.132C683.849 919.402 684.538 919.537 685.233 919.528H856.327C857.773 919.505 859.159 918.942 860.211 917.949C861.264 916.956 861.907 915.605 862.014 914.163V914.163C862.058 913.471 861.959 912.779 861.724 912.127C861.489 911.476 861.122 910.88 860.646 910.377C860.171 909.873 859.596 909.473 858.959 909.202C858.322 908.93 857.636 908.792 856.944 908.797V908.797Z" fill="#FF0356"/>
<path opacity="0.2" d="M826.604 891.012H686.896C685.447 891.034 684.058 891.597 683.001 892.589C681.944 893.581 681.296 894.932 681.182 896.377V896.377C681.138 897.068 681.237 897.761 681.472 898.413C681.707 899.064 682.074 899.66 682.55 900.163C683.025 900.667 683.6 901.067 684.237 901.338C684.874 901.61 685.56 901.747 686.252 901.742H825.987C827.434 901.72 828.819 901.156 829.872 900.164C830.924 899.171 831.567 897.82 831.674 896.377V896.377C831.718 895.686 831.62 894.993 831.384 894.342C831.149 893.691 830.782 893.095 830.306 892.591C829.831 892.088 829.257 891.688 828.62 891.416C827.983 891.145 827.296 891.007 826.604 891.012V891.012Z" fill="#FF0356"/>
</svg>
