<svg width="501" height="469" viewBox="0 0 501 469" fill="none" xmlns="http://www.w3.org/2000/svg">
<path d="M5.47827 436.979V465.745H12.1138C11.7658 462.718 11.7658 459.661 12.1138 456.634C12.7441 453.253 19.9526 444.52 19.7348 437.025L5.47827 436.979Z" fill="#EBEBEB"/>
<path d="M58.5621 436.979V465.745H65.1976C64.8497 462.718 64.8497 459.661 65.1976 456.634C65.8279 453.253 73.0364 444.52 72.8187 437.025L58.5621 436.979Z" fill="#E0E0E0"/>
<path d="M110.523 436.979V465.745H103.876C104.218 462.717 104.218 459.661 103.876 456.634C103.234 453.253 96.0372 444.52 96.2435 437.025L110.523 436.979Z" fill="#EBEBEB"/>
<path d="M156.456 436.979V465.745H149.82C150.162 462.717 150.162 459.661 149.82 456.634C149.19 453.253 141.981 444.52 142.199 437.025L156.456 436.979Z" fill="#E0E0E0"/>
<path d="M159.94 295.136H0.962891V437.896H159.94V295.136Z" fill="#F5F5F5"/>
<path d="M117.112 295.136L118.293 437.896H159.939V295.136H117.112Z" fill="#E0E0E0"/>
<path d="M110.179 305.645H8.11377V341.974H110.179V305.645Z" fill="#EBEBEB"/>
<path d="M110.179 349.205H8.11377V385.534H110.179V349.205Z" fill="#EBEBEB"/>
<path d="M110.179 392.777H8.11377V429.106H110.179V392.777Z" fill="#EBEBEB"/>
<path d="M47.2395 254.119L42.8387 294.975H99.2462L103.922 254.119H47.2395Z" fill="#E0E0E0"/>
<path d="M49.5658 257.053L45.2797 292.798H96.1862L100.3 257.053H49.5658Z" fill="white"/>
<path d="M58.1267 263.07L55.4908 286.793H87.614L89.2642 263.07H58.1267Z" fill="#EBEBEB"/>
<path d="M101.905 271.711L113.56 295.136L99.2462 294.975L101.905 271.711Z" fill="#EBEBEB"/>
<path d="M62.8824 325.7C62.8846 326.44 62.6674 327.163 62.2583 327.779C61.8492 328.395 61.2665 328.875 60.584 329.16C59.9015 329.444 59.15 329.52 58.4245 329.377C57.699 329.234 57.0322 328.879 56.5086 328.357C55.985 327.835 55.628 327.17 55.4829 326.445C55.3378 325.72 55.4111 324.968 55.6936 324.285C55.976 323.601 56.4548 323.017 57.0695 322.606C57.6841 322.195 58.4069 321.976 59.1463 321.976C60.1352 321.976 61.0837 322.368 61.7841 323.066C62.4844 323.764 62.8793 324.711 62.8824 325.7V325.7Z" fill="#E0E0E0"/>
<path d="M62.8824 369.708C62.8824 370.446 62.6633 371.169 62.2527 371.783C61.8422 372.398 61.2587 372.876 60.5761 373.159C59.8934 373.442 59.1422 373.516 58.4175 373.372C57.6927 373.228 57.027 372.872 56.5045 372.349C55.982 371.827 55.6262 371.161 55.4821 370.436C55.3379 369.712 55.4119 368.961 55.6947 368.278C55.9774 367.595 56.4563 367.012 57.0707 366.601C57.6851 366.191 58.4074 365.972 59.1463 365.972C59.6374 365.97 60.1239 366.066 60.5778 366.253C61.0318 366.44 61.4443 366.715 61.7915 367.062C62.1387 367.41 62.4139 367.822 62.6011 368.276C62.7883 368.73 62.8839 369.217 62.8824 369.708V369.708Z" fill="#E0E0E0"/>
<path d="M62.8824 413.704C62.8824 414.442 62.6633 415.165 62.2527 415.779C61.8422 416.394 61.2587 416.872 60.5761 417.155C59.8934 417.438 59.1422 417.512 58.4175 417.368C57.6927 417.224 57.027 416.868 56.5045 416.345C55.982 415.823 55.6262 415.157 55.4821 414.432C55.3379 413.708 55.4119 412.956 55.6947 412.274C55.9774 411.591 56.4563 411.008 57.0707 410.597C57.6851 410.187 58.4074 409.967 59.1463 409.967C60.1372 409.967 61.0875 410.361 61.7881 411.062C62.4888 411.762 62.8824 412.713 62.8824 413.704Z" fill="#E0E0E0"/>
<path d="M110.019 63.0652L19.8838 62.1942L22.3936 179.662L112.529 179.994L110.019 63.0652Z" fill="#E0E0E0"/>
<path d="M104.208 68.3026L25.3046 66.2626L27.5852 172.797L106.466 173.771L104.208 68.3026Z" fill="#FAFAFA"/>
<path d="M90.7427 84.2208L38.3807 83.3498L39.9852 157.819L92.2898 156.696L90.7427 84.2208Z" fill="#EBEBEB"/>
<path d="M39.9852 157.819L91.4761 118.441L38.3807 83.3498L39.9852 157.819Z" fill="#F5F5F5"/>
<path d="M497.891 1.8329L418.804 1.06506L421.016 104.127L500.08 104.414L497.891 1.8329Z" fill="#E0E0E0"/>
<path d="M492.78 6.43998L423.56 4.64072L425.566 98.0992L494.763 98.9473L492.78 6.43998Z" fill="#FAFAFA"/>
<path d="M480.965 20.3986L435.043 19.6307L436.441 84.9543L482.328 83.9801L480.965 20.3986Z" fill="#EBEBEB"/>
<path d="M436.441 84.9543L481.618 50.413L435.043 19.6307L436.441 84.9543Z" fill="#F5F5F5"/>
<path d="M409.304 389.305C408.971 390.313 420.764 435.146 420.764 435.146L428.855 433.461L417.727 389.305H409.304Z" fill="#EBEBEB"/>
<path d="M472.003 382.898L455.821 435.146H465.264L480.77 386.611L472.003 382.898Z" fill="#F5F5F5"/>
<path d="M486.832 374.807L468.29 435.146H477.733L495.599 378.52L486.832 374.807Z" fill="#EBEBEB"/>
<path d="M415.034 431.444L424.477 464.14H472.003L480.77 431.444H415.034Z" fill="#E0E0E0"/>
<path d="M439.547 431.444C439.506 431.332 439.472 431.217 439.444 431.1L439.192 430.103C438.974 429.186 438.676 427.891 438.287 426.241L435.02 411.962L424.351 364.344L424.637 364.585H416.317L416.604 364.218C420.833 382.956 424.626 399.745 427.342 411.87C428.672 417.909 429.749 422.78 430.505 426.195C430.849 427.857 431.135 429.152 431.33 430.08C431.411 430.504 431.479 430.837 431.525 431.089C431.544 431.206 431.544 431.326 431.525 431.444C431.484 431.332 431.449 431.217 431.422 431.1C431.353 430.848 431.273 430.516 431.17 430.103C430.941 429.186 430.631 427.891 430.23 426.241C429.439 422.803 428.305 417.978 426.895 411.962C424.11 399.837 420.271 383.07 415.985 364.344L415.893 363.989H424.832L424.89 364.218C429.004 382.956 432.706 399.745 435.376 411.87C436.671 417.909 437.725 422.78 438.459 426.195C438.802 427.857 439.066 429.152 439.261 430.08L439.456 431.089C439.505 431.201 439.536 431.321 439.547 431.444V431.444Z" fill="#E0E0E0"/>
<path d="M485.996 465.504C485.996 465.664 377.192 465.802 243.038 465.802C108.884 465.802 0.0803223 465.664 0.0803223 465.504C0.0803223 465.343 108.861 465.206 243.095 465.206C377.329 465.206 485.996 465.343 485.996 465.504Z" fill="#263238"/>
<path d="M454.709 152.707C454.447 152.597 454.174 152.512 453.895 152.455C453.077 152.271 452.227 152.271 451.409 152.455C450.082 152.797 448.848 153.431 447.799 154.312C446.371 155.547 445.136 156.988 444.131 158.586C441.782 162.185 439.937 167.159 437.782 172.958C435.289 179.579 433.132 186.323 431.319 193.162V193.162C430.981 193.793 430.531 194.356 429.989 194.824C429.71 195.078 429.379 195.269 429.019 195.384C428.659 195.499 428.279 195.534 427.904 195.489C427.168 195.301 426.502 194.903 425.99 194.343C425.451 193.85 424.947 193.323 424.443 192.784C423.447 191.69 422.387 190.656 421.268 189.69C420.186 188.649 418.747 188.062 417.246 188.051C416.495 188.179 415.779 188.463 415.145 188.886C414.512 189.308 413.974 189.859 413.567 190.503C412.753 191.896 412.315 193.475 412.295 195.087C412.1 198.365 413.051 201.677 413.624 205.104C414.197 208.53 414.919 212.049 415.584 215.636C415.928 217.435 416.26 219.246 416.604 221.079L417.119 223.853C417.277 224.337 417.329 224.85 417.271 225.356C417.214 225.862 417.049 226.35 416.787 226.787C416.615 227.017 416.377 227.189 416.105 227.281C415.833 227.373 415.539 227.38 415.263 227.302C414.768 227.158 414.305 226.921 413.899 226.603L411.607 224.861C410.047 223.682 408.425 222.588 406.748 221.584C405.069 220.539 403.236 219.765 401.316 219.292C400.366 219.068 399.377 219.068 398.428 219.292C397.482 219.531 396.648 220.089 396.067 220.873C394.964 222.574 394.423 224.578 394.52 226.603C394.523 228.688 394.727 230.768 395.127 232.815C395.954 237.021 397.123 241.153 398.623 245.169C399.059 246.195 399.393 247.263 399.62 248.355C399.674 248.664 399.665 248.981 399.592 249.287C399.519 249.593 399.384 249.88 399.196 250.131C399.094 250.25 398.982 250.361 398.863 250.463C398.733 250.58 398.581 250.67 398.416 250.727C398.067 250.779 397.711 250.697 397.419 250.498C396.467 249.887 395.58 249.181 394.772 248.389L392.319 246.097C390.713 244.542 388.968 243.138 387.105 241.903C386.177 241.293 385.16 240.829 384.091 240.527C383.583 240.37 383.048 240.322 382.52 240.387C381.993 240.452 381.485 240.629 381.031 240.906C380.146 241.548 379.53 242.495 379.301 243.564C379.025 244.658 378.886 245.783 378.888 246.911C378.899 249.229 379.187 251.537 379.748 253.787C380.88 258.359 382.553 262.779 384.733 266.955C386.902 271.236 389.38 275.353 392.148 279.275C393.532 281.264 395.024 283.177 396.617 285.005C398.153 286.907 399.711 288.798 401.27 290.735V290.804L400.995 290.689L408.284 289.635C410.699 289.347 413.097 288.934 415.469 288.397C420.145 287.345 424.741 285.963 429.221 284.26C433.642 282.625 437.854 280.475 441.77 277.854C443.693 276.58 445.452 275.075 447.008 273.373C447.775 272.538 448.433 271.61 448.968 270.611C449.514 269.665 449.694 268.551 449.472 267.482C449.324 266.97 449.069 266.496 448.723 266.09C448.377 265.685 447.949 265.359 447.466 265.133C446.47 264.646 445.408 264.306 444.315 264.124C442.104 263.79 439.868 263.656 437.633 263.723H434.287C433.136 263.768 431.984 263.695 430.849 263.505C430.497 263.46 430.176 263.279 429.955 263.001C429.871 262.845 429.82 262.673 429.806 262.497C429.789 262.341 429.789 262.183 429.806 262.027C429.841 261.716 429.937 261.416 430.088 261.142C430.24 260.869 430.444 260.628 430.688 260.434C431.591 259.781 432.554 259.217 433.565 258.749C437.379 256.788 441.024 254.515 444.464 251.953C446.128 250.712 447.664 249.307 449.048 247.759C450.479 246.328 451.424 244.484 451.752 242.487C451.848 241.515 451.605 240.539 451.065 239.725C450.517 238.918 449.787 238.25 448.933 237.777C447.205 236.827 445.336 236.157 443.398 235.794C441.482 235.408 439.546 235.129 437.599 234.958L434.711 234.683C434.196 234.653 433.692 234.517 433.233 234.282C432.977 234.149 432.766 233.943 432.629 233.69C432.492 233.436 432.435 233.147 432.465 232.86C432.57 232.364 432.779 231.895 433.077 231.485C433.375 231.074 433.756 230.731 434.195 230.477L436.487 228.781L440.9 225.423L449.426 218.948C452.165 216.805 455.087 214.994 457.15 212.427C458.206 211.227 458.932 209.774 459.259 208.209C459.392 207.458 459.365 206.686 459.179 205.946C458.994 205.205 458.654 204.512 458.182 203.912C457.681 203.359 457.033 202.961 456.314 202.766C455.594 202.552 454.851 202.429 454.102 202.399C452.625 202.36 451.148 202.414 449.678 202.56C448.945 202.56 448.211 202.663 447.489 202.674C446.737 202.73 445.984 202.567 445.323 202.204C445.007 201.99 444.741 201.711 444.543 201.384C444.345 201.058 444.221 200.693 444.177 200.313C444.092 199.601 444.135 198.879 444.303 198.182C447.583 191.967 450.548 185.591 453.185 179.077C455.477 173.347 457.46 168.419 458.17 164.179C458.518 162.328 458.595 160.437 458.399 158.564C458.251 157.202 457.792 155.893 457.058 154.736C456.615 154.028 456.01 153.435 455.294 153.005C455.05 152.856 454.793 152.73 454.526 152.627C454.803 152.702 455.069 152.814 455.317 152.96C456.054 153.381 456.682 153.97 457.15 154.679C457.898 155.845 458.372 157.165 458.537 158.541C458.76 160.43 458.702 162.341 458.365 164.213C457.677 168.465 455.729 173.382 453.449 179.112C450.867 185.7 447.952 192.153 444.716 198.445V198.445C444.557 199.09 444.518 199.758 444.601 200.416C444.632 200.741 444.732 201.055 444.894 201.337C445.056 201.62 445.277 201.865 445.541 202.055C446.139 202.372 446.815 202.511 447.489 202.456C448.2 202.456 448.922 202.388 449.655 202.33C451.144 202.18 452.64 202.123 454.136 202.158C454.913 202.189 455.683 202.316 456.428 202.537C457.216 202.746 457.93 203.171 458.491 203.763C458.991 204.405 459.351 205.145 459.548 205.934C459.745 206.723 459.776 207.545 459.637 208.347C459.304 209.989 458.545 211.514 457.437 212.771C455.317 215.407 452.371 217.24 449.655 219.395L441.14 225.881L436.739 229.228L434.505 230.935C434.127 231.188 433.784 231.488 433.485 231.829C433.209 232.157 433.027 232.553 432.958 232.975C432.937 233.166 432.976 233.358 433.068 233.526C433.16 233.694 433.302 233.829 433.473 233.915C433.878 234.111 434.319 234.224 434.768 234.247L437.656 234.522C439.619 234.689 441.57 234.969 443.501 235.359C445.506 235.728 447.44 236.413 449.231 237.387C450.145 237.913 450.928 238.637 451.523 239.507C452.12 240.419 452.395 241.504 452.302 242.59C451.962 244.703 450.973 246.657 449.472 248.183C448.048 249.757 446.475 251.189 444.773 252.458C441.311 255.045 437.643 257.345 433.806 259.334C432.831 259.776 431.902 260.313 431.032 260.938C430.842 261.084 430.683 261.267 430.565 261.476C430.447 261.684 430.372 261.915 430.345 262.153C430.333 262.267 430.333 262.382 430.345 262.497C430.345 262.588 430.345 262.806 430.425 262.795C430.572 262.927 430.756 263.01 430.952 263.035C432.028 263.209 433.118 263.278 434.207 263.242H437.553C439.822 263.159 442.094 263.293 444.338 263.643C445.494 263.823 446.615 264.183 447.661 264.709C448.214 264.973 448.704 265.352 449.099 265.82C449.494 266.288 449.786 266.835 449.953 267.425C450.213 268.629 450.017 269.887 449.403 270.954C448.849 271.997 448.164 272.964 447.363 273.831C445.778 275.572 443.984 277.112 442.023 278.415C438.072 281.073 433.816 283.246 429.348 284.89C424.832 286.613 420.197 288.007 415.481 289.062C413.101 289.601 410.695 290.014 408.272 290.299L400.972 291.365H400.8L400.697 291.228H400.64L395.987 285.498C394.395 283.666 392.899 281.754 391.506 279.767C388.717 275.817 386.22 271.669 384.034 267.356C381.844 263.135 380.162 258.668 379.026 254.051C378.446 251.769 378.149 249.425 378.143 247.071C378.144 245.889 378.291 244.711 378.579 243.564C378.849 242.363 379.55 241.303 380.55 240.585C381.072 240.262 381.657 240.054 382.265 239.975C382.874 239.896 383.492 239.948 384.08 240.126C385.201 240.444 386.268 240.931 387.243 241.57C389.137 242.823 390.909 244.25 392.537 245.834L394.99 248.126C395.77 248.883 396.622 249.562 397.534 250.154C397.698 250.272 397.894 250.336 398.095 250.337C398.095 250.337 398.267 250.234 398.348 250.177L398.6 249.925C398.739 249.731 398.837 249.512 398.888 249.279C398.939 249.047 398.942 248.806 398.898 248.573C398.68 247.523 398.358 246.498 397.935 245.513C396.428 241.467 395.255 237.304 394.428 233.067C394.021 230.987 393.818 228.872 393.821 226.752C393.73 224.61 394.315 222.493 395.494 220.701C396.147 219.831 397.077 219.209 398.13 218.936C399.159 218.696 400.229 218.696 401.258 218.936C403.228 219.402 405.111 220.176 406.84 221.228C408.537 222.236 410.175 223.342 411.745 224.54L414.037 226.282C414.378 226.559 414.766 226.772 415.183 226.913C415.367 226.967 415.564 226.963 415.747 226.901C415.929 226.84 416.088 226.724 416.203 226.569C416.429 226.227 416.559 225.832 416.581 225.423C416.592 224.967 416.542 224.512 416.432 224.07C416.26 223.142 416.099 222.225 415.928 221.309C415.584 219.475 415.251 217.653 414.919 215.865C414.266 212.266 413.613 208.76 412.982 205.333C412.352 201.906 411.47 198.583 411.664 195.202C411.698 193.527 412.164 191.888 413.017 190.446C413.458 189.748 414.043 189.152 414.733 188.698C415.422 188.243 416.201 187.941 417.016 187.81C417.828 187.743 418.642 187.906 419.366 188.28C420.069 188.621 420.727 189.049 421.325 189.552C422.459 190.531 423.531 191.58 424.534 192.692C425.023 193.227 425.527 193.743 426.047 194.239C426.513 194.733 427.109 195.087 427.766 195.259C428.09 195.296 428.418 195.262 428.729 195.161C429.039 195.061 429.324 194.895 429.565 194.675C430.067 194.242 430.487 193.722 430.803 193.139V193.139C432.639 186.289 434.827 179.537 437.358 172.912C439.536 167.124 441.415 162.139 443.81 158.541C444.834 156.933 446.094 155.488 447.546 154.255C448.615 153.369 449.874 152.741 451.225 152.421C452.054 152.225 452.917 152.225 453.746 152.421C454.081 152.461 454.407 152.558 454.709 152.707V152.707Z" fill="#263238"/>
<path d="M448.692 168.293C448.672 168.424 448.634 168.552 448.578 168.672L448.188 169.749C447.81 170.723 447.283 172.11 446.618 173.863C445.22 177.473 443.237 182.642 440.785 189.002L421.749 239.015C414.346 258.497 407.561 276.226 402.542 288.97C400.043 295.342 397.958 300.488 396.537 304.04C395.826 305.782 395.264 307.146 394.863 308.109C394.669 308.556 394.531 308.899 394.416 309.174L394.245 309.518C394.265 309.391 394.304 309.268 394.359 309.151C394.451 308.876 394.588 308.521 394.749 308.074C395.127 307.089 395.654 305.713 396.319 303.949C397.717 300.339 399.7 295.181 402.152 288.821L421.188 238.831C428.591 219.292 435.364 201.631 440.395 188.887C442.893 182.516 444.979 177.358 446.4 173.817C447.111 172.075 447.672 170.7 448.073 169.737C448.268 169.302 448.406 168.947 448.52 168.683L448.692 168.293Z" fill="#263238"/>
<path d="M449.311 207.889C448.406 208.537 447.447 209.108 446.446 209.596L439.432 213.493C436.682 215.017 434.184 216.381 432.339 217.309C431.369 217.859 430.343 218.305 429.279 218.638C430.192 218.001 431.149 217.431 432.144 216.931L439.134 212.977C441.885 211.453 444.395 210.123 446.251 209.218C447.227 208.678 448.251 208.233 449.311 207.889V207.889Z" fill="#263238"/>
<path d="M428.351 217.905C428.202 217.974 425.474 212.771 422.265 206.284C419.056 199.798 416.535 194.48 416.707 194.4C416.879 194.32 419.583 199.534 422.804 206.021C426.024 212.507 428.499 217.825 428.351 217.905Z" fill="#263238"/>
<path d="M418.334 248.424C417.418 247.747 416.574 246.979 415.813 246.131C414.323 244.642 412.375 242.522 410.255 240.069C408.134 237.617 406.415 235.302 405.201 233.582C404.486 232.695 403.868 231.735 403.355 230.717C404.143 231.535 404.87 232.409 405.533 233.33C406.839 234.981 408.639 237.238 410.713 239.679C412.787 242.12 414.713 244.263 416.111 245.834C416.916 246.64 417.659 247.506 418.334 248.424V248.424Z" fill="#263238"/>
<path d="M439.295 243.496C438.317 243.887 437.304 244.186 436.27 244.39C434.39 244.859 431.777 245.467 428.889 246.109C426.001 246.75 423.365 247.255 421.463 247.667C420.442 247.925 419.398 248.082 418.346 248.137C419.324 247.749 420.337 247.454 421.371 247.255C423.251 246.785 425.864 246.109 428.763 245.524C431.663 244.94 434.275 244.378 436.178 243.977C437.2 243.721 438.243 243.56 439.295 243.496V243.496Z" fill="#263238"/>
<path d="M433.874 271.573C432.602 272.014 431.3 272.362 429.978 272.616C427.548 273.178 424.248 273.923 420.489 274.702C416.73 275.481 413.395 276.169 410.954 276.627C409.646 276.939 408.317 277.15 406.977 277.258C408.248 276.813 409.55 276.465 410.873 276.215C413.292 275.653 416.604 274.908 420.363 274.129C424.121 273.35 427.445 272.662 429.886 272.204C431.197 271.891 432.531 271.68 433.874 271.573V271.573Z" fill="#263238"/>
<path d="M407.573 276.937C407.254 276.715 406.965 276.453 406.714 276.157C406.186 275.63 405.453 274.851 404.548 273.865C402.748 271.894 400.33 269.109 397.786 265.935C395.242 262.76 393.053 259.781 391.529 257.592C390.761 256.503 390.165 255.609 389.764 254.979C389.525 254.668 389.332 254.325 389.191 253.959C389.478 254.221 389.732 254.517 389.947 254.841L391.872 257.351C393.477 259.471 395.712 262.394 398.256 265.557C400.8 268.72 403.149 271.55 404.868 273.579C405.843 274.638 406.746 275.759 407.573 276.937V276.937Z" fill="#263238"/>
<path d="M396.113 353.709C376.218 337.665 373.33 310.24 375.828 285.933C376.252 281.876 376.092 277.556 378.269 274.117C380.446 270.679 385.145 268.559 388.664 270.519C391.586 272.146 392.652 275.756 394.142 278.77C396.135 282.799 399.226 286.184 403.058 288.534C405.556 290.059 408.708 291.102 411.355 289.864C414.999 288.168 415.744 283.354 415.996 279.309L417.406 256.686C417.658 252.629 417.933 248.504 419.457 244.756C420.981 241.009 424.041 237.628 427.926 236.803C431.811 235.978 436.453 238.545 436.991 242.533C437.029 244.217 436.953 245.902 436.762 247.575C436.762 249.26 437.415 251.174 438.974 251.747C440.533 252.32 442.252 251.3 443.558 250.2C448.016 246.407 451.202 241.341 454.216 236.287C457.23 231.233 460.153 226.053 464.255 221.859C468.358 217.664 473.825 214.49 479.647 214.558C485.468 214.627 491.382 218.627 492.459 224.414C493.536 230.202 489.812 235.783 485.869 240.149C480.016 246.641 473.253 252.25 465.791 256.801C464.335 257.458 463.129 258.567 462.353 259.964C461.287 262.6 463.659 265.454 466.261 266.531C469.206 267.734 472.507 267.677 475.635 268.238C478.764 268.8 482.088 270.45 483.073 273.51C484.448 277.762 480.689 281.853 477.091 284.466C469.919 289.679 461.907 293.625 453.403 296.133C450.343 297.015 447.145 297.749 444.601 299.674C442.057 301.599 440.361 305.14 441.621 308.086C442.882 311.031 446.538 312.211 449.644 311.845C452.749 311.478 455.706 309.977 458.754 309.06C464.485 307.341 471.613 308.223 474.799 313.266C476.919 316.589 476.827 321.001 475.383 324.726C473.773 328.343 471.454 331.6 468.564 334.307C459.029 344.288 447.014 351.557 433.748 355.371C420.546 358.958 408.536 359.347 396.021 353.778" fill="#FF0356"/>
<g opacity="0.1">
<path d="M396.113 353.709C376.218 337.665 373.33 310.24 375.828 285.933C376.252 281.876 376.092 277.556 378.269 274.117C380.446 270.679 385.145 268.559 388.664 270.519C391.586 272.146 392.652 275.756 394.142 278.77C396.135 282.799 399.226 286.184 403.058 288.534C405.556 290.059 408.708 291.102 411.355 289.864C414.999 288.168 415.744 283.354 415.996 279.309L417.406 256.686C417.658 252.629 417.933 248.504 419.457 244.756C420.981 241.009 424.041 237.628 427.926 236.803C431.811 235.978 436.453 238.545 436.991 242.533C437.029 244.217 436.953 245.902 436.762 247.575C436.762 249.26 437.415 251.174 438.974 251.747C440.533 252.32 442.252 251.3 443.558 250.2C448.016 246.407 451.202 241.341 454.216 236.287C457.23 231.233 460.153 226.053 464.255 221.859C468.358 217.664 473.825 214.49 479.647 214.558C485.468 214.627 491.382 218.627 492.459 224.414C493.536 230.202 489.812 235.783 485.869 240.149C480.016 246.641 473.253 252.25 465.791 256.801C464.335 257.458 463.129 258.567 462.353 259.964C461.287 262.6 463.659 265.454 466.261 266.531C469.206 267.734 472.507 267.677 475.635 268.238C478.764 268.8 482.088 270.45 483.073 273.51C484.448 277.762 480.689 281.853 477.091 284.466C469.919 289.679 461.907 293.625 453.403 296.133C450.343 297.015 447.145 297.749 444.601 299.674C442.057 301.599 440.361 305.14 441.621 308.086C442.882 311.031 446.538 312.211 449.644 311.845C452.749 311.478 455.706 309.977 458.754 309.06C464.485 307.341 471.613 308.223 474.799 313.266C476.919 316.589 476.827 321.001 475.383 324.726C473.773 328.343 471.454 331.6 468.564 334.307C459.029 344.288 447.014 351.557 433.748 355.371C420.546 358.958 408.536 359.347 396.021 353.778" fill="black"/>
</g>
<path d="M394.554 371.77C396.464 360.552 399.442 349.542 403.447 338.891C408.405 325.897 414.102 313.197 420.512 300.854L425.497 291.113C427.147 287.916 428.775 284.753 430.562 281.75C434.004 276.003 437.757 270.447 441.805 265.11C445.644 259.987 449.46 255.265 453.07 250.876C456.68 246.487 460.141 242.476 463.442 238.946C468.626 233.351 474.243 228.173 480.243 223.463C482.363 221.801 484.047 220.564 485.205 219.738L486.523 218.81C486.668 218.7 486.821 218.6 486.981 218.512C486.861 218.649 486.722 218.769 486.569 218.867L485.297 219.865C484.151 220.724 482.512 221.996 480.426 223.704C474.511 228.484 468.964 233.701 463.832 239.313C460.565 242.854 457.139 246.888 453.517 251.277C449.896 255.666 446.125 260.445 442.321 265.534C438.294 270.853 434.568 276.394 431.158 282.128C429.382 285.119 427.72 288.259 426.127 291.457L421.142 301.198C414.749 313.517 409.045 326.181 404.055 339.132C400.036 349.737 397.017 360.695 395.036 371.862" fill="#263238"/>
<path d="M430.78 281.716C430.619 281.144 430.522 280.556 430.494 279.962C430.368 278.816 430.219 277.189 430.07 275.149C429.783 271.092 429.565 265.454 429.348 259.254C429.13 253.054 428.832 247.427 428.477 243.37C428.305 241.353 428.156 239.714 428.03 238.579C427.927 237.993 427.892 237.397 427.926 236.803C428.113 237.365 428.244 237.945 428.316 238.533C428.522 239.679 428.763 241.295 429.004 243.324C429.497 247.369 429.875 252.996 430.15 259.219C430.425 265.442 430.528 270.886 430.654 275.126C430.734 277.04 430.792 278.644 430.849 279.939C430.883 280.532 430.86 281.127 430.78 281.716V281.716Z" fill="#263238"/>
<path d="M483.451 275.561C482.758 275.67 482.055 275.708 481.354 275.676C480.013 275.676 478.077 275.676 475.624 275.836C470.834 276.031 464.164 276.513 456.932 277.384C449.701 278.255 443.1 279.32 438.378 280.237C436.017 280.673 434.115 281.085 432.797 281.383C432.121 281.562 431.431 281.681 430.734 281.739C431.379 281.466 432.046 281.252 432.728 281.097C434.023 280.73 435.914 280.249 438.275 279.733C442.974 278.69 449.541 277.533 456.841 276.65C463.071 275.89 469.337 275.45 475.613 275.332C478.019 275.332 479.968 275.332 481.343 275.401C482.049 275.392 482.755 275.446 483.451 275.561Z" fill="#263238"/>
<path d="M404.158 337.951C404.022 337.751 403.917 337.53 403.848 337.298L403.081 335.35C402.427 333.665 401.545 331.19 400.502 328.13C398.405 321.998 395.769 313.438 392.984 303.96C390.199 294.482 387.655 285.899 385.684 279.733C384.721 276.73 383.919 274.266 383.335 272.433L382.704 270.45C382.615 270.222 382.557 269.983 382.532 269.74C382.663 269.943 382.767 270.163 382.842 270.393C383.048 270.92 383.3 271.539 383.598 272.341C384.251 274.026 385.134 276.501 386.188 279.561C388.285 285.692 390.921 294.253 393.695 303.742C396.468 313.231 399.035 321.792 401.006 327.958C401.969 330.96 402.76 333.424 403.298 335.258L403.929 337.241C404.038 337.466 404.115 337.705 404.158 337.951V337.951Z" fill="#263238"/>
<path d="M474.799 320.417C474.577 320.536 474.337 320.617 474.088 320.658L472.037 321.196L464.473 323.087C458.078 324.68 449.288 326.984 439.57 329.551C429.852 332.118 421.027 334.341 414.598 335.808C411.389 336.542 408.788 337.115 406.977 337.47L404.891 337.871C404.652 337.931 404.405 337.958 404.158 337.951C404.38 337.845 404.615 337.768 404.857 337.722L406.92 337.183L414.484 335.292C420.867 333.699 429.668 331.384 439.387 328.817C449.105 326.25 457.929 324.027 464.347 322.56C467.556 321.827 470.169 321.265 471.968 320.91L474.054 320.509C474.298 320.449 474.548 320.419 474.799 320.417V320.417Z" fill="#263238"/>
<path d="M400.742 37.3483H122.82V418.173H400.742V37.3483Z" fill="#455A64"/>
<path d="M389.752 395.528H338.284H145.969V52.7395H389.752V352.884V395.528Z" fill="#E0E0E0"/>
<path d="M385.902 389.167H334.892H144.308V48.2127H385.902V346.753V389.167Z" fill="#EBEBEB"/>
<path d="M359.944 362.637L332.119 385.294H139.804V49.0722H383.587V343.464L359.944 362.637Z" fill="#FAFAFA"/>
<path d="M359.944 362.602C359.944 362.602 360.437 362.178 361.434 361.364L365.892 357.72L383.529 343.36V343.429C383.529 295.067 383.438 187.569 383.357 49.0378L383.621 49.3128H141.958H139.838L140.136 49.0149C140.136 175.422 140.136 292.03 140.067 385.236L139.838 384.996L332.153 385.133H332.084L352.988 368.183L358.225 363.954C359.371 363.015 359.978 362.556 359.978 362.556L358.259 363.989L353.022 368.332L332.187 385.362L139.804 385.523H139.563V385.282C139.563 292.076 139.563 175.467 139.506 49.0607V48.7627H141.924H383.586H383.862V49.0263C383.781 187.604 383.713 295.055 383.69 343.418L365.984 357.709L361.503 361.456L359.944 362.602Z" fill="#263238"/>
<path d="M228.804 25.5786H295.446C299.747 25.5786 303.871 27.2871 306.912 30.3283C309.954 33.3694 311.662 37.4941 311.662 41.7949V59.7761H211.889V42.4825C211.892 37.9983 213.676 33.6987 216.847 30.529C220.019 27.3592 224.32 25.5786 228.804 25.5786V25.5786Z" fill="#FF0356"/>
<path d="M236.334 25.5786L232.689 7.12759H290.14L286.942 25.5786H236.334Z" fill="#FF0356"/>
<path d="M206.365 143.711H165.303V102.637H206.365V143.711ZM166.449 142.565H205.219V103.784H166.449V142.565Z" fill="#FF0356"/>
<path d="M351.509 112.562C351.509 112.723 322.916 112.86 287.664 112.86C252.412 112.86 223.807 112.723 223.807 112.562C223.807 112.402 252.389 112.264 287.664 112.264C322.939 112.264 351.509 112.39 351.509 112.562Z" fill="#263238"/>
<path d="M351.509 121.088C351.509 121.26 322.916 121.386 287.664 121.386C252.412 121.386 223.807 121.26 223.807 121.088C223.807 120.917 252.389 120.791 287.664 120.791C322.939 120.791 351.509 120.928 351.509 121.088Z" fill="#263238"/>
<path d="M351.509 129.626C351.509 129.787 322.916 129.924 287.664 129.924C252.412 129.924 223.807 129.787 223.807 129.626C223.807 129.466 252.389 129.328 287.664 129.328C322.939 129.328 351.509 129.466 351.509 129.626Z" fill="#263238"/>
<path d="M351.509 138.164C351.509 138.325 322.916 138.462 287.664 138.462C252.412 138.462 223.807 138.325 223.807 138.164C223.807 138.004 252.389 137.866 287.664 137.866C322.939 137.866 351.509 137.981 351.509 138.164Z" fill="#263238"/>
<path d="M206.365 207.006H165.303V165.933H206.365V207.006ZM166.449 205.86H205.219V167.079H166.449V205.86Z" fill="#FF0356"/>
<path d="M173.463 187.317L178.918 181.461L188.006 188.727L208.806 168.534L213.791 174.413L187.604 200.245L173.463 187.317Z" fill="#FF0356"/>
<path d="M351.509 175.857C351.509 176.018 322.916 176.155 287.664 176.155C252.412 176.155 223.807 176.018 223.807 175.857C223.807 175.697 252.389 175.559 287.664 175.559C322.939 175.559 351.509 175.697 351.509 175.857Z" fill="#263238"/>
<path d="M351.509 184.395C351.509 184.555 322.916 184.693 287.664 184.693C252.412 184.693 223.807 184.555 223.807 184.395C223.807 184.235 252.389 184.097 287.664 184.097C322.939 184.097 351.509 184.223 351.509 184.395Z" fill="#263238"/>
<path d="M351.509 192.921C351.509 193.093 322.916 193.219 287.664 193.219C252.412 193.219 223.807 193.093 223.807 192.921C223.807 192.75 252.389 192.624 287.664 192.624C322.939 192.624 351.509 192.761 351.509 192.921Z" fill="#263238"/>
<path d="M351.509 201.459C351.509 201.62 322.916 201.757 287.664 201.757C252.412 201.757 223.807 201.62 223.807 201.459C223.807 201.299 252.389 201.161 287.664 201.161C322.939 201.161 351.509 201.299 351.509 201.459Z" fill="#263238"/>
<path d="M206.365 268.261H165.303V227.188H206.365V268.261ZM166.449 267.115H205.219V228.334H166.449V267.115Z" fill="#FF0356"/>
<path d="M173.463 248.573L178.918 242.716L188.006 249.982L208.806 229.789L213.791 235.668L187.604 261.5L173.463 248.573Z" fill="#FF0356"/>
<path d="M351.509 237.112C351.509 237.273 322.916 237.41 287.664 237.41C252.412 237.41 223.807 237.273 223.807 237.112C223.807 236.952 252.389 236.814 287.664 236.814C322.939 236.814 351.509 236.94 351.509 237.112Z" fill="#263238"/>
<path d="M351.509 245.639C351.509 245.811 322.916 245.937 287.664 245.937C252.412 245.937 223.807 245.811 223.807 245.639C223.807 245.467 252.389 245.341 287.664 245.341C322.939 245.341 351.509 245.478 351.509 245.639Z" fill="#263238"/>
<path d="M351.509 254.177C351.509 254.348 322.916 254.475 287.664 254.475C252.412 254.475 223.807 254.348 223.807 254.177C223.807 254.005 252.389 253.879 287.664 253.879C322.939 253.879 351.509 254.016 351.509 254.177Z" fill="#263238"/>
<path d="M351.509 262.714C351.509 262.875 322.916 263.012 287.664 263.012C252.412 263.012 223.807 262.875 223.807 262.714C223.807 262.554 252.389 262.416 287.664 262.416C322.939 262.416 351.509 262.554 351.509 262.714Z" fill="#263238"/>
<path d="M206.365 327.408H165.303V286.334H206.365V327.408ZM166.449 326.262H205.219V287.48H166.449V326.262Z" fill="#FF0356"/>
<path d="M173.463 307.719L178.918 301.863L188.006 309.129L208.806 288.936L213.791 294.803L187.604 320.635L173.463 307.719Z" fill="#FF0356"/>
<path d="M351.509 296.247C351.509 296.419 322.916 296.545 287.664 296.545C252.412 296.545 223.807 296.419 223.807 296.247C223.807 296.075 252.389 295.949 287.664 295.949C322.939 295.949 351.509 296.133 351.509 296.247Z" fill="#263238"/>
<path d="M351.509 304.785C351.509 304.946 322.916 305.083 287.664 305.083C252.412 305.083 223.807 304.946 223.807 304.785C223.807 304.625 252.389 304.487 287.664 304.487C322.939 304.487 351.509 304.625 351.509 304.785Z" fill="#263238"/>
<path d="M351.509 313.323C351.509 313.483 322.916 313.621 287.664 313.621C252.412 313.621 223.807 313.483 223.807 313.323C223.807 313.163 252.389 313.025 287.664 313.025C322.939 313.025 351.509 313.151 351.509 313.323Z" fill="#263238"/>
<path d="M351.509 321.849C351.509 322.021 322.916 322.147 287.664 322.147C252.412 322.147 223.807 322.021 223.807 321.849C223.807 321.678 252.389 321.552 287.664 321.552C322.939 321.552 351.509 321.689 351.509 321.849Z" fill="#263238"/>
<path d="M339.763 329.631L313.037 384.984H332.119L339.763 329.631Z" fill="#E0E0E0"/>
<path d="M332.119 385.293L339.763 329.94L383.587 343.464L332.119 385.293Z" fill="#FAFAFA"/>
<path d="M332.119 385.294L346.856 373.157L383.403 343.234L383.506 343.739L366.58 338.536L339.728 330.204L340.083 329.975C337.791 346.019 335.832 359.829 334.445 369.616C333.058 379.139 332.348 384.056 332.153 385.294C332.149 385.21 332.149 385.125 332.153 385.041L332.256 384.285C332.348 383.563 332.474 382.555 332.646 381.271C333.001 378.578 333.505 374.716 334.147 369.811C335.476 359.943 337.333 346.065 339.499 329.849V329.528L339.808 329.62L366.729 337.917L383.644 343.143L384.171 343.303L383.747 343.647C368.952 355.577 356.013 366.006 346.753 373.444L335.946 382.119L333.058 384.411L332.325 384.996L332.119 385.294Z" fill="#263238"/>
<g opacity="0.3">
<path d="M286.163 7.12759L283 25.5786H286.942L290.14 7.12759H285.109" fill="black"/>
</g>
<path d="M117.892 201.723C119.273 201.827 120.662 201.652 121.974 201.208C123.287 200.763 124.496 200.059 125.531 199.137C126.565 198.215 127.403 197.094 127.995 195.841C128.586 194.588 128.919 193.229 128.974 191.844C129.191 186.229 129.386 180.556 129.386 180.556C129.386 180.556 137.89 179.765 138.555 171.388C139.219 163.01 138.887 143.551 138.887 143.551C134.225 141.199 129.02 140.135 123.81 140.47C118.6 140.804 113.573 142.525 109.251 145.453L109.766 175.066V191.008C109.778 196.302 112.563 201.322 117.892 201.723Z" fill="#FFBE9D"/>
<path d="M130.12 161.073C129.499 160.181 128.564 159.555 127.502 159.321C126.439 159.088 125.328 159.263 124.39 159.813C123.437 160.474 122.751 161.453 122.453 162.574C122.155 163.695 122.264 164.885 122.762 165.933C123.196 166.71 123.787 167.388 124.497 167.925C125.208 168.462 126.022 168.845 126.888 169.05C127.656 169.217 128.337 169.658 128.803 170.291C129.269 170.924 129.489 171.705 129.421 172.488C129.068 174.7 128.034 176.747 126.464 178.344C123.868 180.986 120.413 182.612 116.723 182.928C113.136 183.352 109.033 182.607 106.947 179.662C105.423 177.519 105.32 174.711 105.263 172.087C105.133 165.883 105.003 159.679 104.873 153.475C104.738 151.239 104.88 148.995 105.297 146.794C105.736 144.574 106.996 142.601 108.827 141.27C110.878 139.918 113.468 139.803 115.795 139.058C118.717 138.107 121.192 136.182 123.92 134.784C126.647 133.385 129.982 132.549 132.721 133.924C134.693 134.91 136.01 136.869 137.913 137.958C140.64 139.505 144.342 139.104 145.66 143.161C146.124 144.548 146.124 146.049 145.66 147.436C143.815 152.879 137.076 155.08 132.217 152.73C132.125 153.647 133.031 155.698 132.057 158.609C131.747 159.549 131.644 160.959 130.189 160.993" fill="#263238"/>
<path d="M106.89 143.711C108.226 141.05 109.138 138.196 109.595 135.253C109.811 133.78 109.684 132.276 109.225 130.859C108.766 129.442 107.987 128.149 106.947 127.082C105.413 125.75 103.431 125.05 101.401 125.123C99.4719 125.232 97.6242 125.935 96.1103 127.135C94.5964 128.336 93.4902 129.974 92.943 131.827C92.4709 133.695 92.5439 135.659 93.1531 137.487C93.7624 139.315 94.8826 140.93 96.3811 142.141C97.9133 143.318 99.7292 144.069 101.645 144.319C103.561 144.568 105.509 144.307 107.291 143.562" fill="#263238"/>
<path d="M108.54 140.674C108.478 141.703 108.036 142.672 107.298 143.392C106.561 144.113 105.582 144.533 104.552 144.571C104.552 144.399 105.79 144.066 106.844 142.966C107.899 141.866 108.38 140.628 108.54 140.674Z" fill="#FF0356"/>
<path d="M105.779 142.737C105.122 143.425 104.345 143.988 103.486 144.399C102.569 144.922 101.539 145.216 100.484 145.258C99.8138 145.294 99.1448 145.17 98.5327 144.895C97.9207 144.619 97.3833 144.202 96.9656 143.677C96.5958 143.124 96.3492 142.498 96.2425 141.842C96.1357 141.185 96.1712 140.513 96.3467 139.872C96.6127 138.854 97.0933 137.904 97.7563 137.087C98.3051 136.312 98.979 135.635 99.7504 135.081C99.2404 135.874 98.6896 136.639 98.1001 137.374C97.5249 138.172 97.1121 139.075 96.8853 140.032C96.7423 140.597 96.7184 141.185 96.8151 141.759C96.9118 142.333 97.1269 142.881 97.4469 143.367C97.8132 143.815 98.2778 144.171 98.8046 144.41C99.3313 144.649 99.906 144.762 100.484 144.742C101.463 144.727 102.427 144.492 103.303 144.055C104.793 143.287 105.721 142.645 105.779 142.737Z" fill="#263238"/>
<path d="M91.4759 152.238C91.6487 152.529 91.7835 152.841 91.877 153.166C92.1741 154.025 92.5949 154.835 93.1262 155.572C93.4795 156.106 93.9744 156.53 94.5555 156.797C95.1365 157.064 95.7806 157.164 96.4153 157.085C97.1749 156.871 97.8663 156.464 98.4225 155.903C98.9786 155.343 99.3807 154.649 99.5898 153.888C100.001 152.285 100.289 150.653 100.449 149.006C100.611 147.593 101.167 146.255 102.054 145.144C102.689 144.413 103.554 143.919 104.506 143.745C104.851 143.661 105.213 143.693 105.538 143.837C105.538 143.837 105.159 143.837 104.552 143.975C103.691 144.213 102.929 144.718 102.375 145.419C101.594 146.496 101.115 147.762 100.988 149.086C100.856 150.773 100.576 152.445 100.151 154.083C99.9149 154.942 99.4537 155.724 98.8152 156.346C98.1767 156.968 97.3839 157.409 96.5184 157.624C95.727 157.75 94.9163 157.596 94.2264 157.188C93.654 156.841 93.1618 156.376 92.7824 155.825C92.2569 155.036 91.8694 154.164 91.6363 153.246C91.5188 152.923 91.4643 152.581 91.4759 152.238V152.238Z" fill="#263238"/>
<path d="M87.3386 222.936C87.3386 222.936 83.041 254.36 87.3386 258.348C91.6362 262.336 95.7505 261.007 95.7505 261.007L103.922 254.131L105.526 222.89L87.3386 222.936Z" fill="#FFBE9D"/>
<path d="M176.098 134.726L181.553 128.87L190.641 136.136L211.442 115.943L216.427 121.822L190.24 147.653L176.098 134.726Z" fill="#FF0356"/>
<path d="M201.724 136.319L193.816 141.396C193.461 138.267 191.077 135.173 191.192 136.743C191.306 138.313 191.192 146.462 191.192 146.462L177.107 176.132C175.193 180.831 171.308 183.788 168.409 184.487L155.218 188.406L160.364 205.814L178.7 199.74C181.04 198.965 183.167 197.652 184.908 195.906C186.649 194.161 187.958 192.032 188.728 189.69L201.334 151.275C202.171 148.8 202.845 146.274 203.351 143.711C203.901 140.491 201.724 136.319 201.724 136.319Z" fill="#FFBE9D"/>
<path d="M136.939 460.84L136.733 452.05L120.253 452.313L120.402 465.183L121.433 465.24C126.017 465.412 144.594 465.825 147.62 464.862C150.989 463.773 136.939 460.84 136.939 460.84Z" fill="#FF0356"/>
<g opacity="0.5">
<path d="M126.384 464.965C126.106 463.593 125.336 462.37 124.218 461.527C123.117 460.671 121.734 460.262 120.344 460.381L120.413 464.965H126.384Z" fill="white"/>
</g>
<g opacity="0.4">
<path d="M143.758 462.524C143.758 462.524 148.686 463.854 148.09 464.679C147.494 465.504 128.676 465.825 120.356 465.183V464.816L142.314 464.667C142.314 464.667 142.852 462.582 143.758 462.524Z" fill="white"/>
</g>
<path d="M120.161 464.805H120.448H121.261L124.264 464.885C126.797 464.942 130.292 464.965 134.154 464.885C138.016 464.805 141.523 464.702 144.044 464.576L147.047 464.404L147.861 464.346H148.136H147.849H147.035L144.044 464.461C141.512 464.541 138.016 464.656 134.154 464.713C130.292 464.771 126.797 464.713 124.264 464.713H121.273H120.127L120.161 464.805Z" fill="#263238"/>
<path d="M142.383 464.919C142.502 464.421 142.683 463.94 142.921 463.487C143.21 463.069 143.544 462.685 143.918 462.341C143.43 462.57 143.023 462.941 142.749 463.405C142.475 463.869 142.347 464.405 142.383 464.942V464.919Z" fill="#263238"/>
<path d="M137.477 462.524C137.477 462.524 137.752 462.272 137.993 461.894C138.234 461.516 138.371 461.172 138.325 461.149C138.28 461.126 138.05 461.401 137.821 461.779C137.592 462.158 137.432 462.501 137.477 462.524Z" fill="#263238"/>
<path d="M136.137 461.848C136.137 461.848 136.423 461.711 136.71 461.447C136.996 461.183 137.179 460.943 137.145 460.908C137.111 460.874 136.847 461.046 136.572 461.298C136.297 461.55 136.091 461.802 136.137 461.848Z" fill="#263238"/>
<path d="M135.266 460.301C135.54 460.401 135.835 460.432 136.125 460.393C136.416 460.427 136.71 460.391 136.985 460.29C136.707 460.202 136.415 460.17 136.125 460.198C135.834 460.165 135.54 460.201 135.266 460.301Z" fill="#263238"/>
<path d="M134.956 459.212C135.246 459.39 135.579 459.481 135.919 459.476C136.259 459.525 136.605 459.473 136.916 459.327C136.588 459.295 136.258 459.295 135.93 459.327C135.61 459.259 135.284 459.22 134.956 459.212V459.212Z" fill="#263238"/>
<path d="M138.027 461.08C138.376 461.144 138.733 461.144 139.082 461.08C139.471 461.029 139.855 460.94 140.228 460.817C140.451 460.747 140.666 460.655 140.87 460.542C140.934 460.508 140.991 460.46 141.036 460.403C141.082 460.346 141.115 460.28 141.133 460.209C141.147 460.13 141.138 460.048 141.107 459.973C141.077 459.898 141.026 459.833 140.961 459.785C140.553 459.596 140.092 459.553 139.656 459.664C139.22 459.775 138.835 460.032 138.566 460.393C138.412 460.607 138.299 460.848 138.234 461.103C138.214 461.198 138.214 461.295 138.234 461.39C138.343 461.066 138.502 460.76 138.704 460.484C138.94 460.203 139.249 459.993 139.598 459.877C140.014 459.733 140.471 459.757 140.87 459.946C141.03 460.072 140.973 460.267 140.789 460.381C140.6 460.488 140.4 460.576 140.193 460.645C139.82 460.774 139.437 460.874 139.047 460.943C138.417 461.046 138.027 461.046 138.027 461.08Z" fill="#263238"/>
<path d="M138.291 461.161C138.42 460.939 138.461 460.677 138.406 460.427C138.362 460.151 138.257 459.888 138.096 459.659C138.006 459.504 137.877 459.374 137.723 459.282C137.568 459.19 137.393 459.138 137.214 459.132C137.16 459.143 137.109 459.164 137.064 459.195C137.019 459.226 136.98 459.265 136.95 459.311C136.92 459.357 136.9 459.408 136.89 459.462C136.88 459.516 136.881 459.571 136.893 459.625C136.918 459.793 136.981 459.954 137.076 460.095C137.216 460.33 137.389 460.542 137.592 460.725C137.756 460.915 137.964 461.061 138.199 461.149C138.199 461.149 137.993 460.966 137.695 460.633C137.523 460.438 137.37 460.227 137.237 460.003C137.088 459.785 136.985 459.384 137.237 459.327C137.489 459.27 137.775 459.556 137.936 459.762C138.089 459.967 138.199 460.201 138.257 460.45C138.288 460.685 138.3 460.923 138.291 461.161Z" fill="#263238"/>
<path d="M120.436 460.289C120.436 460.289 120.906 460.289 121.651 460.289C122.622 460.382 123.548 460.747 124.321 461.343C125.094 461.939 125.682 462.742 126.017 463.659C126.281 464.358 126.315 464.805 126.349 464.805C126.372 464.695 126.372 464.582 126.349 464.473C126.312 464.173 126.247 463.878 126.155 463.59C125.837 462.633 125.238 461.793 124.437 461.18C123.636 460.567 122.669 460.209 121.662 460.152C121.361 460.118 121.058 460.118 120.757 460.152C120.642 460.176 120.533 460.223 120.436 460.289Z" fill="#263238"/>
<path d="M122.04 453.413C121.938 454.537 121.907 455.666 121.949 456.794C121.912 457.941 121.947 459.089 122.052 460.232C122.156 459.089 122.187 457.941 122.144 456.794C122.171 455.666 122.137 454.538 122.04 453.413V453.413Z" fill="#263238"/>
<path d="M128.424 463.326C129.219 463.49 130.031 463.555 130.842 463.521C131.651 463.556 132.461 463.479 133.249 463.292C133.249 463.235 132.103 463.292 130.842 463.292C129.581 463.292 128.435 463.269 128.424 463.326Z" fill="#263238"/>
<path d="M125.204 463.361C125.204 463.361 125.295 463.59 125.398 463.842C125.502 464.094 125.582 464.301 125.639 464.301C125.696 464.301 125.719 464.037 125.582 463.751C125.444 463.464 125.238 463.327 125.204 463.361Z" fill="#263238"/>
<path d="M123.954 461.871C123.954 461.871 124.023 462.077 124.207 462.249C124.39 462.421 124.55 462.524 124.585 462.49C124.619 462.455 124.516 462.272 124.344 462.112C124.172 461.951 124 461.825 123.954 461.871Z" fill="#263238"/>
<path d="M122.201 461.161C122.201 461.161 122.442 461.161 122.682 461.287C122.923 461.413 123.095 461.493 123.141 461.459C123.187 461.424 123.049 461.195 122.74 461.103C122.43 461.012 122.19 461.161 122.201 461.161Z" fill="#263238"/>
<path d="M120.963 460.897C120.963 460.897 121.032 461.034 121.17 461.08C121.307 461.126 121.433 461.138 121.456 461.08C121.479 461.023 121.376 460.943 121.238 460.897C121.101 460.851 120.975 460.84 120.963 460.897Z" fill="#263238"/>
<path d="M78.7663 458.032L84.3589 451.236L71.6839 440.681L63.4095 450.537L64.143 451.247C67.4779 454.353 81.3334 466.799 84.2443 468.037C87.5105 469.423 78.7663 458.032 78.7663 458.032Z" fill="#FF0356"/>
<g opacity="0.5">
<path d="M68.1199 454.284C68.821 453.06 69.0455 451.619 68.7502 450.239C68.4691 448.875 67.6832 447.667 66.5498 446.858L63.5358 450.376L68.1199 454.284Z" fill="white"/>
</g>
<g opacity="0.4">
<path d="M82.8805 463.785C82.8805 463.785 85.7456 468.014 84.76 468.243C83.7744 468.472 69.2657 456.416 63.4095 450.537L63.6617 450.273L80.4051 464.484C80.4051 464.484 82.1127 463.2 82.8805 463.785Z" fill="white"/>
</g>
<path d="M63.4669 450.101L63.6617 450.308L64.2577 450.869L66.481 452.886C68.3604 454.571 70.9963 456.874 73.9645 459.35C76.9327 461.825 79.6947 464.014 81.6658 465.573L84.0496 467.395L84.7028 467.876L84.9435 468.037L84.7257 467.842L84.0954 467.326L81.8033 465.458C79.8207 463.877 77.1046 461.676 74.1364 459.201C71.1682 456.725 68.5209 454.445 66.6185 452.783L64.3264 450.812L63.7076 450.273L63.4669 450.101Z" fill="#263238"/>
<path d="M80.2333 464.679C80.6509 464.375 81.1053 464.124 81.5856 463.934C82.0811 463.808 82.5878 463.731 83.0983 463.705C82.5879 463.517 82.0273 463.517 81.5168 463.705C80.9852 463.863 80.5291 464.209 80.2333 464.679Z" fill="#263238"/>
<path d="M78.0787 459.659C78.0787 459.717 78.4569 459.659 78.881 459.51C79.305 459.361 79.6488 459.224 79.6259 459.166C79.6029 459.109 79.2477 459.166 78.8236 459.315C78.5535 459.375 78.2995 459.492 78.0787 459.659V459.659Z" fill="#263238"/>
<path d="M77.5059 458.261C77.5059 458.261 77.8153 458.353 78.2049 458.341C78.5946 458.33 78.8926 458.273 78.8926 458.215C78.8926 458.158 78.5717 458.124 78.1935 458.135C77.9576 458.124 77.7223 458.167 77.5059 458.261V458.261Z" fill="#263238"/>
<path d="M77.8497 456.576C77.8497 456.576 78.0789 456.897 78.4457 457.207C78.6525 457.416 78.8976 457.583 79.1677 457.7C79.1677 457.7 78.9385 457.367 78.5717 457.058C78.205 456.748 77.8956 456.485 77.8497 456.576Z" fill="#263238"/>
<path d="M78.3311 455.499C78.4558 455.813 78.6461 456.098 78.8891 456.333C79.1321 456.568 79.4224 456.749 79.7407 456.863C79.5187 456.622 79.2813 456.397 79.0301 456.187C78.6519 455.82 78.4342 455.43 78.3311 455.499Z" fill="#263238"/>
<path d="M79.4313 458.868C79.6586 459.142 79.9344 459.371 80.245 459.545C80.5701 459.755 80.9157 459.931 81.2764 460.072C81.4895 460.168 81.7123 460.241 81.9411 460.289C82.0853 460.314 82.2333 460.281 82.3537 460.198C82.4168 460.149 82.4645 460.083 82.491 460.008C82.5174 459.933 82.5215 459.851 82.5027 459.774C82.3258 459.355 82.0078 459.01 81.6038 458.801C81.1998 458.592 80.7353 458.53 80.2908 458.628C80.0291 458.679 79.7824 458.789 79.5688 458.949C79.4886 459 79.4186 459.066 79.3625 459.143C79.6561 458.965 79.9777 458.837 80.3138 458.765C80.6775 458.703 81.0516 458.746 81.391 458.891C81.7995 459.049 82.129 459.363 82.3078 459.762C82.3078 459.969 82.1818 460.083 81.964 460.049C81.7527 460.001 81.5457 459.936 81.3452 459.854C80.9921 459.723 80.6508 459.562 80.3252 459.373C79.7637 459.155 79.4542 458.868 79.4313 458.868Z" fill="#263238"/>
<path d="M79.5801 459.132C79.5801 459.132 79.8781 459.04 80.1531 458.651C80.3008 458.414 80.3947 458.148 80.4282 457.871C80.4544 457.693 80.438 457.51 80.3802 457.339C80.3225 457.167 80.225 457.012 80.0958 456.886C79.997 456.833 79.8812 456.821 79.7738 456.854C79.6664 456.886 79.5762 456.959 79.5228 457.058C79.4356 457.201 79.3809 457.361 79.3624 457.528C79.3289 457.798 79.3289 458.071 79.3624 458.341C79.3623 458.593 79.4254 458.842 79.5457 459.063C79.5457 459.063 79.5457 458.777 79.5457 458.341C79.5426 458.08 79.5656 457.819 79.6145 457.562C79.6145 457.298 79.8208 456.932 80.0614 457.058C80.3021 457.184 80.3136 457.585 80.3136 457.848C80.2931 458.102 80.2189 458.348 80.0958 458.57C79.9453 458.776 79.7723 458.965 79.5801 459.132V459.132Z" fill="#263238"/>
<path d="M66.6188 446.858C66.6188 446.858 67.0084 447.122 67.5241 447.66C68.1953 448.37 68.6591 449.25 68.865 450.205C69.0548 451.162 68.9755 452.154 68.6358 453.07C68.3722 453.78 68.0857 454.158 68.1201 454.216C68.2062 454.14 68.2797 454.051 68.3378 453.952C68.5086 453.705 68.6509 453.44 68.7618 453.161C69.158 452.229 69.2619 451.198 69.0598 450.205C68.8529 449.214 68.354 448.308 67.6273 447.603C67.4107 447.392 67.1726 447.203 66.9167 447.041C66.8301 446.962 66.7289 446.9 66.6188 446.858Z" fill="#263238"/>
<path d="M72.3259 442.675C71.5118 443.465 70.7464 444.303 70.0338 445.185C69.2773 446.025 68.5658 446.905 67.9022 447.821C68.7214 447.04 69.4872 446.206 70.1943 445.322C70.9495 444.477 71.661 443.593 72.3259 442.675Z" fill="#263238"/>
<path d="M70.6984 454.365C71.1881 455.008 71.7581 455.585 72.3945 456.084C72.9895 456.637 73.6564 457.107 74.3771 457.482C74.3771 457.482 73.5405 456.794 72.532 455.935C71.5235 455.075 70.7442 454.284 70.6984 454.365Z" fill="#263238"/>
<path d="M68.2232 452.29C68.2232 452.29 68.143 452.52 68.0742 452.783C68.0054 453.047 67.9023 453.242 67.9481 453.276C67.994 453.31 68.1773 453.138 68.269 452.829C68.3607 452.52 68.2805 452.279 68.2232 452.29Z" fill="#263238"/>
<path d="M68.2576 450.342C68.2003 450.342 68.1774 450.548 68.2003 450.789C68.2232 451.03 68.2805 451.224 68.3378 451.224C68.3951 451.224 68.4181 451.018 68.3378 450.778C68.2576 450.537 68.3149 450.342 68.2576 450.342Z" fill="#263238"/>
<path d="M67.3634 448.692C67.3634 448.749 67.5124 448.887 67.6385 449.104C67.7645 449.322 67.8218 449.54 67.8791 449.54C67.9364 449.54 67.9708 449.276 67.8104 449.001C67.6499 448.726 67.3863 448.646 67.3634 448.692Z" fill="#263238"/>
<path d="M66.6188 447.649C66.6188 447.649 66.6188 447.809 66.6188 447.935C66.6188 448.061 66.7907 448.142 66.8365 448.119C66.8824 448.096 66.8365 447.958 66.8365 447.832C66.8365 447.706 66.6646 447.626 66.6188 447.649Z" fill="#263238"/>
<path d="M113.067 273.888C113.067 273.888 107.577 297.107 109.136 301.702C110.695 306.298 120.745 308.945 120.745 308.945L120.401 372.538L64.7963 441.3L85.3101 458.078C85.3101 458.078 145.522 389.213 150.828 376.71C156.135 364.207 147.39 272.822 147.39 272.822L113.067 273.888Z" fill="#263238"/>
<path d="M141.466 264.422L144.182 457.551L115.909 457.722L101.71 300.396C98.7073 297.531 94.4785 292.626 95.063 281.681L95.7506 268.972L141.466 264.422Z" fill="#263238"/>
<path d="M111.669 383.288C111.71 383.186 111.764 383.09 111.829 383.001C111.978 382.795 112.15 382.532 112.368 382.211L114.465 379.243L122.144 368.607V368.756C121.525 362.052 120.78 353.927 119.978 345.16C118.946 333.699 118.121 323.271 117.628 315.718C117.376 311.948 117.216 308.899 117.124 306.791C117.124 305.782 117.055 304.969 117.044 304.35C117.009 304.068 117.009 303.783 117.044 303.502C117.099 303.781 117.134 304.065 117.147 304.35C117.147 304.957 117.261 305.771 117.342 306.779C117.514 308.945 117.743 311.971 118.041 315.695C118.637 323.225 119.531 333.619 120.562 345.102C121.33 353.904 122.109 362.018 122.625 368.756V368.837V368.905L114.775 379.403L112.563 382.302L111.967 383.047C111.726 383.231 111.669 383.299 111.669 383.288Z" fill="#455A64"/>
<path d="M120.333 303.502C117.803 303.367 115.292 302.983 112.838 302.356C110.341 301.933 107.892 301.265 105.526 300.361C108.031 300.682 110.515 301.153 112.964 301.771C115.451 302.207 117.912 302.785 120.333 303.502Z" fill="#455A64"/>
<path d="M139.701 369.478C137.26 368.466 134.692 367.795 132.068 367.484C129.425 367.378 126.779 367.636 124.206 368.252C124.878 367.828 125.625 367.536 126.407 367.393C128.275 366.905 130.212 366.735 132.137 366.888C134.049 367.042 135.924 367.511 137.684 368.275C138.423 368.552 139.106 368.96 139.701 369.478V369.478Z" fill="#455A64"/>
<path d="M149.683 378.394C149.809 378.498 141.855 389.179 131.908 402.243C121.96 415.308 113.789 425.84 113.663 425.748C113.537 425.657 121.49 414.964 131.438 401.888C141.385 388.812 149.557 378.291 149.683 378.394Z" fill="#455A64"/>
<path d="M145.855 278.759C145.529 279.595 144.977 280.325 144.262 280.868C143.443 281.585 142.484 282.125 141.447 282.454C140.409 282.783 139.314 282.895 138.232 282.78C137.149 282.666 136.102 282.33 135.155 281.791C134.209 281.253 133.384 280.525 132.733 279.653C132.126 278.983 131.728 278.15 131.587 277.258C132.028 277.991 132.51 278.699 133.031 279.378C134.341 280.965 136.221 281.975 138.269 282.189C140.316 282.404 142.365 281.806 143.975 280.524C144.632 279.969 145.259 279.38 145.855 278.759V278.759Z" fill="#455A64"/>
<path d="M107.199 179.387C102.541 174.96 99.7937 168.89 99.5433 162.469C99.2929 156.048 101.559 149.782 105.859 145.006" fill="#263238"/>
<path d="M91.3041 197.402C91.3041 197.402 85.1614 204.347 83.8893 230.901C83.8893 230.901 101.389 234.224 101.71 233.273C102.031 232.322 91.3041 197.402 91.3041 197.402Z" fill="#FF0356"/>
<g opacity="0.3">
<path d="M91.3041 197.402C91.3041 197.402 85.1614 204.347 83.8893 230.901C83.8893 230.901 101.389 234.224 101.71 233.273C102.031 232.322 91.3041 197.402 91.3041 197.402Z" fill="black"/>
</g>
<path d="M94.1462 274.748H147.883L147.012 266.347C147.012 266.347 140.87 234.419 140.916 233.995L141.878 231.967C143.134 229.333 143.805 226.459 143.847 223.541C143.888 220.623 143.299 217.731 142.119 215.063L168.477 206.066L162.037 184.361C150.095 186.366 132.045 188.624 132.045 188.624L129.364 188.842C129.364 188.842 110.729 189.816 110.328 189.862C102.535 190.813 93.47 191.409 90.158 199.752C88.3817 204.21 90.0663 210.903 92.9658 217.802L99.8419 239.003C102.592 250.658 98.2031 250.097 95.785 261.832C95.3953 263.597 94.1118 273.12 94.1462 274.748Z" fill="#FF0356"/>
<g opacity="0.3">
<path d="M94.1462 274.748H147.883L147.012 266.347C147.012 266.347 140.87 234.419 140.916 233.995L141.878 231.967C143.134 229.333 143.805 226.459 143.847 223.541C143.888 220.623 143.299 217.731 142.119 215.063L168.477 206.066L162.037 184.361C150.095 186.366 132.045 188.624 132.045 188.624L129.364 188.842C129.364 188.842 110.729 189.816 110.328 189.862C102.535 190.813 93.47 191.409 90.158 199.752C88.3817 204.21 90.0663 210.903 92.9658 217.802L99.8419 239.003C102.592 250.658 98.2031 250.097 95.785 261.832C95.3953 263.597 94.1118 273.12 94.1462 274.748Z" fill="black"/>
</g>
<path d="M168.179 206.422C167.816 206.626 167.432 206.791 167.033 206.914C166.277 207.189 165.165 207.568 163.79 208.06C161.04 208.989 157.212 210.215 152.995 211.567C148.777 212.92 144.972 214.26 142.337 215.361C140.984 215.911 139.918 216.392 139.173 216.713C138.812 216.913 138.427 217.067 138.027 217.171C138.36 216.907 138.722 216.68 139.105 216.495C139.827 216.117 140.87 215.567 142.199 214.971C145.673 213.457 149.227 212.133 152.846 211.006C157.074 209.653 160.868 208.485 163.698 207.659C165.085 207.247 166.22 206.926 166.999 206.708C167.379 206.564 167.776 206.468 168.179 206.422V206.422Z" fill="#263238"/>
<path d="M165.062 194.858C165.062 195.019 149.167 195.156 129.535 195.156C109.904 195.156 94.0085 195.019 94.0085 194.858C94.0085 194.698 109.892 194.56 129.535 194.56C149.178 194.56 165.062 194.698 165.062 194.858Z" fill="#FAFAFA"/>
<path d="M166.678 205.413C166.678 205.574 148.995 205.711 127.186 205.711C105.377 205.711 87.7057 205.574 87.7057 205.413C87.7057 205.253 105.377 205.115 127.186 205.115C148.995 205.115 166.678 205.253 166.678 205.413Z" fill="#FAFAFA"/>
<path d="M92.1863 217.424C91.112 217.715 89.9949 217.816 88.8858 217.721C87.7804 217.815 86.6672 217.715 85.5967 217.424C86.6672 217.132 87.7804 217.032 88.8858 217.126C89.9949 217.031 91.112 217.132 92.1863 217.424V217.424Z" fill="#FAFAFA"/>
<path d="M143.758 217.79C143.758 217.951 132.194 218.088 117.938 218.088C103.681 218.088 92.1177 217.951 92.1177 217.79C92.1177 217.63 103.67 217.492 117.938 217.492C132.206 217.492 143.758 217.618 143.758 217.79Z" fill="#FAFAFA"/>
<path d="M142.612 230.156C142.612 230.328 132.229 230.454 119.439 230.454C106.649 230.454 96.255 230.328 96.255 230.156C96.255 229.984 106.627 229.858 119.439 229.858C132.252 229.858 142.612 229.995 142.612 230.156Z" fill="#FAFAFA"/>
<path d="M142.291 241.628C142.291 241.788 132.893 241.926 121.295 241.926C109.698 241.926 100.277 241.788 100.277 241.628C100.277 241.467 109.686 241.33 121.295 241.33C132.905 241.33 142.291 241.456 142.291 241.628Z" fill="#FAFAFA"/>
<path d="M144.136 250.899C144.136 251.071 134.074 251.197 121.662 251.197C109.251 251.197 99.1888 251.071 99.1888 250.899C99.1888 250.727 109.251 250.601 121.662 250.601C134.074 250.601 144.136 250.739 144.136 250.899Z" fill="#FAFAFA"/>
<path d="M147.047 262.726C147.047 262.898 135.587 263.024 121.479 263.024C107.372 263.024 95.9113 262.898 95.9113 262.726C95.9113 262.554 107.372 262.428 121.479 262.428C135.587 262.428 147.047 262.566 147.047 262.726Z" fill="#FAFAFA"/>
<path d="M99.4866 238.006C99.2703 237.683 99.1077 237.327 99.0053 236.952L97.8593 234.018C96.9081 231.543 95.5672 228.127 94.192 224.311C92.8167 220.495 91.6593 217.011 90.9373 214.455C90.582 213.172 90.3069 212.163 90.158 211.407C90.0477 211.034 89.9823 210.649 89.9631 210.261C90.4934 211.592 90.9525 212.95 91.3384 214.329C92.1635 216.85 93.3668 220.311 94.7765 224.116C96.1861 227.921 97.4238 231.359 98.2145 233.88C98.6386 235.141 98.9594 236.172 99.1657 236.883C99.3201 237.242 99.428 237.62 99.4866 238.006V238.006Z" fill="#263238"/>
</svg>
