<svg width="500" height="373" viewBox="0 0 500 373" fill="none" xmlns="http://www.w3.org/2000/svg">
<path d="M500 327.4H0V327.65H500V327.4Z" fill="#EBEBEB"/>
<path d="M85.58 336.92H52.46V337.17H85.58V336.92Z" fill="#EBEBEB"/>
<path d="M225 337.05H171.14V337.3H225V337.05Z" fill="#EBEBEB"/>
<path d="M124.96 342.08H105.77V342.33H124.96V342.08Z" fill="#EBEBEB"/>
<path d="M446 341.96H426.77V342.21H446V341.96Z" fill="#EBEBEB"/>
<path d="M417.86 341.96H387.57V342.21H417.86V341.96Z" fill="#EBEBEB"/>
<path d="M370.89 340.31H328.33V340.56H370.89V340.31Z" fill="#EBEBEB"/>
<path d="M237 282.8H43.9101C42.3974 282.797 40.9476 282.195 39.879 281.124C38.8103 280.054 38.2101 278.603 38.2101 277.09V5.66C38.2233 4.15603 38.8293 2.71798 39.8965 1.65822C40.9638 0.598458 42.4061 0.00257639 43.9101 0H237C238.514 0 239.967 0.601588 241.038 1.67242C242.108 2.74325 242.71 4.19561 242.71 5.71V277.09C242.71 278.604 242.108 280.057 241.038 281.128C239.967 282.198 238.514 282.8 237 282.8V282.8ZM43.9101 0.200001C42.4637 0.20265 41.0775 0.779065 40.0557 1.80273C39.034 2.82639 38.4601 4.21365 38.4601 5.66V277.09C38.4601 278.536 39.034 279.924 40.0557 280.947C41.0775 281.971 42.4637 282.547 43.9101 282.55H237C238.447 282.547 239.835 281.971 240.858 280.948C241.881 279.924 242.457 278.537 242.46 277.09V5.66C242.457 4.21273 241.881 2.82549 240.858 1.80212C239.835 0.77874 238.447 0.202644 237 0.200001H43.9101Z" fill="#EBEBEB"/>
<path d="M453.31 282.8H260.21C258.696 282.797 257.246 282.195 256.175 281.125C255.105 280.054 254.503 278.604 254.5 277.09V5.66C254.516 4.15511 255.124 2.71708 256.193 1.65759C257.262 0.598109 258.705 0.00254829 260.21 0H453.31C454.812 0.0052045 456.252 0.602249 457.317 1.66173C458.382 2.72121 458.987 4.15775 459 5.66V277.09C459 278.601 458.401 280.05 457.335 281.121C456.268 282.191 454.821 282.795 453.31 282.8V282.8ZM260.21 0.200001C258.763 0.202644 257.375 0.77874 256.352 1.80212C255.329 2.82549 254.753 4.21273 254.75 5.66V277.09C254.753 278.537 255.329 279.924 256.352 280.948C257.375 281.971 258.763 282.547 260.21 282.55H453.31C454.757 282.547 456.145 281.971 457.168 280.948C458.191 279.924 458.767 278.537 458.77 277.09V5.66C458.767 4.21273 458.191 2.82549 457.168 1.80212C456.145 0.77874 454.757 0.202644 453.31 0.200001H260.21Z" fill="#EBEBEB"/>
<path d="M302.22 327.4H330.54V186.5H302.22V327.4Z" fill="#E6E6E6"/>
<path d="M307.59 327.4H302.21V312.1H313.23L307.59 327.4Z" fill="#F0F0F0"/>
<path d="M408.06 327.4H436.38V186.5H408.06V327.4Z" fill="#E6E6E6"/>
<path d="M302.22 318.01H412.76V186.5H302.22V318.01Z" fill="#F0F0F0"/>
<path d="M306.39 273.31V298.88H355.68V273.31H306.39Z" fill="#E6E6E6"/>
<path d="M359.29 273.31V298.88H408.58V273.31H359.29Z" fill="#E6E6E6"/>
<path d="M379.06 277.59H388.81C390.907 277.591 392.982 277.165 394.907 276.336C396.833 275.507 398.57 274.294 400.01 272.77H367.86C369.301 274.294 371.037 275.507 372.963 276.336C374.889 277.165 376.963 277.591 379.06 277.59V277.59Z" fill="#F0F0F0"/>
<path d="M325.66 277.59H335.41C337.507 277.591 339.581 277.165 341.507 276.336C343.433 275.507 345.17 274.294 346.61 272.77H314.46C315.9 274.294 317.637 275.507 319.563 276.336C321.488 277.165 323.563 277.591 325.66 277.59V277.59Z" fill="#F0F0F0"/>
<path d="M306.38 233.56V259.13H355.67V233.56H306.38Z" fill="#E6E6E6"/>
<path d="M359.29 233.57V259.14H408.58V233.57H359.29Z" fill="#E6E6E6"/>
<path d="M379.06 237.84H388.81C390.906 237.836 392.98 237.404 394.903 236.572C396.827 235.74 398.561 234.525 400 233H367.86C369.3 234.526 371.036 235.742 372.961 236.574C374.887 237.406 376.962 237.837 379.06 237.84V237.84Z" fill="#F0F0F0"/>
<path d="M325.66 237.84H335.41C337.506 237.841 339.579 237.415 341.505 236.588C343.431 235.761 345.168 234.55 346.61 233.03H314.46C315.902 234.55 317.639 235.761 319.565 236.588C321.49 237.415 323.564 237.841 325.66 237.84V237.84Z" fill="#F0F0F0"/>
<path d="M306.39 193.82V219.39H355.68V193.82H306.39Z" fill="#E6E6E6"/>
<path d="M359.29 193.82V219.39H408.58V193.82H359.29Z" fill="#E6E6E6"/>
<path d="M379.06 198.1H388.81C390.907 198.101 392.982 197.675 394.907 196.846C396.833 196.017 398.57 194.804 400.01 193.28H367.86C369.301 194.804 371.037 196.017 372.963 196.846C374.889 197.675 376.963 198.101 379.06 198.1V198.1Z" fill="#F0F0F0"/>
<path d="M325.66 198.1H335.41C337.507 198.101 339.581 197.675 341.507 196.846C343.433 196.017 345.17 194.804 346.61 193.28H314.46C315.9 194.804 317.637 196.017 319.563 196.846C321.488 197.675 323.563 198.101 325.66 198.1V198.1Z" fill="#F0F0F0"/>
<path d="M407.38 327.4H412.76V312.1H401.74L407.38 327.4Z" fill="#F0F0F0"/>
<path d="M412.04 89.77L416.37 101.61H412.04L385.47 89.77H412.04Z" fill="#F5F5F5"/>
<path d="M416.37 89.77V101.61L389.81 89.77H416.37Z" fill="#E6E6E6"/>
<path d="M307.87 89.77L312.2 101.61H307.87L281.31 89.77H307.87Z" fill="#F5F5F5"/>
<path d="M312.2 89.77V101.61L285.64 89.77H312.2Z" fill="#E6E6E6"/>
<path d="M435.87 81.31H406.98V90.32H435.87V81.31Z" fill="#E6E6E6"/>
<path d="M263.35 90.33L406.98 90.33V81.32L263.35 81.32V90.33Z" fill="#F5F5F5"/>
<path d="M377.81 50C377.81 50 378.1 81.32 388.91 81.32C399.72 81.32 400 50 400 50H377.81Z" fill="#F0F0F0"/>
<path d="M310.78 71.1C310.78 71.1 311.54 81.31 340.62 81.31C369.7 81.31 370.46 71.1 370.46 71.1H310.78Z" fill="#F0F0F0"/>
<path d="M224.36 327.4H226.29L231.82 300.15L232.82 295.37L238.82 265.67H262L274.53 327.4H276.47L263.7 264.54C263.658 264.325 263.542 264.131 263.372 263.992C263.202 263.853 262.989 263.778 262.77 263.78H238.05C237.832 263.779 237.62 263.854 237.452 263.993C237.284 264.132 237.17 264.325 237.13 264.54L231.83 290.62L230.83 295.39L224.36 327.4Z" fill="#F0F0F0"/>
<path d="M187.23 327.4H189.16L201.7 265.67H224.82L230.82 295.39L231.82 300.15L237.36 327.4H239.29L232.79 295.4L231.79 290.65L226.49 264.57C226.438 264.36 226.32 264.172 226.152 264.035C225.984 263.898 225.776 263.819 225.56 263.81H200.93C200.711 263.808 200.498 263.883 200.328 264.022C200.158 264.161 200.042 264.355 200 264.57L187.23 327.4Z" fill="#F0F0F0"/>
<path d="M265.46 256.58H198.19C196.647 256.583 195.169 257.197 194.078 258.288C192.987 259.378 192.373 260.857 192.37 262.4V262.6C192.37 263.165 192.595 263.707 192.994 264.106C193.393 264.506 193.935 264.73 194.5 264.73H269.15C269.715 264.73 270.257 264.506 270.656 264.106C271.056 263.707 271.28 263.165 271.28 262.6V262.4C271.277 260.857 270.663 259.378 269.573 258.288C268.482 257.197 267.003 256.583 265.46 256.58Z" fill="#F0F0F0"/>
<path d="M156.85 327.4H158.78L164.31 300.15L165.31 295.37L171.31 265.67H194.43L207 327.4H208.94L196.17 264.54C196.128 264.325 196.012 264.131 195.842 263.992C195.672 263.853 195.459 263.778 195.24 263.78H170.54C170.322 263.779 170.11 263.854 169.942 263.993C169.774 264.132 169.66 264.325 169.62 264.54L164.32 290.62L163.32 295.39L156.85 327.4Z" fill="#F0F0F0"/>
<path d="M119.72 327.4H121.66L134.19 265.67H157.32L163.32 295.39L164.32 300.15L169.86 327.4H171.79L165.29 295.4L164.29 290.65L159 264.54C158.948 264.33 158.83 264.142 158.662 264.005C158.494 263.868 158.287 263.789 158.07 263.78H133.42C133.201 263.778 132.988 263.853 132.818 263.992C132.648 264.131 132.532 264.325 132.49 264.54L119.72 327.4Z" fill="#F0F0F0"/>
<path d="M198 256.58H130.68C129.137 256.583 127.658 257.197 126.568 258.288C125.477 259.378 124.863 260.857 124.86 262.4V262.6C124.86 263.165 125.084 263.707 125.484 264.106C125.883 264.506 126.425 264.73 126.99 264.73H201.65C201.929 264.73 202.206 264.675 202.464 264.568C202.721 264.46 202.956 264.303 203.153 264.105C203.35 263.908 203.506 263.673 203.611 263.414C203.717 263.156 203.771 262.879 203.77 262.6V262.4C203.767 260.866 203.16 259.395 202.08 258.305C201 257.216 199.534 256.596 198 256.58V256.58Z" fill="#F0F0F0"/>
<path d="M84.33 177.6H180.98L180.98 22.77H84.33L84.33 177.6Z" fill="#E6E6E6"/>
<path d="M78.02 177.6H178.03L178.03 22.77H78.02L78.02 177.6Z" fill="#F0F0F0"/>
<path d="M84.33 189.33H180.98V177.59H84.33V189.33Z" fill="#E6E6E6"/>
<path d="M67.5 189.33H167.51V177.59H67.5V189.33Z" fill="#F0F0F0"/>
<path d="M169.18 168.76V31.61L86.8502 31.61L86.8502 168.76H169.18Z" fill="#FAFAFA"/>
<path d="M169.89 168.75L140.93 31.61H116.43L145.39 168.75H169.89Z" fill="white"/>
<path d="M163.22 152.37C163.387 152.37 163.547 152.304 163.665 152.186C163.783 152.067 163.85 151.907 163.85 151.74V37.36C163.85 37.193 163.783 37.0327 163.665 36.9146C163.547 36.7964 163.387 36.73 163.22 36.73C163.053 36.73 162.893 36.7964 162.774 36.9146C162.656 37.0327 162.59 37.193 162.59 37.36V151.74C162.59 151.907 162.656 152.067 162.774 152.186C162.893 152.304 163.053 152.37 163.22 152.37V152.37Z" fill="#F0F0F0"/>
<path d="M140.13 168.75L111.17 31.61H101.62L130.57 168.75H140.13Z" fill="white"/>
<path d="M87.98 168.76L87.98 31.61H86.86L86.86 168.76H87.98Z" fill="#E6E6E6"/>
<path opacity="0.6" d="M75.92 38.4H172.57L173.39 35.04H76.74L75.92 38.4Z" fill="#F0F0F0"/>
<path opacity="0.6" d="M75.92 46.21H172.57L173.39 42.86H76.74L75.92 46.21Z" fill="#F0F0F0"/>
<path opacity="0.6" d="M75.92 54.03H172.57L173.39 50.67H76.74L75.92 54.03Z" fill="#F0F0F0"/>
<path opacity="0.6" d="M75.92 61.84H172.57L173.39 58.49H76.74L75.92 61.84Z" fill="#F0F0F0"/>
<path opacity="0.6" d="M75.92 69.66H172.57L173.39 66.31H76.74L75.92 69.66Z" fill="#F0F0F0"/>
<path opacity="0.6" d="M75.92 77.48H172.57L173.39 74.12H76.74L75.92 77.48Z" fill="#F0F0F0"/>
<path d="M250 372.56C357.082 372.56 443.89 367.492 443.89 361.24C443.89 354.988 357.082 349.92 250 349.92C142.917 349.92 56.11 354.988 56.11 361.24C56.11 367.492 142.917 372.56 250 372.56Z" fill="#F5F5F5"/>
<path d="M243.12 207.73H182.03C181.168 207.73 180.47 208.428 180.47 209.29V234.77C180.47 235.632 181.168 236.33 182.03 236.33H243.12C243.982 236.33 244.68 235.632 244.68 234.77V209.29C244.68 208.428 243.982 207.73 243.12 207.73Z" fill="#DA517E"/>
<path opacity="0.6" d="M243.12 207.73H182.03C181.168 207.73 180.47 208.428 180.47 209.29V234.77C180.47 235.632 181.168 236.33 182.03 236.33H243.12C243.982 236.33 244.68 235.632 244.68 234.77V209.29C244.68 208.428 243.982 207.73 243.12 207.73Z" fill="white"/>
<path opacity="0.1" d="M243.11 207.73H182C181.586 207.73 181.189 207.894 180.897 208.187C180.604 208.479 180.44 208.876 180.44 209.29V217.46L212.24 223.72C212.435 223.76 212.635 223.76 212.83 223.72L244.64 217.46V209.29C244.64 208.881 244.48 208.489 244.194 208.197C243.908 207.906 243.518 207.738 243.11 207.73V207.73Z" fill="black"/>
<path d="M244.45 197.27H225.79V194.14C225.788 192.847 225.273 191.607 224.358 190.692C223.443 189.778 222.204 189.263 220.91 189.26H204.24C202.947 189.263 201.707 189.778 200.792 190.692C199.878 191.607 199.363 192.847 199.36 194.14V197.27H180.71C180.302 197.27 179.91 197.432 179.621 197.721C179.332 198.01 179.17 198.402 179.17 198.81V214.22C179.172 214.576 179.296 214.92 179.522 215.195C179.748 215.47 180.062 215.659 180.41 215.73L212.28 222C212.476 222.03 212.675 222.03 212.87 222L244.74 215.73C245.09 215.659 245.405 215.471 245.632 215.196C245.859 214.921 245.986 214.577 245.99 214.22V198.81C245.99 198.402 245.828 198.01 245.539 197.721C245.25 197.432 244.859 197.27 244.45 197.27V197.27ZM203.07 194.14C203.073 193.83 203.197 193.532 203.415 193.312C203.634 193.092 203.93 192.965 204.24 192.96H220.91C221.221 192.965 221.517 193.092 221.735 193.312C221.954 193.532 222.078 193.83 222.08 194.14V197.27H203.08L203.07 194.14Z" fill="#DA517E"/>
<path opacity="0.6" d="M244.45 197.27H225.79V194.14C225.788 192.847 225.273 191.607 224.358 190.692C223.443 189.778 222.204 189.263 220.91 189.26H204.24C202.947 189.263 201.707 189.778 200.792 190.692C199.878 191.607 199.363 192.847 199.36 194.14V197.27H180.71C180.302 197.27 179.91 197.432 179.621 197.721C179.332 198.01 179.17 198.402 179.17 198.81V214.22C179.172 214.576 179.296 214.92 179.522 215.195C179.748 215.47 180.062 215.659 180.41 215.73L212.28 222C212.476 222.03 212.675 222.03 212.87 222L244.74 215.73C245.09 215.659 245.405 215.471 245.632 215.196C245.859 214.921 245.986 214.577 245.99 214.22V198.81C245.99 198.402 245.828 198.01 245.539 197.721C245.25 197.432 244.859 197.27 244.45 197.27V197.27ZM203.07 194.14C203.073 193.83 203.197 193.532 203.415 193.312C203.634 193.092 203.93 192.965 204.24 192.96H220.91C221.221 192.965 221.517 193.092 221.735 193.312C221.954 193.532 222.078 193.83 222.08 194.14V197.27H203.08L203.07 194.14Z" fill="white"/>
<path d="M215.87 217.79H209.29C208.473 217.79 207.81 218.453 207.81 219.27V223.43C207.81 224.247 208.473 224.91 209.29 224.91H215.87C216.687 224.91 217.35 224.247 217.35 223.43V219.27C217.35 218.453 216.687 217.79 215.87 217.79Z" fill="#DA517E"/>
<path opacity="0.3" d="M215.87 217.79H209.29C208.473 217.79 207.81 218.453 207.81 219.27V223.43C207.81 224.247 208.473 224.91 209.29 224.91H215.87C216.687 224.91 217.35 224.247 217.35 223.43V219.27C217.35 218.453 216.687 217.79 215.87 217.79Z" fill="white"/>
<path d="M243.12 23.77H182.03C181.168 23.77 180.47 24.4685 180.47 25.33V50.81C180.47 51.6716 181.168 52.37 182.03 52.37H243.12C243.982 52.37 244.68 51.6716 244.68 50.81V25.33C244.68 24.4685 243.982 23.77 243.12 23.77Z" fill="#DA517E"/>
<path opacity="0.6" d="M243.12 23.77H182.03C181.168 23.77 180.47 24.4685 180.47 25.33V50.81C180.47 51.6716 181.168 52.37 182.03 52.37H243.12C243.982 52.37 244.68 51.6716 244.68 50.81V25.33C244.68 24.4685 243.982 23.77 243.12 23.77Z" fill="white"/>
<path opacity="0.1" d="M243.11 23.77H182C181.586 23.77 181.189 23.9344 180.897 24.2269C180.604 24.5195 180.44 24.9163 180.44 25.33V33.5L212.24 39.76C212.435 39.7999 212.635 39.7999 212.83 39.76L244.64 33.5V25.33C244.64 24.9214 244.48 24.5291 244.194 24.2374C243.908 23.9457 243.518 23.7779 243.11 23.77V23.77Z" fill="black"/>
<path d="M244.45 13.31H225.79V10.18C225.788 8.88654 225.273 7.64683 224.358 6.73223C223.443 5.81762 222.204 5.30263 220.91 5.29999H204.24C202.947 5.30263 201.707 5.81762 200.792 6.73223C199.878 7.64683 199.363 8.88654 199.36 10.18V13.31H180.71C180.302 13.31 179.91 13.4722 179.621 13.761C179.332 14.0498 179.17 14.4416 179.17 14.85V30.26C179.17 30.6163 179.294 30.9615 179.52 31.2368C179.746 31.5122 180.061 31.7006 180.41 31.77L212.28 38C212.475 38.0399 212.676 38.0399 212.87 38L244.74 31.73C245.086 31.6644 245.399 31.4831 245.628 31.2159C245.857 30.9488 245.988 30.6116 246 30.26V14.85C246 14.6469 245.96 14.4458 245.882 14.2583C245.804 14.0708 245.69 13.9006 245.546 13.7575C245.402 13.6144 245.231 13.5011 245.043 13.4243C244.855 13.3475 244.653 13.3087 244.45 13.31V13.31ZM203.07 10.18C203.07 9.86876 203.193 9.57012 203.412 9.34912C203.631 9.12811 203.929 9.00263 204.24 8.99999H220.91C221.22 9.0026 221.516 9.12671 221.735 9.34556C221.953 9.56442 222.078 9.86049 222.08 10.17V13.3H203.08L203.07 10.18Z" fill="#DA517E"/>
<path opacity="0.6" d="M244.45 13.31H225.79V10.18C225.788 8.88654 225.273 7.64683 224.358 6.73223C223.443 5.81762 222.204 5.30263 220.91 5.29999H204.24C202.947 5.30263 201.707 5.81762 200.792 6.73223C199.878 7.64683 199.363 8.88654 199.36 10.18V13.31H180.71C180.302 13.31 179.91 13.4722 179.621 13.761C179.332 14.0498 179.17 14.4416 179.17 14.85V30.26C179.17 30.6163 179.294 30.9615 179.52 31.2368C179.746 31.5122 180.061 31.7006 180.41 31.77L212.28 38C212.475 38.0399 212.676 38.0399 212.87 38L244.74 31.73C245.086 31.6644 245.399 31.4831 245.628 31.2159C245.857 30.9488 245.988 30.6116 246 30.26V14.85C246 14.6469 245.96 14.4458 245.882 14.2583C245.804 14.0708 245.69 13.9006 245.546 13.7575C245.402 13.6144 245.231 13.5011 245.043 13.4243C244.855 13.3475 244.653 13.3087 244.45 13.31V13.31ZM203.07 10.18C203.07 9.86876 203.193 9.57012 203.412 9.34912C203.631 9.12811 203.929 9.00263 204.24 8.99999H220.91C221.22 9.0026 221.516 9.12671 221.735 9.34556C221.953 9.56442 222.078 9.86049 222.08 10.17V13.3H203.08L203.07 10.18Z" fill="white"/>
<path d="M215.87 33.84H209.29C208.473 33.84 207.81 34.5026 207.81 35.32V39.48C207.81 40.2974 208.473 40.96 209.29 40.96H215.87C216.687 40.96 217.35 40.2974 217.35 39.48V35.32C217.35 34.5026 216.687 33.84 215.87 33.84Z" fill="#DA517E"/>
<path opacity="0.3" d="M215.87 33.84H209.29C208.473 33.84 207.81 34.5026 207.81 35.32V39.48C207.81 40.2974 208.473 40.96 209.29 40.96H215.87C216.687 40.96 217.35 40.2974 217.35 39.48V35.32C217.35 34.5026 216.687 33.84 215.87 33.84Z" fill="white"/>
<path d="M147.96 207.73H86.8701C86.0085 207.73 85.3101 208.428 85.3101 209.29V234.77C85.3101 235.632 86.0085 236.33 86.8701 236.33H147.96C148.822 236.33 149.52 235.632 149.52 234.77V209.29C149.52 208.428 148.822 207.73 147.96 207.73Z" fill="#DA517E"/>
<path opacity="0.6" d="M147.96 207.73H86.8701C86.0085 207.73 85.3101 208.428 85.3101 209.29V234.77C85.3101 235.632 86.0085 236.33 86.8701 236.33H147.96C148.822 236.33 149.52 235.632 149.52 234.77V209.29C149.52 208.428 148.822 207.73 147.96 207.73Z" fill="white"/>
<path opacity="0.1" d="M148 207.73H86.8701C86.4563 207.73 86.0595 207.894 85.767 208.187C85.4744 208.479 85.3101 208.876 85.3101 209.29V217.46L117.11 223.72C117.308 223.76 117.512 223.76 117.71 223.72L149.52 217.46V209.29C149.52 208.883 149.361 208.492 149.077 208.201C148.793 207.909 148.407 207.74 148 207.73Z" fill="black"/>
<path d="M149.28 197.27H130.62V194.14C130.617 192.847 130.102 191.607 129.188 190.692C128.273 189.778 127.033 189.263 125.74 189.26H109.08C107.787 189.263 106.547 189.778 105.632 190.692C104.718 191.607 104.203 192.847 104.2 194.14V197.27H85.54C85.1316 197.27 84.7399 197.432 84.4511 197.721C84.1623 198.01 84 198.402 84 198.81V214.22C84.002 214.576 84.1263 214.92 84.3521 215.195C84.5779 215.47 84.8914 215.659 85.24 215.73L117.11 222C117.309 222.03 117.511 222.03 117.71 222L149.58 215.73C149.929 215.659 150.242 215.47 150.468 215.195C150.694 214.92 150.818 214.576 150.82 214.22V198.81C150.82 198.402 150.658 198.01 150.369 197.721C150.08 197.432 149.688 197.27 149.28 197.27V197.27ZM107.9 194.14C107.905 193.829 108.031 193.532 108.251 193.311C108.471 193.091 108.769 192.965 109.08 192.96H125.74C126.051 192.965 126.349 193.091 126.569 193.311C126.789 193.532 126.915 193.829 126.92 194.14V197.27H107.92L107.9 194.14Z" fill="#DA517E"/>
<path opacity="0.6" d="M149.28 197.27H130.62V194.14C130.617 192.847 130.102 191.607 129.188 190.692C128.273 189.778 127.033 189.263 125.74 189.26H109.08C107.787 189.263 106.547 189.778 105.632 190.692C104.718 191.607 104.203 192.847 104.2 194.14V197.27H85.54C85.1316 197.27 84.7399 197.432 84.4511 197.721C84.1623 198.01 84 198.402 84 198.81V214.22C84.002 214.576 84.1263 214.92 84.3521 215.195C84.5779 215.47 84.8914 215.659 85.24 215.73L117.11 222C117.309 222.03 117.511 222.03 117.71 222L149.58 215.73C149.929 215.659 150.242 215.47 150.468 215.195C150.694 214.92 150.818 214.576 150.82 214.22V198.81C150.82 198.402 150.658 198.01 150.369 197.721C150.08 197.432 149.688 197.27 149.28 197.27V197.27ZM107.9 194.14C107.905 193.829 108.031 193.532 108.251 193.311C108.471 193.091 108.769 192.965 109.08 192.96H125.74C126.051 192.965 126.349 193.091 126.569 193.311C126.789 193.532 126.915 193.829 126.92 194.14V197.27H107.92L107.9 194.14Z" fill="white"/>
<path d="M120.7 217.79H114.12C113.303 217.79 112.64 218.453 112.64 219.27V223.43C112.64 224.247 113.303 224.91 114.12 224.91H120.7C121.517 224.91 122.18 224.247 122.18 223.43V219.27C122.18 218.453 121.517 217.79 120.7 217.79Z" fill="#DA517E"/>
<path opacity="0.3" d="M120.7 217.79H114.12C113.303 217.79 112.64 218.453 112.64 219.27V223.43C112.64 224.247 113.303 224.91 114.12 224.91H120.7C121.517 224.91 122.18 224.247 122.18 223.43V219.27C122.18 218.453 121.517 217.79 120.7 217.79Z" fill="white"/>
<path d="M147.96 23.77H86.8701C86.0085 23.77 85.3101 24.4685 85.3101 25.33V50.81C85.3101 51.6716 86.0085 52.37 86.8701 52.37H147.96C148.822 52.37 149.52 51.6716 149.52 50.81V25.33C149.52 24.4685 148.822 23.77 147.96 23.77Z" fill="#DA517E"/>
<path opacity="0.6" d="M147.96 23.77H86.8701C86.0085 23.77 85.3101 24.4685 85.3101 25.33V50.81C85.3101 51.6716 86.0085 52.37 86.8701 52.37H147.96C148.822 52.37 149.52 51.6716 149.52 50.81V25.33C149.52 24.4685 148.822 23.77 147.96 23.77Z" fill="white"/>
<path opacity="0.1" d="M148 23.77H86.8701C86.4563 23.77 86.0595 23.9344 85.767 24.2269C85.4744 24.5195 85.3101 24.9163 85.3101 25.33V33.5L117.11 39.76C117.308 39.8002 117.512 39.8002 117.71 39.76L149.52 33.5V25.33C149.52 24.9231 149.361 24.5323 149.077 24.2408C148.793 23.9494 148.407 23.7805 148 23.77V23.77Z" fill="black"/>
<path d="M149.28 13.3099H130.62V10.1799C130.617 8.88648 130.102 7.64677 129.188 6.73217C128.273 5.81756 127.033 5.30257 125.74 5.29993H109.08C107.787 5.30257 106.547 5.81756 105.632 6.73217C104.718 7.64677 104.203 8.88648 104.2 10.1799V13.3099H85.54C85.1316 13.3099 84.7399 13.4722 84.4511 13.761C84.1623 14.0498 84 14.4415 84 14.8499V30.2599C84.0001 30.6162 84.1238 30.9614 84.3499 31.2368C84.576 31.5121 84.8905 31.7005 85.24 31.7699L117.11 37.9999C117.308 38.0401 117.512 38.0401 117.71 37.9999L149.58 31.7299C149.929 31.6605 150.244 31.4721 150.47 31.1968C150.696 30.9214 150.82 30.5762 150.82 30.2199V14.8499C150.82 14.4415 150.658 14.0498 150.369 13.761C150.08 13.4722 149.688 13.3099 149.28 13.3099V13.3099ZM107.9 10.1799C107.903 9.86778 108.028 9.56916 108.249 9.34843C108.469 9.1277 108.768 9.00254 109.08 8.99993H125.74C126.05 9.00249 126.348 9.12628 126.568 9.34486C126.788 9.56344 126.915 9.85952 126.92 10.1699V13.2999H107.92L107.9 10.1799Z" fill="#DA517E"/>
<path opacity="0.6" d="M149.28 13.3099H130.62V10.1799C130.617 8.88648 130.102 7.64677 129.188 6.73217C128.273 5.81756 127.033 5.30257 125.74 5.29993H109.08C107.787 5.30257 106.547 5.81756 105.632 6.73217C104.718 7.64677 104.203 8.88648 104.2 10.1799V13.3099H85.54C85.1316 13.3099 84.7399 13.4722 84.4511 13.761C84.1623 14.0498 84 14.4415 84 14.8499V30.2599C84.0001 30.6162 84.1238 30.9614 84.3499 31.2368C84.576 31.5121 84.8905 31.7005 85.24 31.7699L117.11 37.9999C117.308 38.0401 117.512 38.0401 117.71 37.9999L149.58 31.7299C149.929 31.6605 150.244 31.4721 150.47 31.1968C150.696 30.9214 150.82 30.5762 150.82 30.2199V14.8499C150.82 14.4415 150.658 14.0498 150.369 13.761C150.08 13.4722 149.688 13.3099 149.28 13.3099V13.3099ZM107.9 10.1799C107.903 9.86778 108.028 9.56916 108.249 9.34843C108.469 9.1277 108.768 9.00254 109.08 8.99993H125.74C126.05 9.00249 126.348 9.12628 126.568 9.34486C126.788 9.56344 126.915 9.85952 126.92 10.1699V13.2999H107.92L107.9 10.1799Z" fill="white"/>
<path d="M120.7 33.84H114.12C113.303 33.84 112.64 34.5026 112.64 35.32V39.48C112.64 40.2974 113.303 40.96 114.12 40.96H120.7C121.517 40.96 122.18 40.2974 122.18 39.48V35.32C122.18 34.5026 121.517 33.84 120.7 33.84Z" fill="#DA517E"/>
<path opacity="0.3" d="M120.7 33.84H114.12C113.303 33.84 112.64 34.5026 112.64 35.32V39.48C112.64 40.2974 113.303 40.96 114.12 40.96H120.7C121.517 40.96 122.18 40.2974 122.18 39.48V35.32C122.18 34.5026 121.517 33.84 120.7 33.84Z" fill="white"/>
<path d="M140 144.35H86.87C86.4537 144.35 86.0543 144.185 85.7599 143.89C85.4655 143.596 85.3 143.196 85.3 142.78V117.31C85.3016 117.1 85.3458 116.892 85.43 116.7C85.4707 116.61 85.5175 116.523 85.57 116.44C85.6257 116.354 85.693 116.277 85.77 116.21C86.0613 115.917 86.4569 115.752 86.87 115.75H137.16C136.742 119.24 136.605 122.758 136.75 126.27C136.75 126.84 136.75 127.41 136.84 127.97C136.91 129.02 136.99 130.08 137.11 131.13C137.625 135.623 138.593 140.052 140 144.35V144.35Z" fill="#DA517E"/>
<path opacity="0.6" d="M140 144.35H86.87C86.4537 144.35 86.0543 144.185 85.7599 143.89C85.4655 143.596 85.3 143.196 85.3 142.78V117.31C85.3016 117.1 85.3458 116.892 85.43 116.7C85.4707 116.61 85.5175 116.523 85.57 116.44C85.6257 116.354 85.693 116.277 85.77 116.21C86.0613 115.917 86.4569 115.752 86.87 115.75H137.16C136.742 119.24 136.605 122.758 136.75 126.27C136.75 126.84 136.75 127.41 136.84 127.97C136.91 129.02 136.99 130.08 137.11 131.13C137.625 135.623 138.593 140.052 140 144.35V144.35Z" fill="white"/>
<path opacity="0.1" d="M137.16 115.75C136.742 119.24 136.605 122.758 136.75 126.27C136.75 126.84 136.75 127.41 136.84 127.97L122.18 130.85L117.7 131.73C117.507 131.78 117.304 131.78 117.11 131.73L112.64 130.86L85.3101 125.48V117.3C85.3132 117.094 85.3539 116.891 85.4301 116.7C85.4707 116.61 85.5175 116.523 85.5701 116.44C85.6257 116.354 85.693 116.277 85.7701 116.21C86.0614 115.917 86.457 115.752 86.8701 115.75H137.16Z" fill="black"/>
<path d="M139.25 105.29H130.63V102.16C130.625 100.866 130.108 99.6259 129.191 98.7116C128.275 97.7973 127.034 97.2826 125.74 97.28H109.08C107.786 97.28 106.544 97.7941 105.629 98.7093C104.714 99.6245 104.2 100.866 104.2 102.16V105.29H85.54C85.3378 105.29 85.1375 105.33 84.9507 105.407C84.7638 105.485 84.5941 105.598 84.4511 105.741C84.3081 105.884 84.1946 106.054 84.1172 106.241C84.0398 106.427 84 106.628 84 106.83V122.23C84.0002 122.589 84.1249 122.937 84.3528 123.214C84.5808 123.491 84.8979 123.681 85.25 123.75H85.31L112.64 129.14L117.11 130.01C117.305 130.05 117.505 130.05 117.7 130.01L122.18 129.13L136.75 126.26C136.605 122.748 136.742 119.23 137.16 115.74C137.575 112.206 138.274 108.712 139.25 105.29V105.29ZM107.9 102.16C107.905 101.85 108.032 101.553 108.252 101.335C108.472 101.116 108.77 100.993 109.08 100.99H125.74C126.049 100.993 126.346 101.117 126.564 101.336C126.783 101.554 126.907 101.85 126.91 102.16V105.29H107.91L107.9 102.16Z" fill="#DA517E"/>
<path opacity="0.6" d="M139.25 105.29H130.63V102.16C130.625 100.866 130.108 99.6259 129.191 98.7116C128.275 97.7973 127.034 97.2826 125.74 97.28H109.08C107.786 97.28 106.544 97.7941 105.629 98.7093C104.714 99.6245 104.2 100.866 104.2 102.16V105.29H85.54C85.3378 105.29 85.1375 105.33 84.9507 105.407C84.7638 105.485 84.5941 105.598 84.4511 105.741C84.3081 105.884 84.1946 106.054 84.1172 106.241C84.0398 106.427 84 106.628 84 106.83V122.23C84.0002 122.589 84.1249 122.937 84.3528 123.214C84.5808 123.491 84.8979 123.681 85.25 123.75H85.31L112.64 129.14L117.11 130.01C117.305 130.05 117.505 130.05 117.7 130.01L122.18 129.13L136.75 126.26C136.605 122.748 136.742 119.23 137.16 115.74C137.575 112.206 138.274 108.712 139.25 105.29V105.29ZM107.9 102.16C107.905 101.85 108.032 101.553 108.252 101.335C108.472 101.116 108.77 100.993 109.08 100.99H125.74C126.049 100.993 126.346 101.117 126.564 101.336C126.783 101.554 126.907 101.85 126.91 102.16V105.29H107.91L107.9 102.16Z" fill="white"/>
<path d="M120.7 125.81H114.12C113.303 125.81 112.64 126.473 112.64 127.29V131.45C112.64 132.267 113.303 132.93 114.12 132.93H120.7C121.517 132.93 122.18 132.267 122.18 131.45V127.29C122.18 126.473 121.517 125.81 120.7 125.81Z" fill="#DA517E"/>
<path opacity="0.3" d="M120.7 125.81H114.12C113.303 125.81 112.64 126.473 112.64 127.29V131.45C112.64 132.267 113.303 132.93 114.12 132.93H120.7C121.517 132.93 122.18 132.267 122.18 131.45V127.29C122.18 126.473 121.517 125.81 120.7 125.81Z" fill="white"/>
<path d="M277.19 236.32H338.28C339.142 236.32 339.84 235.622 339.84 234.76V209.28C339.84 208.418 339.142 207.72 338.28 207.72H277.19C276.329 207.72 275.63 208.418 275.63 209.28V234.76C275.63 235.622 276.329 236.32 277.19 236.32Z" fill="#DA517E"/>
<path opacity="0.6" d="M277.19 236.32H338.28C339.142 236.32 339.84 235.622 339.84 234.76V209.28C339.84 208.418 339.142 207.72 338.28 207.72H277.19C276.329 207.72 275.63 208.418 275.63 209.28V234.76C275.63 235.622 276.329 236.32 277.19 236.32Z" fill="white"/>
<path opacity="0.1" d="M277.2 207.73H338.28C338.694 207.73 339.091 207.894 339.383 208.187C339.676 208.479 339.84 208.876 339.84 209.29V217.46L308 223.72C307.805 223.76 307.605 223.76 307.41 223.72L275.6 217.46V209.29C275.6 209.082 275.642 208.876 275.723 208.684C275.803 208.492 275.922 208.318 276.071 208.173C276.22 208.027 276.397 207.913 276.591 207.837C276.785 207.761 276.992 207.725 277.2 207.73V207.73Z" fill="black"/>
<path d="M275.87 197.27H294.53V194.14C294.533 192.847 295.048 191.607 295.962 190.692C296.877 189.778 298.117 189.263 299.41 189.26H316.08C317.373 189.263 318.613 189.778 319.528 190.692C320.442 191.607 320.957 192.847 320.96 194.14V197.27H339.61C339.812 197.27 340.013 197.31 340.199 197.387C340.386 197.465 340.556 197.578 340.699 197.721C340.842 197.864 340.955 198.034 341.033 198.221C341.11 198.408 341.15 198.608 341.15 198.81V214.22C341.148 214.576 341.024 214.92 340.798 215.195C340.572 215.47 340.259 215.659 339.91 215.73L308 222C307.801 222.03 307.599 222.03 307.4 222L275.53 215.73C275.181 215.659 274.868 215.47 274.642 215.195C274.416 214.92 274.292 214.576 274.29 214.22V198.81C274.29 198.604 274.331 198.401 274.411 198.211C274.491 198.022 274.608 197.85 274.755 197.707C274.902 197.563 275.077 197.451 275.268 197.376C275.46 197.301 275.664 197.265 275.87 197.27V197.27ZM317.25 194.14C317.247 193.83 317.124 193.532 316.905 193.312C316.687 193.092 316.39 192.965 316.08 192.96H299.41C299.099 192.965 298.802 193.091 298.581 193.311C298.361 193.532 298.235 193.829 298.23 194.14V197.27H317.23L317.25 194.14Z" fill="#DA517E"/>
<path opacity="0.6" d="M275.87 197.27H294.53V194.14C294.533 192.847 295.048 191.607 295.962 190.692C296.877 189.778 298.117 189.263 299.41 189.26H316.08C317.373 189.263 318.613 189.778 319.528 190.692C320.442 191.607 320.957 192.847 320.96 194.14V197.27H339.61C339.812 197.27 340.013 197.31 340.199 197.387C340.386 197.465 340.556 197.578 340.699 197.721C340.842 197.864 340.955 198.034 341.033 198.221C341.11 198.408 341.15 198.608 341.15 198.81V214.22C341.148 214.576 341.024 214.92 340.798 215.195C340.572 215.47 340.259 215.659 339.91 215.73L308 222C307.801 222.03 307.599 222.03 307.4 222L275.53 215.73C275.181 215.659 274.868 215.47 274.642 215.195C274.416 214.92 274.292 214.576 274.29 214.22V198.81C274.29 198.604 274.331 198.401 274.411 198.211C274.491 198.022 274.608 197.85 274.755 197.707C274.902 197.563 275.077 197.451 275.268 197.376C275.46 197.301 275.664 197.265 275.87 197.27V197.27ZM317.25 194.14C317.247 193.83 317.124 193.532 316.905 193.312C316.687 193.092 316.39 192.965 316.08 192.96H299.41C299.099 192.965 298.802 193.091 298.581 193.311C298.361 193.532 298.235 193.829 298.23 194.14V197.27H317.23L317.25 194.14Z" fill="white"/>
<path d="M304.45 224.91H311.03C311.848 224.91 312.51 224.247 312.51 223.43V219.27C312.51 218.453 311.848 217.79 311.03 217.79H304.45C303.633 217.79 302.97 218.453 302.97 219.27V223.43C302.97 224.247 303.633 224.91 304.45 224.91Z" fill="#DA517E"/>
<path opacity="0.3" d="M304.45 224.91H311.03C311.848 224.91 312.51 224.247 312.51 223.43V219.27C312.51 218.453 311.848 217.79 311.03 217.79H304.45C303.633 217.79 302.97 218.453 302.97 219.27V223.43C302.97 224.247 303.633 224.91 304.45 224.91Z" fill="white"/>
<path d="M277.19 52.36L338.28 52.36C339.142 52.36 339.84 51.6616 339.84 50.8V25.32C339.84 24.4585 339.142 23.76 338.28 23.76L277.19 23.76C276.329 23.76 275.63 24.4585 275.63 25.32V50.8C275.63 51.6616 276.329 52.36 277.19 52.36Z" fill="#DA517E"/>
<path opacity="0.6" d="M277.19 52.36L338.28 52.36C339.142 52.36 339.84 51.6616 339.84 50.8V25.32C339.84 24.4585 339.142 23.76 338.28 23.76L277.19 23.76C276.329 23.76 275.63 24.4585 275.63 25.32V50.8C275.63 51.6616 276.329 52.36 277.19 52.36Z" fill="white"/>
<path opacity="0.1" d="M277.2 23.77H338.28C338.694 23.77 339.091 23.9344 339.383 24.2269C339.676 24.5195 339.84 24.9163 339.84 25.33V33.5L308 39.76C307.805 39.7999 307.605 39.7999 307.41 39.76L275.64 33.5V25.33C275.64 24.9163 275.804 24.5195 276.097 24.2269C276.39 23.9344 276.786 23.77 277.2 23.77V23.77Z" fill="black"/>
<path d="M275.87 13.31H294.53V10.18C294.533 8.88651 295.048 7.6468 295.962 6.7322C296.877 5.81759 298.117 5.3026 299.41 5.29996H316.08C316.724 5.29601 317.362 5.41924 317.958 5.66259C318.554 5.90594 319.097 6.26462 319.554 6.71803C320.011 7.17144 320.374 7.71067 320.622 8.30476C320.87 8.89885 320.999 9.5361 321 10.18V13.31H339.65C340.058 13.31 340.45 13.4722 340.739 13.761C341.028 14.0498 341.19 14.4415 341.19 14.85V30.26C341.19 30.6162 341.066 30.9615 340.84 31.2368C340.614 31.5121 340.299 31.7005 339.95 31.77L308 38C307.802 38.0401 307.598 38.0401 307.4 38L275.53 31.73C275.181 31.6606 274.866 31.4721 274.64 31.1968C274.414 30.9215 274.29 30.5762 274.29 30.22V14.85C274.29 14.6443 274.331 14.4407 274.411 14.2512C274.491 14.0617 274.608 13.8902 274.755 13.7466C274.902 13.6031 275.077 13.4905 275.268 13.4155C275.46 13.3405 275.664 13.3046 275.87 13.31ZM317.25 10.18C317.25 9.86873 317.127 9.57009 316.908 9.34909C316.689 9.12808 316.391 9.0026 316.08 8.99996H299.41C299.1 9.00252 298.802 9.12631 298.582 9.34489C298.362 9.56348 298.235 9.85955 298.23 10.17V13.3H317.23L317.25 10.18Z" fill="#DA517E"/>
<path opacity="0.6" d="M275.87 13.31H294.53V10.18C294.533 8.88651 295.048 7.6468 295.962 6.7322C296.877 5.81759 298.117 5.3026 299.41 5.29996H316.08C316.724 5.29601 317.362 5.41924 317.958 5.66259C318.554 5.90594 319.097 6.26462 319.554 6.71803C320.011 7.17144 320.374 7.71067 320.622 8.30476C320.87 8.89885 320.999 9.5361 321 10.18V13.31H339.65C340.058 13.31 340.45 13.4722 340.739 13.761C341.028 14.0498 341.19 14.4415 341.19 14.85V30.26C341.19 30.6162 341.066 30.9615 340.84 31.2368C340.614 31.5121 340.299 31.7005 339.95 31.77L308 38C307.802 38.0401 307.598 38.0401 307.4 38L275.53 31.73C275.181 31.6606 274.866 31.4721 274.64 31.1968C274.414 30.9215 274.29 30.5762 274.29 30.22V14.85C274.29 14.6443 274.331 14.4407 274.411 14.2512C274.491 14.0617 274.608 13.8902 274.755 13.7466C274.902 13.6031 275.077 13.4905 275.268 13.4155C275.46 13.3405 275.664 13.3046 275.87 13.31ZM317.25 10.18C317.25 9.86873 317.127 9.57009 316.908 9.34909C316.689 9.12808 316.391 9.0026 316.08 8.99996H299.41C299.1 9.00252 298.802 9.12631 298.582 9.34489C298.362 9.56348 298.235 9.85955 298.23 10.17V13.3H317.23L317.25 10.18Z" fill="white"/>
<path d="M304.45 40.95H311.03C311.848 40.95 312.51 40.2874 312.51 39.47V35.31C312.51 34.4926 311.848 33.83 311.03 33.83H304.45C303.633 33.83 302.97 34.4926 302.97 35.31V39.47C302.97 40.2874 303.633 40.95 304.45 40.95Z" fill="#DA517E"/>
<path opacity="0.3" d="M304.45 40.95H311.03C311.848 40.95 312.51 40.2874 312.51 39.47V35.31C312.51 34.4926 311.848 33.83 311.03 33.83H304.45C303.633 33.83 302.97 34.4926 302.97 35.31V39.47C302.97 40.2874 303.633 40.95 304.45 40.95Z" fill="white"/>
<path d="M285.19 144.35H338.29C338.705 144.347 339.101 144.181 339.394 143.887C339.686 143.593 339.85 143.195 339.85 142.78V117.31C339.848 117.1 339.804 116.892 339.72 116.7C339.683 116.608 339.636 116.521 339.58 116.44C339.524 116.354 339.457 116.277 339.38 116.21C339.236 116.064 339.065 115.948 338.876 115.869C338.687 115.79 338.485 115.75 338.28 115.75H288C288.418 119.24 288.555 122.758 288.41 126.27C288.41 126.84 288.41 127.41 288.32 127.97C288.26 129.02 288.17 130.08 288.05 131.13C287.545 135.622 286.587 140.051 285.19 144.35V144.35Z" fill="#DA517E"/>
<path opacity="0.6" d="M285.19 144.35H338.29C338.705 144.347 339.101 144.181 339.394 143.887C339.686 143.593 339.85 143.195 339.85 142.78V117.31C339.848 117.1 339.804 116.892 339.72 116.7C339.683 116.608 339.636 116.521 339.58 116.44C339.524 116.354 339.457 116.277 339.38 116.21C339.236 116.064 339.065 115.948 338.876 115.869C338.687 115.79 338.485 115.75 338.28 115.75H288C288.418 119.24 288.555 122.758 288.41 126.27C288.41 126.84 288.41 127.41 288.32 127.97C288.26 129.02 288.17 130.08 288.05 131.13C287.545 135.622 286.587 140.051 285.19 144.35V144.35Z" fill="white"/>
<path opacity="0.1" d="M288 115.75C288.418 119.24 288.555 122.758 288.41 126.27C288.41 126.84 288.41 127.41 288.32 127.97L303 130.85L307.48 131.73C307.674 131.78 307.877 131.78 308.07 131.73L312.54 130.86L339.87 125.48V117.3C339.867 117.094 339.826 116.891 339.75 116.7C339.713 116.608 339.666 116.521 339.61 116.44C339.554 116.354 339.487 116.277 339.41 116.21C339.266 116.064 339.095 115.948 338.906 115.869C338.717 115.79 338.515 115.75 338.31 115.75H288Z" fill="black"/>
<path d="M285.9 105.29H294.53V102.16C294.533 100.867 295.048 99.6268 295.962 98.7122C296.877 97.7976 298.117 97.2826 299.41 97.28H316.07C317.365 97.28 318.608 97.7938 319.524 98.7087C320.441 99.6236 320.957 100.865 320.96 102.16V105.29H339.61C340.019 105.29 340.41 105.452 340.699 105.741C340.988 106.03 341.15 106.422 341.15 106.83V122.23C341.15 122.587 341.027 122.934 340.801 123.211C340.575 123.488 340.26 123.678 339.91 123.75H339.84L312.51 129.14L308 130C307.805 130.04 307.605 130.04 307.41 130L302.93 129.12L288.36 126.25C288.644 119.162 287.8 112.073 285.86 105.25L285.9 105.29ZM317.25 102.16C317.245 101.85 317.119 101.553 316.898 101.335C316.678 101.116 316.381 100.993 316.07 100.99H299.41C299.101 100.993 298.805 101.117 298.586 101.336C298.367 101.554 298.243 101.85 298.24 102.16V105.29H317.24L317.25 102.16Z" fill="#DA517E"/>
<path opacity="0.6" d="M285.9 105.29H294.53V102.16C294.533 100.867 295.048 99.6268 295.962 98.7122C296.877 97.7976 298.117 97.2826 299.41 97.28H316.07C317.365 97.28 318.608 97.7938 319.524 98.7087C320.441 99.6236 320.957 100.865 320.96 102.16V105.29H339.61C340.019 105.29 340.41 105.452 340.699 105.741C340.988 106.03 341.15 106.422 341.15 106.83V122.23C341.15 122.587 341.027 122.934 340.801 123.211C340.575 123.488 340.26 123.678 339.91 123.75H339.84L312.51 129.14L308 130C307.805 130.04 307.605 130.04 307.41 130L302.93 129.12L288.36 126.25C288.644 119.162 287.8 112.073 285.86 105.25L285.9 105.29ZM317.25 102.16C317.245 101.85 317.119 101.553 316.898 101.335C316.678 101.116 316.381 100.993 316.07 100.99H299.41C299.101 100.993 298.805 101.117 298.586 101.336C298.367 101.554 298.243 101.85 298.24 102.16V105.29H317.24L317.25 102.16Z" fill="white"/>
<path d="M304.45 132.94H311.03C311.848 132.94 312.51 132.277 312.51 131.46V127.3C312.51 126.483 311.848 125.82 311.03 125.82H304.45C303.633 125.82 302.97 126.483 302.97 127.3V131.46C302.97 132.277 303.633 132.94 304.45 132.94Z" fill="#DA517E"/>
<path opacity="0.3" d="M304.45 132.94H311.03C311.848 132.94 312.51 132.277 312.51 131.46V127.3C312.51 126.483 311.848 125.82 311.03 125.82H304.45C303.633 125.82 302.97 126.483 302.97 127.3V131.46C302.97 132.277 303.633 132.94 304.45 132.94Z" fill="white"/>
<path d="M259.7 109.54H171.92C170.683 109.54 169.68 110.543 169.68 111.78V148.39C169.68 149.627 170.683 150.63 171.92 150.63H259.7C260.937 150.63 261.94 149.627 261.94 148.39V111.78C261.94 110.543 260.937 109.54 259.7 109.54Z" fill="#DA517E"/>
<path d="M227.78 103H203.83C202.014 102.997 200.273 102.275 198.989 100.991C197.705 99.7067 196.983 97.9659 196.98 96.15V90C196.983 88.1841 197.705 86.4433 198.989 85.1593C200.273 83.8752 202.014 83.1527 203.83 83.15H227.78C229.597 83.15 231.339 83.8717 232.624 85.1563C233.908 86.441 234.63 88.1833 234.63 90V96.12C234.634 97.0221 234.46 97.9161 234.117 98.7506C233.775 99.5852 233.271 100.344 232.634 100.983C231.998 101.622 231.241 102.13 230.408 102.476C229.575 102.822 228.682 103 227.78 103V103ZM203.83 88.18C203.348 88.1852 202.887 88.3783 202.545 88.7182C202.203 89.0581 202.008 89.518 202 90V96.12C202 96.6107 202.195 97.0812 202.542 97.4282C202.889 97.7751 203.359 97.97 203.85 97.97H227.8C228.291 97.97 228.761 97.7751 229.108 97.4282C229.455 97.0812 229.65 96.6107 229.65 96.12V90C229.65 89.5094 229.455 89.0388 229.108 88.6919C228.761 88.3449 228.291 88.15 227.8 88.15L203.83 88.18Z" fill="#DA517E"/>
<path opacity="0.2" d="M259.69 109.54H171.93C171.635 109.539 171.343 109.596 171.07 109.708C170.797 109.82 170.549 109.984 170.34 110.193C170.13 110.401 169.965 110.648 169.851 110.92C169.738 111.193 169.68 111.485 169.68 111.78V123.53L215.38 132.53C215.66 132.591 215.95 132.591 216.23 132.53L261.94 123.53V111.78C261.94 111.485 261.882 111.193 261.768 110.92C261.655 110.648 261.489 110.401 261.28 110.193C261.071 109.984 260.823 109.82 260.55 109.708C260.277 109.596 259.985 109.539 259.69 109.54V109.54Z" fill="black"/>
<path d="M262 121L216.21 130C215.926 130.05 215.635 130.05 215.35 130L169.56 121C169.057 120.901 168.604 120.63 168.277 120.235C167.951 119.839 167.772 119.343 167.77 118.83V96.7299C167.77 96.4397 167.827 96.1523 167.938 95.8842C168.049 95.6161 168.212 95.3725 168.417 95.1673C168.623 94.962 168.866 94.7992 169.134 94.6882C169.402 94.5771 169.69 94.52 169.98 94.52H261.6C261.89 94.52 262.178 94.5771 262.446 94.6882C262.714 94.7992 262.958 94.962 263.163 95.1673C263.368 95.3725 263.531 95.6161 263.642 95.8842C263.753 96.1523 263.81 96.4397 263.81 96.7299V118.87C263.8 119.379 263.614 119.869 263.285 120.257C262.955 120.646 262.501 120.908 262 121Z" fill="#DA517E"/>
<path d="M220.55 124.01H211.08C209.909 124.01 208.96 124.959 208.96 126.13V132.12C208.96 133.291 209.909 134.24 211.08 134.24H220.55C221.721 134.24 222.67 133.291 222.67 132.12V126.13C222.67 124.959 221.721 124.01 220.55 124.01Z" fill="#DA517E"/>
<path opacity="0.4" d="M220.55 124.01H211.08C209.909 124.01 208.96 124.959 208.96 126.13V132.12C208.96 133.291 209.909 134.24 211.08 134.24H220.55C221.721 134.24 222.67 133.291 222.67 132.12V126.13C222.67 124.959 221.721 124.01 220.55 124.01Z" fill="black"/>
<path d="M380.9 132.21C382.05 134.58 382.9 136.82 383.9 139.16C384.9 141.5 385.63 143.83 386.41 146.22C387.991 151.066 389.159 156.037 389.9 161.08C390 161.71 390.05 162.39 390.12 163.08L390.22 164.08C390.22 164.26 390.22 164.39 390.22 164.6V165.25C390.254 166.766 390.123 168.282 389.83 169.77C389.334 172.356 388.629 174.898 387.72 177.37C386.012 182.069 383.884 186.604 381.36 190.92L376.28 188.77C377.41 184.21 378.55 179.56 379.41 175.07C379.831 172.919 380.128 170.745 380.3 168.56C380.359 167.667 380.339 166.77 380.24 165.88L380.13 165.25L379.99 164.45C379.88 163.92 379.81 163.39 379.68 162.85C378.683 158.436 377.394 154.093 375.82 149.85C375.06 147.68 374.22 145.52 373.38 143.35C372.54 141.18 371.61 139 370.75 137L380.9 132.21Z" fill="#7F3E3B"/>
<path d="M376.5 187.44L372.6 191.24L381.11 195.24C381.11 195.24 383.17 191.64 381.75 188.38L376.5 187.44Z" fill="#7F3E3B"/>
<path d="M369.46 196.91L376.64 199.85L381.11 195.2L372.6 191.24L369.46 196.91Z" fill="#7F3E3B"/>
<path opacity="0.2" d="M223.81 192.81C237.96 191.225 251.323 185.48 262.209 176.301C273.094 167.123 281.014 154.922 284.967 141.243C288.919 127.564 288.727 113.02 284.414 99.4495C280.101 85.8794 271.862 73.8928 260.737 65.0052C249.612 56.1175 236.102 50.7279 221.915 49.5178C207.727 48.3078 193.5 51.3315 181.031 58.2068C168.562 65.082 158.411 75.5001 151.863 88.1437C145.314 100.787 142.661 115.089 144.24 129.24C145.288 138.64 148.179 147.74 152.745 156.023C157.312 164.305 163.466 171.606 170.855 177.51C178.244 183.413 186.724 187.803 195.81 190.428C204.896 193.053 214.411 193.863 223.81 192.81V192.81Z" fill="#DA517E"/>
<path opacity="0.1" d="M171.42 64.54L280.92 152C281.39 151 281.83 150 282.26 149C285.004 142.471 286.757 135.568 287.46 128.52V128.52L192.88 53C185.118 55.5885 177.859 59.492 171.42 64.54V64.54Z" fill="white"/>
<path opacity="0.1" d="M146.16 102.87L249.1 185.12C258.881 180.019 267.359 172.738 273.88 163.84L161.46 74.0001C154.215 82.3238 148.98 92.2014 146.16 102.87V102.87Z" fill="white"/>
<path d="M393.17 202.12C393.038 200.3 392.443 198.544 391.44 197.02C390.711 195.899 389.692 194.997 388.49 194.41L381.66 191.06C377.12 188.81 372.55 186.62 367.98 184.43C363.41 182.24 358.81 180.09 354.23 177.92C349.65 175.75 345.03 173.64 340.4 171.57C331.16 167.383 321.86 163.31 312.5 159.35C307.82 157.35 303.13 155.43 298.4 153.55C297.019 153.006 295.896 151.958 295.259 150.617C294.623 149.277 294.519 147.744 294.97 146.33C301.301 126.368 299.86 104.752 290.933 85.8073C282.007 66.8631 266.255 51.9894 246.83 44.1635C227.405 36.3377 205.742 36.1372 186.176 43.6023C166.609 51.0674 150.585 65.6472 141.309 84.423C132.034 103.199 130.193 124.785 136.154 144.861C142.115 164.936 155.438 182.02 173.457 192.691C191.476 203.362 212.861 206.834 233.33 202.412C253.8 197.989 271.844 185.998 283.85 168.84C284.7 167.62 285.981 166.769 287.435 166.459C288.889 166.149 290.406 166.403 291.68 167.17C296.053 169.77 300.447 172.327 304.86 174.84C313.68 179.867 322.567 184.767 331.52 189.54C335.99 191.96 340.52 194.29 344.97 196.66C349.42 199.03 353.97 201.34 358.5 203.66C363.03 205.98 367.5 208.25 372.09 210.49L378.9 213.87C380.096 214.472 381.435 214.734 382.77 214.63C384.587 214.501 386.34 213.905 387.86 212.9C389.672 211.787 391.132 210.184 392.072 208.277C393.011 206.369 393.392 204.235 393.17 202.12V202.12ZM186.8 180C175.175 174.264 165.512 165.209 159.034 153.981C152.555 142.753 149.552 129.855 150.403 116.92C151.255 103.985 155.924 91.593 163.818 81.3111C171.713 71.0293 182.48 63.3196 194.756 59.1569C207.033 54.9943 220.268 54.5658 232.788 57.9256C245.309 61.2853 256.551 68.2825 265.095 78.0321C273.638 87.7817 279.098 99.8459 280.785 112.699C282.471 125.552 280.309 138.616 274.57 150.24C270.761 157.957 265.47 164.849 258.998 170.521C252.525 176.194 244.999 180.536 236.849 183.299C228.699 186.063 220.084 187.194 211.496 186.628C202.909 186.061 194.517 183.809 186.8 180V180Z" fill="#DA517E"/>
<path d="M343.19 101.3C343.19 101.89 342.88 102.37 342.49 102.37C342.1 102.37 341.79 101.89 341.79 101.3C341.79 100.71 342.1 100.22 342.49 100.22C342.88 100.22 343.19 100.7 343.19 101.3Z" fill="#263238"/>
<path d="M342.93 102.37C342.227 104.181 341.278 105.887 340.11 107.44C340.514 107.729 340.977 107.927 341.466 108.018C341.955 108.11 342.458 108.093 342.94 107.97L342.93 102.37Z" fill="#630F0F"/>
<path d="M345.29 98C345.363 97.998 345.433 97.9734 345.491 97.9297C345.549 97.886 345.592 97.8253 345.614 97.756C345.636 97.6868 345.636 97.6124 345.614 97.5433C345.591 97.4741 345.548 97.4135 345.49 97.37C345.048 97.0388 344.534 96.8172 343.99 96.7233C343.446 96.6294 342.887 96.666 342.36 96.83C342.313 96.8429 342.269 96.8655 342.231 96.8964C342.193 96.9273 342.162 96.9659 342.14 97.0095C342.118 97.0532 342.105 97.101 342.103 97.1499C342.1 97.1988 342.108 97.2476 342.125 97.2933C342.143 97.339 342.17 97.3805 342.205 97.4151C342.239 97.4497 342.281 97.4767 342.326 97.4943C342.372 97.5119 342.421 97.5197 342.47 97.5172C342.519 97.5148 342.566 97.5021 342.61 97.48V97.48C343.03 97.3551 343.473 97.3308 343.904 97.409C344.335 97.4872 344.741 97.6656 345.09 97.93C345.146 97.9761 345.217 98.0009 345.29 98V98Z" fill="#263238"/>
<path d="M363.42 105.76C362.36 111.14 361.31 120.99 365.07 124.57C365.07 124.57 363.6 130.02 353.62 130.02C342.62 130.02 348.37 124.57 348.37 124.57C354.37 123.14 354.21 118.69 353.16 114.57L363.42 105.76Z" fill="#7F3E3B"/>
<path d="M367 121.2C367.83 121.47 366.75 126.41 366.75 126.41C366.75 126.41 365.38 129.86 348.36 128.66C347.05 128.56 347.55 123.82 348.8 123.13C352.83 120.93 364.32 120.32 367 121.2Z" fill="#263238"/>
<path d="M401.57 327.81C402.49 327.72 403.83 326.03 404.21 325.41C404.227 325.383 404.236 325.352 404.236 325.32C404.236 325.288 404.227 325.257 404.21 325.23C404.193 325.2 404.168 325.177 404.138 325.162C404.107 325.148 404.073 325.144 404.04 325.15C403.94 325.15 401.52 325.61 400.93 326.55C400.868 326.649 400.826 326.759 400.809 326.874C400.792 326.99 400.799 327.107 400.83 327.22C400.96 327.66 401.21 327.78 401.41 327.81H401.57ZM403.68 325.58C403.03 326.48 401.96 327.53 401.45 327.46C401.4 327.46 401.25 327.46 401.16 327.12C401.14 327.055 401.135 326.986 401.146 326.918C401.156 326.851 401.181 326.786 401.22 326.73C401.909 326.113 402.765 325.713 403.68 325.58Z" fill="#DA517E"/>
<path d="M403.58 325.58C403.759 325.565 403.936 325.535 404.11 325.49C404.139 325.481 404.166 325.464 404.187 325.441C404.208 325.418 404.223 325.39 404.23 325.36C404.236 325.329 404.233 325.297 404.223 325.267C404.212 325.237 404.194 325.211 404.17 325.19C404.11 325.13 402.49 323.75 401.39 323.86C401.258 323.869 401.129 323.905 401.011 323.967C400.894 324.029 400.791 324.115 400.71 324.22C400.616 324.311 400.557 324.432 400.544 324.562C400.531 324.692 400.565 324.823 400.64 324.93C401 325.5 402.58 325.68 403.58 325.58ZM403.66 325.23C402.66 325.35 401.2 325.15 400.92 324.74C400.92 324.74 400.84 324.61 400.98 324.43C401.036 324.364 401.105 324.31 401.182 324.27C401.259 324.231 401.343 324.207 401.43 324.2V324.2C402.259 324.315 403.035 324.673 403.66 325.23V325.23Z" fill="#DA517E"/>
<path d="M332.82 354.11C333.578 354.107 334.334 354.04 335.08 353.91C335.113 353.901 335.144 353.883 335.168 353.859C335.193 353.834 335.211 353.803 335.22 353.77C335.226 353.734 335.221 353.698 335.204 353.665C335.188 353.633 335.162 353.607 335.13 353.59C335.02 353.52 332.46 352.06 331.23 352.39C331 352.449 330.802 352.596 330.68 352.8C330.602 352.911 330.56 353.044 330.56 353.18C330.56 353.316 330.602 353.449 330.68 353.56C331 354 331.88 354.11 332.82 354.11ZM334.52 353.65C333.15 353.84 331.29 353.83 330.95 353.36C330.9 353.3 330.86 353.19 330.95 352.97C330.987 352.908 331.036 352.855 331.094 352.814C331.153 352.772 331.22 352.744 331.29 352.73C332.08 352.52 333.62 353.19 334.52 353.65V353.65Z" fill="#DA517E"/>
<path d="M335 353.91C335.036 353.92 335.074 353.92 335.11 353.91C335.133 353.89 335.151 353.866 335.164 353.838C335.176 353.81 335.181 353.78 335.18 353.75C335.18 353.67 334.97 351.69 334.04 350.92C333.902 350.805 333.743 350.719 333.571 350.668C333.399 350.616 333.218 350.6 333.04 350.62C332.56 350.67 332.43 350.91 332.39 351.11C332.26 351.94 334.02 353.53 334.9 353.93L335 353.91ZM333.21 350.91C333.433 350.916 333.648 350.997 333.82 351.14C334.375 351.774 334.724 352.562 334.82 353.4C333.91 352.86 332.72 351.61 332.82 351.11C332.82 351.11 332.82 350.95 333.16 350.92L333.21 350.91Z" fill="#DA517E"/>
<path d="M343.12 353.74H335.78L335.04 336.72H342.39L343.12 353.74Z" fill="#7F3E3B"/>
<path d="M410.63 320.03L404.9 324.62L390.32 314.5L396.06 309.91L410.63 320.03Z" fill="#7F3E3B"/>
<path d="M403.85 324.33L409.71 318.52C409.815 318.419 409.951 318.356 410.096 318.341C410.241 318.327 410.387 318.362 410.51 318.44L416.14 322.06C416.277 322.148 416.391 322.267 416.475 322.406C416.559 322.545 416.61 322.701 416.625 322.863C416.639 323.025 416.617 323.188 416.559 323.34C416.501 323.492 416.409 323.629 416.29 323.74C414.21 325.74 413.1 326.6 410.52 329.15C408.94 330.73 405.07 335.43 402.88 337.6C400.69 339.77 398.25 337.89 398.96 336.8C402.11 331.94 403.18 327.93 403.32 325.49C403.35 325.052 403.539 324.64 403.85 324.33V324.33Z" fill="#263238"/>
<path d="M335.82 352.89H343.82C343.965 352.889 344.106 352.939 344.219 353.03C344.332 353.121 344.41 353.248 344.44 353.39L345.89 359.92C345.926 360.077 345.927 360.24 345.891 360.397C345.855 360.554 345.783 360.701 345.682 360.826C345.581 360.952 345.452 361.052 345.306 361.12C345.161 361.189 345.001 361.223 344.84 361.22C341.94 361.22 337.76 361.01 334.12 361.01C329.87 361.01 326.2 361.24 321.21 361.24C318.21 361.24 317.36 358.19 318.62 357.91C324.37 356.66 329.06 356.52 334.02 353.46C334.555 353.106 335.178 352.908 335.82 352.89V352.89Z" fill="#263238"/>
<path d="M379.55 126.77C385.92 129.77 388.55 150.33 388.55 150.33L373.9 156.08C371.626 150.513 369.784 144.779 368.39 138.93C366.34 129.65 373 123.65 379.55 126.77Z" fill="#DA517E"/>
<path opacity="0.3" d="M379.55 126.77C385.92 129.77 388.55 150.33 388.55 150.33L373.9 156.08C371.626 150.513 369.784 144.779 368.39 138.93C366.34 129.65 373 123.65 379.55 126.77Z" fill="white"/>
<path opacity="0.2" d="M370.06 132.8C369.56 132.558 369.038 132.367 368.5 132.23C367.915 134.423 367.895 136.727 368.44 138.93C369.828 144.78 371.667 150.514 373.94 156.08L378.77 154.19C377.88 148.82 375.15 135.24 370.06 132.8Z" fill="black"/>
<path d="M337.07 126.61C337.07 126.61 329.25 135.44 336.63 190.11H375.93C376.2 184.11 372.41 154.65 378.23 126.23C373.884 125.394 369.488 124.84 365.07 124.57C359.508 124.25 353.932 124.25 348.37 124.57C344.556 124.954 340.778 125.636 337.07 126.61Z" fill="#DA517E"/>
<path opacity="0.3" d="M337.07 126.61C337.07 126.61 329.25 135.44 336.63 190.11H375.93C376.2 184.11 372.41 154.65 378.23 126.23C373.884 125.394 369.488 124.84 365.07 124.57C359.508 124.25 353.932 124.25 348.37 124.57C344.556 124.954 340.778 125.636 337.07 126.61Z" fill="white"/>
<path opacity="0.2" d="M345 138.33C343.22 132.99 338.94 131.28 334.58 134.45C333.7 139.63 333.08 147.98 333.79 161.22L341.46 161.15C341.46 161.15 347.63 146.28 345 138.33Z" fill="black"/>
<path d="M343.56 136.14C343.24 138.82 342.8 141.25 342.31 143.78C341.82 146.31 341.25 148.78 340.6 151.27C339.316 156.359 337.569 161.32 335.38 166.09C334.81 167.32 334.15 168.53 333.45 169.74C333.09 170.35 332.73 170.96 332.32 171.56C331.788 172.394 331.161 173.162 330.45 173.85C329.07 175.13 327.434 176.101 325.65 176.7C324.201 177.208 322.703 177.559 321.18 177.75C318.462 178.087 315.715 178.121 312.99 177.85C311.656 177.743 310.356 177.573 309.09 177.34C307.79 177.11 306.56 176.87 305.22 176.52L305.87 171.04C310.434 170.848 314.965 170.178 319.39 169.04C320.29 168.774 321.163 168.426 322 168C322.549 167.748 323.029 167.367 323.4 166.89C323.32 166.96 324.05 165.75 324.48 164.89C324.91 164.03 325.39 162.89 325.8 161.89C326.64 159.83 327.36 157.65 328.02 155.42C328.68 153.19 329.26 150.92 329.8 148.62C330.34 146.32 330.8 144 331.3 141.62C331.8 139.24 332.16 136.88 332.52 134.67L343.56 136.14Z" fill="#7F3E3B"/>
<path d="M346.89 132C348.96 138.71 340.56 158.71 340.56 158.71L322.87 154.26C323.953 147.938 325.775 141.766 328.3 135.87C334 123.39 344.4 123.91 346.89 132Z" fill="#DA517E"/>
<path opacity="0.3" d="M346.89 132C348.96 138.71 340.56 158.71 340.56 158.71L322.87 154.26C323.953 147.938 325.775 141.766 328.3 135.87C334 123.39 344.4 123.91 346.89 132Z" fill="white"/>
<path d="M306.12 171.07L297.8 170.86L301.8 179.51C301.8 179.51 305.18 179.96 307.96 175.39L310.89 171.9L307.52 171.22C307.058 171.13 306.59 171.08 306.12 171.07Z" fill="#7F3E3B"/>
<path d="M292.55 172.47L297.32 179.64L301.81 179.51L297.8 170.86L292.55 172.47Z" fill="#7F3E3B"/>
<path opacity="0.2" d="M335.05 336.73L335.42 345.5H342.77L342.39 336.73H335.05Z" fill="black"/>
<path opacity="0.2" d="M396.06 309.91L390.32 314.5L397.84 319.72L403.58 315.13L396.06 309.91Z" fill="black"/>
<path d="M363 100C362.56 107.28 362.68 111.56 359 115.3C353.48 120.92 344.49 117.6 342.75 110.3C341.18 103.76 342.17 92.96 349.29 90.05C350.86 89.4005 352.57 89.1644 354.258 89.364C355.945 89.5637 357.553 90.1925 358.928 91.1905C360.303 92.1885 361.399 93.5222 362.112 95.0645C362.825 96.6067 363.131 98.306 363 100V100Z" fill="#7F3E3B"/>
<path d="M368.88 93.24C368.88 93.24 372.71 94.38 371.51 98.75C369.7 105.39 365.44 113.03 359.94 113.51C353.09 114.12 350 107.05 349.1 99.74C345 96.93 341.96 94.3 342.94 91.38C344.44 86.88 349.88 83 358.54 84C367.2 85 371.51 90.6 368.88 93.24Z" fill="#263238"/>
<path d="M353.27 101.24C353.137 103.045 352.413 104.757 351.21 106.11C349.61 107.87 347.93 106.77 347.65 104.63C347.4 102.69 347.92 99.4399 349.88 98.4699C351.84 97.4999 353.4 99.0599 353.27 101.24Z" fill="#7F3E3B"/>
<path d="M350.57 190.11C350.57 190.11 348.09 239.63 352.92 260.61C360.57 293.83 394.2 320.45 394.2 320.45L405 311.8C405 311.8 377.33 291.21 374.84 263.55C372.61 238.71 375.91 210.18 375.91 190.11H350.57Z" fill="#DA517E"/>
<path opacity="0.2" d="M350.57 190.11C350.57 190.11 348.09 239.63 352.92 260.61C360.57 293.83 394.2 320.45 394.2 320.45L405 311.8C405 311.8 377.33 291.21 374.84 263.55C372.61 238.71 375.91 210.18 375.91 190.11H350.57Z" fill="black"/>
<path opacity="0.2" d="M354.26 204.78C353.26 202.85 351.31 208.6 349.95 215.98C349.95 226.16 350.13 237.74 351.02 247.55C357.81 235 356.37 208.78 354.26 204.78Z" fill="black"/>
<path d="M389.3 318.32L393.4 321.5L405.87 311.39L402.13 308L389.3 318.32Z" fill="#2C6BDB"/>
<path opacity="0.4" d="M389.3 318.32L393.4 321.5L405.87 311.39L402.13 308L389.3 318.32Z" fill="#FAFAFA"/>
<path d="M336.63 190.11C336.63 190.11 325.57 237.01 324.79 259.41C323.92 284.54 332.68 343.8 332.68 343.8H345.13C345.13 343.8 346.66 284.08 347.22 261.19C347.82 236.24 362.46 190.11 362.46 190.11H336.63Z" fill="#DA517E"/>
<path opacity="0.2" d="M336.63 190.11C336.63 190.11 325.57 237.01 324.79 259.41C323.92 284.54 332.68 343.8 332.68 343.8H345.13C345.13 343.8 346.66 284.08 347.22 261.19C347.82 236.24 362.46 190.11 362.46 190.11H336.63Z" fill="black"/>
<path d="M330.29 338.84C330.23 338.84 330.99 344.01 330.99 344.01H346.13L346.54 339.4L330.29 338.84Z" fill="#2C6BDB"/>
<path opacity="0.4" d="M330.29 338.84C330.23 338.84 330.99 344.01 330.99 344.01H346.13L346.54 339.4L330.29 338.84Z" fill="#FAFAFA"/>
</svg>
