<svg width="1075" height="1047" viewBox="0 0 1075 1047" fill="none" xmlns="http://www.w3.org/2000/svg">
<path d="M222.305 55.3324C222.305 55.3324 235.508 44.9146 238.889 38.2263C241.773 32.5325 243.862 24.4767 240.878 18.3354C240.222 16.8913 239.27 15.6012 238.083 14.549C236.897 13.4967 235.502 12.7057 233.99 12.2274C232.477 11.7491 230.881 11.5942 229.305 11.7726C227.729 11.9511 226.208 12.4589 224.841 13.2632C216.711 18.236 215.841 35.6405 217.904 43.8454C218.078 44.5665 222.181 55.5313 222.305 55.3324Z" fill="#DA517E"/>
<path d="M100.3 142.181C100.822 142.678 110.245 149.491 110.245 149.317C110.245 149.143 115.591 133.354 114.696 125.92C113.95 119.58 111.24 111.698 105.422 108.292C104.079 107.44 102.572 106.88 100.999 106.649C99.4253 106.418 97.821 106.52 96.2898 106.949C94.7587 107.378 93.3349 108.125 92.111 109.14C90.8871 110.155 89.8904 111.416 89.1857 112.842C85.2075 121.544 93.9843 136.388 100.3 142.181Z" fill="#DA517E"/>
<path d="M376.833 71.1207C376.833 71.1207 328.523 120.997 328.771 182.336C329.02 243.674 377.802 293.053 377.802 293.053C377.802 293.053 426.112 243.177 425.839 181.913C425.565 120.649 376.833 71.1207 376.833 71.1207Z" fill="#DA517E"/>
<path d="M307.936 218.96C308.579 218.268 309.17 217.528 309.701 216.747C313.207 211.426 316.215 203.669 313.952 197.303C313.472 195.79 312.679 194.394 311.624 193.206C310.57 192.018 309.278 191.065 307.831 190.409C306.385 189.753 304.817 189.407 303.229 189.396C301.64 189.384 300.067 189.706 298.612 190.342C292.048 193.45 288.815 203.967 288.119 212.57C285.633 211.973 283.147 211.501 281.133 211.177C280.262 209.213 279.392 207.249 278.497 205.285C277.602 203.32 276.881 201.182 276.011 199.118C274.842 196.06 273.798 192.853 272.754 189.645C276.583 187.93 287.672 182.733 291.849 178.134C296.026 173.534 300.278 166.199 299.009 159.561C298.767 157.989 298.196 156.486 297.333 155.149C296.471 153.813 295.336 152.674 294.004 151.806C292.671 150.938 291.17 150.36 289.599 150.111C288.028 149.862 286.423 149.947 284.887 150.361C275.712 153.071 270.317 169.481 270.143 178.009C270.143 178.283 270.143 180.098 270.466 182.261C269.546 179.078 268.601 175.946 267.781 172.713C265.419 163.539 263.305 154.115 261.142 144.692C260.695 142.728 260.222 140.764 259.75 138.799C262.982 137.382 275.091 131.838 279.442 127.039C283.793 122.24 287.846 115.104 286.578 108.466C286.339 106.892 285.77 105.387 284.909 104.049C284.047 102.71 282.912 101.569 281.579 100.701C280.245 99.8318 278.743 99.2549 277.17 99.0077C275.598 98.7605 273.991 98.8487 272.455 99.2663C263.305 101.976 257.91 118.386 257.711 126.915C257.711 127.238 257.885 129.401 258.109 131.887C256.866 126.765 255.623 121.693 254.106 116.696C251.664 108.116 248.649 99.7097 245.08 91.5338C246.224 91.0365 260.546 84.8455 265.369 79.4998C269.646 74.7508 273.798 67.5404 272.53 60.9018C272.284 59.3317 271.71 57.8309 270.847 56.4967C269.983 55.1625 268.849 54.0247 267.517 53.1573C266.185 52.2898 264.686 51.712 263.117 51.4613C261.547 51.2107 259.943 51.2928 258.407 51.7023C249.233 54.4373 243.837 70.8224 243.663 79.3755C243.663 79.9722 244.359 87.7794 244.707 90.5641V90.2657C241.002 82.3173 236.601 74.7125 231.555 67.5404C227.079 61.1204 222.23 54.9686 217.034 49.1165C212.285 43.6216 207.586 38.8975 203.384 34.7453C201.122 32.5076 198.983 30.5185 196.969 28.6786H197.168C197.342 28.6786 192.693 18.0121 192.345 17.3657C188.043 9.90661 175.413 -1.80415 166.064 0.234669C164.516 0.615927 163.065 1.31945 161.807 2.2993C160.55 3.27915 159.513 4.51328 158.764 5.92113C158.016 7.32897 157.572 8.87887 157.464 10.4696C157.355 12.0603 157.583 13.6561 158.132 15.1528C160.221 21.5676 167.332 25.9188 173.374 27.9824C179.416 30.0461 193.066 29.1013 196.397 28.8029C198.461 30.7423 200.624 32.8557 202.961 35.2426C207.039 39.4943 211.614 44.293 216.239 49.8624C217.482 51.3542 218.725 52.9952 219.993 54.5616C217.333 52.3488 213.628 49.39 213.23 49.1414C206.02 44.5416 189.386 39.917 182.026 46.0334C180.833 47.0843 179.875 48.3744 179.213 49.8198C178.551 51.2652 178.201 52.8337 178.184 54.4234C178.168 56.0131 178.486 57.5884 179.118 59.0472C179.75 60.506 180.681 61.8156 181.852 62.8909C186.651 67.615 194.955 68.1869 201.271 67.2669C207.586 66.347 219.645 58.9376 222.181 57.3215C224.916 60.8521 227.651 64.5319 230.262 68.535C235.072 75.717 239.233 83.3139 242.693 91.2354C242.892 91.7078 243.042 92.2051 243.216 92.6526C242.097 91.3349 235.384 84.5471 234.837 84.1244C228.173 78.7787 212.161 72.3639 204.18 77.635C202.875 78.545 201.777 79.7199 200.957 81.083C200.137 82.4462 199.614 83.9669 199.421 85.546C199.229 87.1251 199.372 88.727 199.84 90.2472C200.309 91.7673 201.093 93.1716 202.141 94.3682C206.393 99.5896 214.573 101.081 220.963 100.833C228.422 100.584 242.793 93.3737 243.34 93.0007C246.601 100.993 249.333 109.191 251.52 117.541C253.161 123.707 254.578 129.973 255.946 136.388C254.454 134.697 248.188 128.406 247.691 127.984C241.028 122.638 225.015 116.223 217.009 121.494C215.708 122.407 214.613 123.583 213.795 124.946C212.977 126.309 212.455 127.829 212.263 129.407C212.071 130.985 212.212 132.586 212.679 134.105C213.145 135.625 213.926 137.029 214.971 138.228C219.247 143.449 227.402 144.941 233.817 144.692C240.978 144.443 254.901 137.507 256.194 136.91C256.816 139.794 257.438 142.678 258.034 145.587C259.998 155.035 261.913 164.533 264.076 173.832C264.847 177.064 265.692 180.222 266.563 183.38C264.225 180.893 259.874 176.542 259.476 176.219C252.813 170.849 236.776 164.434 228.795 169.705C227.49 170.615 226.392 171.79 225.572 173.153C224.752 174.516 224.229 176.037 224.036 177.616C223.844 179.195 223.986 180.797 224.455 182.317C224.924 183.837 225.708 185.241 226.756 186.438C231.008 191.684 239.188 193.151 245.578 192.927C251.968 192.704 263.803 187.109 267.11 185.468C268.576 190.715 270.118 195.886 271.908 200.909C272.729 203.047 273.4 205.285 274.395 207.299L275.762 210.506L273.897 210.332C273.897 210.332 273.897 213.34 274.071 218.189C267.035 213.216 256.891 208.865 250.302 211.898C248.876 212.603 247.615 213.6 246.6 214.824C245.585 216.048 244.838 217.471 244.409 219.003C243.98 220.534 243.878 222.138 244.109 223.711C244.34 225.284 244.9 226.791 245.752 228.134C246.175 228.851 246.666 229.525 247.219 230.148C248.469 237.57 251.603 244.547 256.319 250.412C256.667 250.81 261.441 255.236 263.952 257.424C261.465 256.131 259.128 254.937 256.642 253.421C253.062 251.431 249.332 249.219 245.702 247.08L239.909 243.376C237.994 242.207 236.304 240.889 234.464 239.596C231.803 237.682 229.168 235.593 226.532 233.48C228.77 229.949 235.185 219.482 236.129 213.365C237.074 207.249 236.552 198.746 231.828 193.922C230.765 192.74 229.465 191.795 228.013 191.148C226.561 190.501 224.989 190.167 223.399 190.167C221.81 190.167 220.238 190.501 218.786 191.148C217.334 191.795 216.034 192.74 214.971 193.922C208.829 201.381 213.379 217.915 217.929 225.151C218.079 225.374 219.197 226.817 220.416 228.482C217.929 226.369 215.443 224.256 212.957 222.018C205.945 215.653 198.983 208.964 191.972 202.301L187.695 198.248C189.61 195.29 196.646 184.001 197.641 177.611C198.635 171.222 198.063 162.992 193.364 158.143C192.301 156.962 191.001 156.017 189.549 155.37C188.097 154.723 186.525 154.388 184.935 154.388C183.346 154.388 181.774 154.723 180.322 155.37C178.87 156.017 177.57 156.962 176.507 158.143C170.365 165.602 174.915 182.112 179.465 189.347C179.615 189.621 180.957 191.311 182.474 193.201C178.62 189.645 174.741 186.115 170.763 182.758C163.993 176.949 156.841 171.599 149.356 166.746C150.027 165.702 158.555 152.624 159.649 145.513C160.594 139.197 160.072 130.893 155.348 126.069C154.287 124.888 152.989 123.943 151.539 123.297C150.089 122.65 148.519 122.316 146.931 122.316C145.344 122.316 143.774 122.65 142.324 123.297C140.874 123.943 139.576 124.888 138.515 126.069C132.349 133.528 136.899 150.063 141.449 157.298C141.772 157.795 146.695 163.937 148.51 166.05L148.237 165.876C140.77 161.278 132.907 157.359 124.741 154.165C117.432 151.249 109.96 148.758 102.363 146.706C95.3519 144.742 88.8376 143.399 83.0692 142.231C79.9116 141.634 77.0523 141.161 74.3421 140.714H74.5162C74.6405 140.714 64.894 134.274 64.2226 133.951C56.5895 130.147 39.558 127.312 32.8697 134.15C31.7934 135.32 30.9752 136.703 30.4682 138.21C29.9613 139.717 29.7768 141.313 29.9269 142.896C30.0769 144.479 30.5581 146.012 31.3393 147.397C32.1204 148.781 33.1839 149.986 34.4609 150.933C39.7569 155.135 48.0613 154.836 54.3518 153.245C60.6423 151.654 71.3834 143.3 73.994 141.211C76.7788 141.708 79.7624 142.28 83.0444 142.977C88.7879 144.245 95.2524 145.736 102.164 147.949C104.029 148.521 105.993 149.192 107.908 149.789C104.452 149.441 99.7278 148.994 99.2554 148.994C90.7272 149.168 74.3918 154.464 71.5325 163.638C71.1106 165.17 71.0169 166.774 71.2576 168.345C71.4984 169.916 72.068 171.418 72.9294 172.754C73.7908 174.089 74.9244 175.228 76.2561 176.095C77.5879 176.962 79.0877 177.538 80.6575 177.786C87.296 179.078 94.5314 174.976 99.2803 170.724C104.029 166.473 109.996 153.643 111.24 150.833C115.466 152.251 119.768 153.817 124.144 155.806C132.135 159.14 139.815 163.175 147.093 167.865C147.516 168.138 147.913 168.487 148.336 168.76C146.67 168.288 137.322 166.274 136.65 166.274C128.147 165.478 111.24 168.959 107.485 177.761C106.896 179.234 106.624 180.814 106.687 182.399C106.75 183.984 107.146 185.538 107.85 186.96C108.554 188.382 109.549 189.639 110.772 190.65C111.994 191.661 113.416 192.403 114.944 192.828C121.409 194.842 129.042 191.56 134.238 187.855C140.231 183.579 148.262 169.481 148.56 168.959C155.688 173.831 162.49 179.163 168.923 184.921C173.697 189.173 178.371 193.648 183.021 198.199C180.833 197.627 172.155 195.712 171.509 195.712C163.006 194.917 146.098 198.397 142.344 207.199C141.759 208.674 141.49 210.256 141.554 211.841C141.619 213.427 142.016 214.981 142.719 216.403C143.422 217.826 144.416 219.085 145.636 220.099C146.856 221.114 148.276 221.86 149.803 222.291C156.268 224.305 163.901 221.023 169.097 217.319C174.94 213.142 182.698 199.69 183.369 198.547L189.684 204.763C196.522 211.575 203.359 218.438 210.321 225.001C212.807 227.264 215.294 229.427 217.631 231.59C214.324 230.844 208.282 229.576 207.686 229.527C199.157 228.756 182.275 232.237 178.496 241.039C177.911 242.512 177.642 244.092 177.707 245.675C177.771 247.259 178.168 248.812 178.872 250.232C179.575 251.653 180.569 252.91 181.789 253.922C183.009 254.934 184.429 255.678 185.955 256.106C192.394 258.12 200.052 254.838 205.249 251.133C210.445 247.428 217.233 236.215 219.098 233.057C223.2 236.613 227.353 240.069 231.53 243.276C233.394 244.619 235.21 246.111 237.074 247.304L242.569 250.984C246.398 253.47 250.028 255.584 253.609 257.697C255.424 258.791 257.164 259.761 258.954 260.805C255.722 259.537 250.575 257.623 250.078 257.498C241.798 255.435 224.543 256.305 219.496 264.435C218.694 265.808 218.192 267.335 218.02 268.916C217.849 270.496 218.012 272.095 218.5 273.609C218.988 275.122 219.789 276.515 220.852 277.698C221.915 278.88 223.215 279.826 224.667 280.472C230.734 283.456 238.79 281.367 244.558 278.483C250.824 275.301 260.272 263.565 261.416 262.173C265.817 264.659 270.118 267.145 274.171 269.234C285.011 275.052 294.484 279.677 301.819 283.108C325.688 303.744 359.279 306.032 359.279 306.032C359.279 306.032 361.044 265.803 337.374 239.323C329.161 230.473 319.114 223.523 307.936 218.96ZM265.344 258.17C266.09 256.529 271.809 243.749 272.207 236.538C273.524 236.29 274.867 236.016 276.16 235.718C278.609 248.439 283.69 260.507 291.078 271.148C286.727 269.085 282.028 266.797 277.055 264.261C273.226 262.371 269.322 260.333 265.344 258.17Z" fill="#DA517E"/>
<path d="M483.945 211.252C483.945 211.252 443.691 212.495 419.051 238.08C394.411 263.664 394.734 303.943 394.734 303.943C394.734 303.943 434.988 302.7 459.603 277.116C484.218 251.531 483.945 211.252 483.945 211.252Z" fill="#DA517E"/>
<g opacity="0.5">
<path d="M222.305 55.3324C222.305 55.3324 235.508 44.9146 238.889 38.2263C241.773 32.5325 243.862 24.4767 240.878 18.3354C240.222 16.8913 239.27 15.6012 238.083 14.549C236.897 13.4967 235.502 12.7057 233.99 12.2274C232.477 11.7491 230.881 11.5942 229.305 11.7726C227.729 11.9511 226.208 12.4589 224.841 13.2632C216.711 18.236 215.841 35.6405 217.904 43.8454C218.078 44.5665 222.181 55.5313 222.305 55.3324Z" fill="white"/>
<path d="M100.3 142.181C100.822 142.678 110.245 149.491 110.245 149.317C110.245 149.143 115.591 133.354 114.696 125.92C113.95 119.58 111.24 111.698 105.422 108.292C104.079 107.44 102.572 106.88 100.999 106.649C99.4253 106.418 97.821 106.52 96.2898 106.949C94.7587 107.378 93.3349 108.125 92.111 109.14C90.8871 110.155 89.8904 111.416 89.1857 112.842C85.2075 121.544 93.9843 136.388 100.3 142.181Z" fill="white"/>
<path d="M376.833 71.1207C376.833 71.1207 328.523 120.997 328.771 182.336C329.02 243.674 377.802 293.053 377.802 293.053C377.802 293.053 426.112 243.177 425.839 181.913C425.565 120.649 376.833 71.1207 376.833 71.1207Z" fill="white"/>
<path d="M307.936 218.96C308.579 218.268 309.17 217.528 309.701 216.747C313.207 211.426 316.215 203.669 313.952 197.303C313.472 195.79 312.679 194.394 311.624 193.206C310.57 192.018 309.278 191.065 307.831 190.409C306.385 189.753 304.817 189.407 303.229 189.396C301.64 189.384 300.067 189.706 298.612 190.342C292.048 193.45 288.815 203.967 288.119 212.57C285.633 211.973 283.147 211.501 281.133 211.177C280.262 209.213 279.392 207.249 278.497 205.285C277.602 203.32 276.881 201.182 276.011 199.118C274.842 196.06 273.798 192.853 272.754 189.645C276.583 187.93 287.672 182.733 291.849 178.134C296.026 173.534 300.278 166.199 299.009 159.561C298.767 157.989 298.196 156.486 297.333 155.149C296.471 153.813 295.336 152.674 294.004 151.806C292.671 150.938 291.17 150.36 289.599 150.111C288.028 149.862 286.423 149.947 284.887 150.361C275.712 153.071 270.317 169.481 270.143 178.009C270.143 178.283 270.143 180.098 270.466 182.261C269.546 179.078 268.601 175.946 267.781 172.713C265.419 163.539 263.305 154.115 261.142 144.692C260.695 142.728 260.222 140.764 259.75 138.799C262.982 137.382 275.091 131.838 279.442 127.039C283.793 122.24 287.846 115.104 286.578 108.466C286.339 106.892 285.77 105.387 284.909 104.049C284.047 102.71 282.912 101.569 281.579 100.701C280.245 99.8318 278.743 99.2549 277.17 99.0077C275.598 98.7605 273.991 98.8487 272.455 99.2663C263.305 101.976 257.91 118.386 257.711 126.915C257.711 127.238 257.885 129.401 258.109 131.887C256.866 126.765 255.623 121.693 254.106 116.696C251.664 108.116 248.649 99.7097 245.08 91.5338C246.224 91.0365 260.546 84.8455 265.369 79.4998C269.646 74.7508 273.798 67.5404 272.53 60.9018C272.284 59.3317 271.71 57.8309 270.847 56.4967C269.983 55.1625 268.849 54.0247 267.517 53.1573C266.185 52.2898 264.686 51.712 263.117 51.4613C261.547 51.2107 259.943 51.2928 258.407 51.7023C249.233 54.4373 243.837 70.8224 243.663 79.3755C243.663 79.9722 244.359 87.7794 244.707 90.5641V90.2657C241.002 82.3173 236.601 74.7125 231.555 67.5404C227.079 61.1204 222.23 54.9686 217.034 49.1165C212.285 43.6216 207.586 38.8975 203.384 34.7453C201.122 32.5076 198.983 30.5185 196.969 28.6786H197.168C197.342 28.6786 192.693 18.0121 192.345 17.3657C188.043 9.90661 175.413 -1.80415 166.064 0.234669C164.516 0.615927 163.065 1.31945 161.807 2.2993C160.55 3.27915 159.513 4.51328 158.764 5.92113C158.016 7.32897 157.572 8.87887 157.464 10.4696C157.355 12.0603 157.583 13.6561 158.132 15.1528C160.221 21.5676 167.332 25.9188 173.374 27.9824C179.416 30.0461 193.066 29.1013 196.397 28.8029C198.461 30.7423 200.624 32.8557 202.961 35.2426C207.039 39.4943 211.614 44.293 216.239 49.8624C217.482 51.3542 218.725 52.9952 219.993 54.5616C217.333 52.3488 213.628 49.39 213.23 49.1414C206.02 44.5416 189.386 39.917 182.026 46.0334C180.833 47.0843 179.875 48.3744 179.213 49.8198C178.551 51.2652 178.201 52.8337 178.184 54.4234C178.168 56.0131 178.486 57.5884 179.118 59.0472C179.75 60.506 180.681 61.8156 181.852 62.8909C186.651 67.615 194.955 68.1869 201.271 67.2669C207.586 66.347 219.645 58.9376 222.181 57.3215C224.916 60.8521 227.651 64.5319 230.262 68.535C235.072 75.717 239.233 83.3139 242.693 91.2354C242.892 91.7078 243.042 92.2051 243.216 92.6526C242.097 91.3349 235.384 84.5471 234.837 84.1244C228.173 78.7787 212.161 72.3639 204.18 77.635C202.875 78.545 201.777 79.7199 200.957 81.083C200.137 82.4462 199.614 83.9669 199.421 85.546C199.229 87.1251 199.372 88.727 199.84 90.2472C200.309 91.7673 201.093 93.1716 202.141 94.3682C206.393 99.5896 214.573 101.081 220.963 100.833C228.422 100.584 242.793 93.3737 243.34 93.0007C246.601 100.993 249.333 109.191 251.52 117.541C253.161 123.707 254.578 129.973 255.946 136.388C254.454 134.697 248.188 128.406 247.691 127.984C241.028 122.638 225.015 116.223 217.009 121.494C215.708 122.407 214.613 123.583 213.795 124.946C212.977 126.309 212.455 127.829 212.263 129.407C212.071 130.985 212.212 132.586 212.679 134.105C213.145 135.625 213.926 137.029 214.971 138.228C219.247 143.449 227.402 144.941 233.817 144.692C240.978 144.443 254.901 137.507 256.194 136.91C256.816 139.794 257.438 142.678 258.034 145.587C259.998 155.035 261.913 164.533 264.076 173.832C264.847 177.064 265.692 180.222 266.563 183.38C264.225 180.893 259.874 176.542 259.476 176.219C252.813 170.849 236.776 164.434 228.795 169.705C227.49 170.615 226.392 171.79 225.572 173.153C224.752 174.516 224.229 176.037 224.036 177.616C223.844 179.195 223.986 180.797 224.455 182.317C224.924 183.837 225.708 185.241 226.756 186.438C231.008 191.684 239.188 193.151 245.578 192.927C251.968 192.704 263.803 187.109 267.11 185.468C268.576 190.715 270.118 195.886 271.908 200.909C272.729 203.047 273.4 205.285 274.395 207.299L275.762 210.506L273.897 210.332C273.897 210.332 273.897 213.34 274.071 218.189C267.035 213.216 256.891 208.865 250.302 211.898C248.876 212.603 247.615 213.6 246.6 214.824C245.585 216.048 244.838 217.471 244.409 219.003C243.98 220.534 243.878 222.138 244.109 223.711C244.34 225.284 244.9 226.791 245.752 228.134C246.175 228.851 246.666 229.525 247.219 230.148C248.469 237.57 251.603 244.547 256.319 250.412C256.667 250.81 261.441 255.236 263.952 257.424C261.465 256.131 259.128 254.937 256.642 253.421C253.062 251.431 249.332 249.219 245.702 247.08L239.909 243.376C237.994 242.207 236.304 240.889 234.464 239.596C231.803 237.682 229.168 235.593 226.532 233.48C228.77 229.949 235.185 219.482 236.129 213.365C237.074 207.249 236.552 198.746 231.828 193.922C230.765 192.74 229.465 191.795 228.013 191.148C226.561 190.501 224.989 190.167 223.399 190.167C221.81 190.167 220.238 190.501 218.786 191.148C217.334 191.795 216.034 192.74 214.971 193.922C208.829 201.381 213.379 217.915 217.929 225.151C218.079 225.374 219.197 226.817 220.416 228.482C217.929 226.369 215.443 224.256 212.957 222.018C205.945 215.653 198.983 208.964 191.972 202.301L187.695 198.248C189.61 195.29 196.646 184.001 197.641 177.611C198.635 171.222 198.063 162.992 193.364 158.143C192.301 156.962 191.001 156.017 189.549 155.37C188.097 154.723 186.525 154.388 184.935 154.388C183.346 154.388 181.774 154.723 180.322 155.37C178.87 156.017 177.57 156.962 176.507 158.143C170.365 165.602 174.915 182.112 179.465 189.347C179.615 189.621 180.957 191.311 182.474 193.201C178.62 189.645 174.741 186.115 170.763 182.758C163.993 176.949 156.841 171.599 149.356 166.746C150.027 165.702 158.555 152.624 159.649 145.513C160.594 139.197 160.072 130.893 155.348 126.069C154.287 124.888 152.989 123.943 151.539 123.297C150.089 122.65 148.519 122.316 146.931 122.316C145.344 122.316 143.774 122.65 142.324 123.297C140.874 123.943 139.576 124.888 138.515 126.069C132.349 133.528 136.899 150.063 141.449 157.298C141.772 157.795 146.695 163.937 148.51 166.05L148.237 165.876C140.77 161.278 132.907 157.359 124.741 154.165C117.432 151.249 109.96 148.758 102.363 146.706C95.3519 144.742 88.8376 143.399 83.0692 142.231C79.9116 141.634 77.0523 141.161 74.3421 140.714H74.5162C74.6405 140.714 64.894 134.274 64.2226 133.951C56.5895 130.147 39.558 127.312 32.8697 134.15C31.7934 135.32 30.9752 136.703 30.4682 138.21C29.9613 139.717 29.7768 141.313 29.9269 142.896C30.0769 144.479 30.5581 146.012 31.3393 147.397C32.1204 148.781 33.1839 149.986 34.4609 150.933C39.7569 155.135 48.0613 154.836 54.3518 153.245C60.6423 151.654 71.3834 143.3 73.994 141.211C76.7788 141.708 79.7624 142.28 83.0444 142.977C88.7879 144.245 95.2524 145.736 102.164 147.949C104.029 148.521 105.993 149.192 107.908 149.789C104.452 149.441 99.7278 148.994 99.2554 148.994C90.7272 149.168 74.3918 154.464 71.5325 163.638C71.1106 165.17 71.0169 166.774 71.2576 168.345C71.4984 169.916 72.068 171.418 72.9294 172.754C73.7908 174.089 74.9244 175.228 76.2561 176.095C77.5879 176.962 79.0877 177.538 80.6575 177.786C87.296 179.078 94.5314 174.976 99.2803 170.724C104.029 166.473 109.996 153.643 111.24 150.833C115.466 152.251 119.768 153.817 124.144 155.806C132.135 159.14 139.815 163.175 147.093 167.865C147.516 168.138 147.913 168.487 148.336 168.76C146.67 168.288 137.322 166.274 136.65 166.274C128.147 165.478 111.24 168.959 107.485 177.761C106.896 179.234 106.624 180.814 106.687 182.399C106.75 183.984 107.146 185.538 107.85 186.96C108.554 188.382 109.549 189.639 110.772 190.65C111.994 191.661 113.416 192.403 114.944 192.828C121.409 194.842 129.042 191.56 134.238 187.855C140.231 183.579 148.262 169.481 148.56 168.959C155.688 173.831 162.49 179.163 168.923 184.921C173.697 189.173 178.371 193.648 183.021 198.199C180.833 197.627 172.155 195.712 171.509 195.712C163.006 194.917 146.098 198.397 142.344 207.199C141.759 208.674 141.49 210.256 141.554 211.841C141.619 213.427 142.016 214.981 142.719 216.403C143.422 217.826 144.416 219.085 145.636 220.099C146.856 221.114 148.276 221.86 149.803 222.291C156.268 224.305 163.901 221.023 169.097 217.319C174.94 213.142 182.698 199.69 183.369 198.547L189.684 204.763C196.522 211.575 203.359 218.438 210.321 225.001C212.807 227.264 215.294 229.427 217.631 231.59C214.324 230.844 208.282 229.576 207.686 229.527C199.157 228.756 182.275 232.237 178.496 241.039C177.911 242.512 177.642 244.092 177.707 245.675C177.771 247.259 178.168 248.812 178.872 250.232C179.575 251.653 180.569 252.91 181.789 253.922C183.009 254.934 184.429 255.678 185.955 256.106C192.394 258.12 200.052 254.838 205.249 251.133C210.445 247.428 217.233 236.215 219.098 233.057C223.2 236.613 227.353 240.069 231.53 243.276C233.394 244.619 235.21 246.111 237.074 247.304L242.569 250.984C246.398 253.47 250.028 255.584 253.609 257.697C255.424 258.791 257.164 259.761 258.954 260.805C255.722 259.537 250.575 257.623 250.078 257.498C241.798 255.435 224.543 256.305 219.496 264.435C218.694 265.808 218.192 267.335 218.02 268.916C217.849 270.496 218.012 272.095 218.5 273.609C218.988 275.122 219.789 276.515 220.852 277.698C221.915 278.88 223.215 279.826 224.667 280.472C230.734 283.456 238.79 281.367 244.558 278.483C250.824 275.301 260.272 263.565 261.416 262.173C265.817 264.659 270.118 267.145 274.171 269.234C285.011 275.052 294.484 279.677 301.819 283.108C325.688 303.744 359.279 306.032 359.279 306.032C359.279 306.032 361.044 265.803 337.374 239.323C329.161 230.473 319.114 223.523 307.936 218.96ZM265.344 258.17C266.09 256.529 271.809 243.749 272.207 236.538C273.524 236.29 274.867 236.016 276.16 235.718C278.609 248.439 283.69 260.507 291.078 271.148C286.727 269.085 282.028 266.797 277.055 264.261C273.226 262.371 269.322 260.333 265.344 258.17Z" fill="white"/>
<path d="M483.945 211.252C483.945 211.252 443.691 212.495 419.051 238.08C394.411 263.664 394.734 303.943 394.734 303.943C394.734 303.943 434.988 302.7 459.603 277.116C484.218 251.531 483.945 211.252 483.945 211.252Z" fill="white"/>
</g>
<path d="M378.822 237.185L418.355 201.655L416.664 199.765L378.797 233.803L378.598 187.209L378.822 187.358L412.238 138.476L410.15 137.034L378.598 183.181L378.101 71.1207H375.564L375.888 147.203L350.726 125.423L349.085 127.337L375.913 150.56L376.136 204.961L337.996 171.197L336.33 173.111L376.161 208.343L376.36 257.871L347.692 235.37L346.151 237.384L376.385 261.103L376.534 292.979H379.07L378.822 237.185Z" fill="white"/>
<path d="M342.396 250.909L339.885 250.611L336.703 278.757L319.721 259.786H319.771L315.444 225.722L312.933 226.046L316.787 256.504L274.593 209.337L272.704 211.028L301.347 243.028L283.221 243.251L283.246 245.787L303.584 245.539L323.649 267.991L295.305 268.015V270.552L325.912 270.527L344.162 290.915L324.171 292.133L324.345 294.644L346.325 293.327L358.483 306.927L360.373 305.236L338.965 281.293L342.396 250.909Z" fill="white"/>
<path d="M437.922 260.929L471.588 254.117L471.066 251.63L440.981 257.722L484.84 212.147L483.025 210.382L453.263 241.312L451.672 223.261L449.161 223.485L450.926 243.749L430.041 265.43L427.902 237.16L425.366 237.359L427.679 267.891L408.708 287.608L406.022 267.767L403.486 268.09L406.47 289.945L393.814 303.073L395.629 304.814L417.907 281.69L448.465 282.859L448.564 280.323L420.269 279.254L437.922 260.905V260.929Z" fill="white"/>
<path d="M500.728 979.81L204.602 439.201L0 508.446L66.3609 637.488L62.159 630.278L49.7272 634.405C48.4894 634.82 47.3559 635.497 46.4044 636.39C45.4529 637.284 44.7059 638.372 44.2147 639.581C43.7234 640.791 43.4995 642.092 43.5584 643.396C43.6172 644.7 43.9574 645.975 44.5556 647.135L77.276 710.761C79.3617 714.83 82.6882 718.129 86.7739 720.181C90.8597 722.233 95.4925 722.931 100.001 722.174L109.077 720.657L268.452 1030.58L500.728 979.81Z" fill="#2E353A"/>
<path d="M692.028 205.782C688.845 207.521 685.103 207.927 681.621 206.911C678.14 205.895 675.203 203.54 673.455 200.362L665.872 186.513L204.602 439.201L500.728 979.81L962.022 727.147L800.806 432.836C799.068 429.657 798.663 425.918 799.679 422.441C800.696 418.963 803.05 416.031 806.227 414.288C807.803 413.425 809.193 412.26 810.319 410.859C811.444 409.458 812.282 407.85 812.786 406.125C813.289 404.4 813.448 402.593 813.252 400.806C813.057 399.02 812.511 397.29 811.647 395.715L710.576 211.202C708.833 208.026 705.901 205.671 702.424 204.655C698.946 203.639 695.207 204.044 692.028 205.782V205.782Z" fill="#DA517E" stroke="#2E353A" stroke-linecap="round" stroke-linejoin="round"/>
<path d="M714.975 225.729L340.348 359.274L519.219 861.048L893.846 727.502L714.975 225.729Z" fill="white" stroke="#2E353A" stroke-linecap="round" stroke-linejoin="round"/>
<path d="M714.995 225.747L340.368 359.293L406.265 544.147L780.891 410.601L714.995 225.747Z" fill="white" stroke="#2E353A" stroke-linecap="round" stroke-linejoin="round"/>
<path d="M685.999 415.659C713.972 397.899 722.252 360.825 704.493 332.852C686.733 304.878 649.66 296.598 621.686 314.357C593.713 332.117 585.432 369.191 603.192 397.164C620.951 425.138 658.025 433.418 685.999 415.659Z" fill="#2E353A" stroke="#2E353A" stroke-linecap="round" stroke-linejoin="round"/>
<path d="M673.977 421.598C682.294 418.642 689.855 413.884 696.118 407.664C702.38 401.444 707.19 393.917 710.203 385.62C699.786 362.298 674.325 350.14 651.401 358.27C628.477 366.401 616.468 391.985 623.156 416.625C630.737 421.148 639.224 423.939 648.01 424.799C656.796 425.658 665.663 424.565 673.977 421.598Z" fill="white" stroke="#2E353A" stroke-linecap="round" stroke-linejoin="round"/>
<path d="M669.959 376.655C682.545 365.536 683.734 346.319 672.614 333.733C661.495 321.148 642.278 319.959 629.693 331.078C617.107 342.197 615.918 361.414 627.038 374C638.157 386.585 657.373 387.774 669.959 376.655Z" fill="white" stroke="#2E353A" stroke-linecap="round" stroke-linejoin="round"/>
<path d="M527.87 366.608L396.764 413.344L402.132 428.403L533.238 381.667L527.87 366.608Z" fill="white" stroke="#2E353A" stroke-linecap="round" stroke-linejoin="round"/>
<path d="M540.784 402.791L409.679 449.527L415.047 464.586L546.153 417.85L540.784 402.791Z" fill="white" stroke="#2E353A" stroke-linecap="round" stroke-linejoin="round"/>
<path d="M551.502 432.905L420.396 479.641L423.085 487.182L554.19 440.446L551.502 432.905Z" fill="#2E353A"/>
<path d="M557.952 451L426.846 497.736L429.535 505.277L560.64 458.541L557.952 451Z" fill="#2E353A"/>
<path d="M590.72 542.924L459.614 589.66L462.303 597.201L593.408 550.465L590.72 542.924Z" fill="#2E353A"/>
<path d="M596.616 559.517L465.511 606.253L468.199 613.794L599.304 567.058L596.616 559.517Z" fill="#2E353A"/>
<path d="M602.537 576.085L471.432 622.821L474.12 630.362L605.225 583.626L602.537 576.085Z" fill="#2E353A"/>
<path d="M768.539 479.525L637.434 526.261L640.122 533.803L771.227 487.067L768.539 479.525Z" fill="#2E353A"/>
<path d="M774.46 496.118L643.355 542.854L646.043 550.396L777.148 503.66L774.46 496.118Z" fill="#2E353A"/>
<path d="M780.358 512.695L649.253 559.431L651.941 566.972L783.046 520.236L780.358 512.695Z" fill="#2E353A"/>
<path d="M451.199 575.727L767.688 462.946" stroke="#2E353A" stroke-linecap="round" stroke-linejoin="round"/>
<path d="M621.341 628.82L490.236 675.557L492.924 683.098L624.03 636.362L621.341 628.82Z" fill="#2E353A"/>
<path d="M627.239 645.422L496.134 692.158L498.822 699.699L629.927 652.963L627.239 645.422Z" fill="#2E353A"/>
<path d="M633.16 661.99L502.055 708.726L504.743 716.267L635.849 669.531L633.16 661.99Z" fill="#2E353A"/>
<path d="M799.162 565.431L668.057 612.167L670.745 619.708L801.85 572.972L799.162 565.431Z" fill="#2E353A"/>
<path d="M805.083 582.023L673.978 628.76L676.666 636.301L807.772 589.565L805.083 582.023Z" fill="#2E353A"/>
<path d="M810.981 598.6L679.876 645.336L682.564 652.877L813.669 606.141L810.981 598.6Z" fill="#2E353A"/>
<path d="M481.807 661.631L798.295 548.85" stroke="#2E353A" stroke-linecap="round" stroke-linejoin="round"/>
<path d="M822.794 631.726L512.339 742.396L539.196 817.739L849.652 707.068L822.794 631.726Z" fill="#2E353A" stroke="#2E353A" stroke-linecap="round" stroke-linejoin="round"/>
<path d="M665.938 256.784L300.409 413.526L510.348 903.115L875.878 746.373L665.938 256.784Z" fill="white" stroke="#2E353A" stroke-linecap="round" stroke-linejoin="round"/>
<path d="M665.957 256.793L300.427 413.534L377.769 593.899L743.299 437.158L665.957 256.793Z" fill="white" stroke="#2E353A" stroke-linecap="round" stroke-linejoin="round"/>
<path d="M664.356 431.699C682.042 403.679 673.665 366.627 645.645 348.941C617.625 331.255 580.573 339.632 562.887 367.652C545.201 395.672 553.578 432.724 581.598 450.41C609.618 468.096 646.67 459.719 664.356 431.699Z" fill="#2E353A" stroke="#2E353A" stroke-linecap="round" stroke-linejoin="round"/>
<path d="M637.279 454.841C645.393 451.367 652.64 446.141 658.498 439.539C664.357 432.937 668.683 425.12 671.168 416.65C659.333 394.049 633.151 383.482 610.799 393.079C588.447 402.677 578.053 428.908 586.258 453.075C594.108 457.108 602.751 459.358 611.571 459.663C620.391 459.968 629.169 458.322 637.279 454.841V454.841Z" fill="white" stroke="#2E353A" stroke-linecap="round" stroke-linejoin="round"/>
<path d="M629.661 410.928C641.942 399.472 642.61 380.23 631.155 367.95C619.699 355.669 600.457 355.001 588.177 366.457C575.897 377.912 575.228 397.154 586.684 409.434C598.139 421.715 617.381 422.383 629.661 410.928Z" fill="white" stroke="#2E353A" stroke-linecap="round" stroke-linejoin="round"/>
<path d="M488.011 409.122L360.089 463.976L366.39 478.669L494.311 423.815L488.011 409.122Z" fill="white" stroke="#2E353A" stroke-linecap="round" stroke-linejoin="round"/>
<path d="M503.151 444.407L375.23 499.261L381.53 513.954L509.452 459.1L503.151 444.407Z" fill="white" stroke="#2E353A" stroke-linecap="round" stroke-linejoin="round"/>
<path d="M515.767 473.801L387.846 528.655L391.001 536.013L518.923 481.159L515.767 473.801Z" fill="#2E353A"/>
<path d="M523.331 491.448L395.41 546.301L398.565 553.66L526.486 498.806L523.331 491.448Z" fill="#2E353A"/>
<path d="M561.803 581.14L433.882 635.994L437.037 643.352L564.958 588.499L561.803 581.14Z" fill="#2E353A"/>
<path d="M568.74 597.311L440.818 652.165L443.973 659.523L571.895 604.669L568.74 597.311Z" fill="#2E353A"/>
<path d="M575.653 613.516L447.732 668.369L450.887 675.728L578.808 620.874L575.653 613.516Z" fill="#2E353A"/>
<path d="M735.288 506.774L607.367 561.628L610.522 568.986L738.444 514.132L735.288 506.774Z" fill="#2E353A"/>
<path d="M742.215 522.922L614.294 577.775L617.449 585.133L745.37 530.28L742.215 522.922Z" fill="#2E353A"/>
<path d="M749.176 539.117L621.255 593.97L624.41 601.329L752.332 546.475L749.176 539.117Z" fill="#2E353A"/>
<path d="M424.595 622.62L733.401 490.221" stroke="#2E353A" stroke-linecap="round" stroke-linejoin="round"/>
<path d="M597.73 664.971L469.809 719.825L472.964 727.183L600.885 672.329L597.73 664.971Z" fill="#2E353A"/>
<path d="M604.682 681.119L476.76 735.972L479.915 743.33L607.837 688.477L604.682 681.119Z" fill="#2E353A"/>
<path d="M611.618 697.313L483.697 752.167L486.852 759.525L614.773 704.672L611.618 697.313Z" fill="#2E353A"/>
<path d="M771.253 590.572L643.332 645.426L646.487 652.784L774.409 597.93L771.253 590.572Z" fill="#2E353A"/>
<path d="M778.18 606.719L650.258 661.573L653.414 668.931L781.335 614.077L778.18 606.719Z" fill="#2E353A"/>
<path d="M785.094 622.924L657.172 677.778L660.327 685.136L788.249 630.282L785.094 622.924Z" fill="#2E353A"/>
<path d="M460.523 706.435L769.329 574.037" stroke="#2E353A" stroke-linecap="round" stroke-linejoin="round"/>
<path d="M798.979 655.247L496.062 785.14L527.585 858.653L830.502 728.76L798.979 655.247Z" fill="#2E353A" stroke="#2E353A" stroke-linecap="round" stroke-linejoin="round"/>
<path d="M582.351 253.546L248.759 470.1L538.811 916.913L872.403 700.358L582.351 253.546Z" fill="white" stroke="#2E353A" stroke-linecap="round" stroke-linejoin="round"/>
<path d="M582.365 253.567L248.773 470.121L355.629 634.728L689.221 418.173L582.365 253.567Z" fill="white" stroke="#2E353A" stroke-linecap="round" stroke-linejoin="round"/>
<path d="M564.662 462.409C597.368 457.094 619.572 426.272 614.258 393.566C608.943 360.861 578.121 338.656 545.415 343.971C512.71 349.285 490.505 380.107 495.82 412.813C501.134 445.519 531.956 467.723 564.662 462.409Z" fill="#2E353A" stroke="#2E353A" stroke-linecap="round" stroke-linejoin="round"/>
<path d="M587.75 453.349C595.159 448.548 601.414 442.169 606.069 434.668C610.724 427.168 613.664 418.731 614.678 409.962C599.163 389.673 571.564 383.755 551.176 396.983C530.788 410.21 524.97 437.859 537.178 460.286C545.597 462.931 554.498 463.681 563.241 462.482C571.984 461.283 580.354 458.164 587.75 453.349V453.349Z" fill="#DA517E" stroke="#2E353A" stroke-linecap="round" stroke-linejoin="round"/>
<path d="M568.278 416.254C581.062 405.363 582.596 386.171 571.705 373.387C560.814 360.604 541.621 359.07 528.838 369.961C516.054 380.852 514.52 400.044 525.411 412.828C536.303 425.611 555.495 427.146 568.278 416.254Z" fill="white" stroke="#2E353A" stroke-linecap="round" stroke-linejoin="round"/>
<path d="M432.872 433.889L316.127 509.675L324.832 523.085L441.577 447.299L432.872 433.889Z" fill="white" stroke="#2E353A" stroke-linecap="round" stroke-linejoin="round"/>
<path d="M453.77 466.094L337.026 541.88L345.73 555.29L462.475 479.504L453.77 466.094Z" fill="white" stroke="#2E353A" stroke-linecap="round" stroke-linejoin="round"/>
<path d="M469.104 496.235L352.187 571.396L356.51 578.121L473.427 502.96L469.104 496.235Z" fill="#2E353A"/>
<path d="M481.662 509.018L364.917 584.804L369.276 591.519L486.021 515.733L481.662 509.018Z" fill="#2E353A"/>
<path d="M534.814 590.871L418.069 666.657L422.428 673.372L539.173 597.586L534.814 590.871Z" fill="#2E353A"/>
<path d="M544.395 605.655L427.65 681.441L432.01 688.156L548.754 612.37L544.395 605.655Z" fill="#2E353A"/>
<path d="M553.976 620.439L437.232 696.224L441.591 702.94L558.336 627.154L553.976 620.439Z" fill="#2E353A"/>
<path d="M693.165 488.069L576.42 563.855L580.779 570.57L697.524 494.784L693.165 488.069Z" fill="#2E353A"/>
<path d="M702.767 502.84L586.022 578.625L590.381 585.341L707.126 509.555L702.767 502.84Z" fill="#2E353A"/>
<path d="M712.348 517.623L595.603 593.409L599.962 600.124L716.707 524.338L712.348 517.623Z" fill="#2E353A"/>
<path d="M406.694 654.943L688.498 471.972" stroke="#2E353A" stroke-linecap="round" stroke-linejoin="round"/>
<path d="M584.477 667.389L467.732 743.175L472.091 749.891L588.836 674.105L584.477 667.389Z" fill="#2E353A"/>
<path d="M594.044 682.152L477.3 757.938L481.659 764.653L598.404 688.868L594.044 682.152Z" fill="#2E353A"/>
<path d="M603.647 696.898L486.902 772.684L491.261 779.399L608.006 703.613L603.647 696.898Z" fill="#2E353A"/>
<path d="M742.828 564.588L626.083 640.374L630.442 647.089L747.187 571.303L742.828 564.588Z" fill="#2E353A"/>
<path d="M752.416 579.337L635.671 655.123L640.031 661.838L756.775 586.052L752.416 579.337Z" fill="#2E353A"/>
<path d="M761.973 594.121L645.228 669.907L649.587 676.622L766.332 600.836L761.973 594.121Z" fill="#2E353A"/>
<path d="M456.346 731.423L738.15 548.477" stroke="#2E353A" stroke-linecap="round" stroke-linejoin="round"/>
<path d="M781.181 623.637L504.731 803.097L548.282 870.187L824.733 690.726L781.181 623.637Z" fill="#2E353A" stroke="#2E353A" stroke-linecap="round" stroke-linejoin="round"/>
<path d="M204.602 439.201L27.7726 302.302L132.995 499.694C135.482 504.468 128.893 505.363 122.18 501.136C115.392 496.885 108.704 497.83 111.364 502.653L165.94 601.859C166.807 603.272 167.948 604.498 169.296 605.464L195.95 625.554C197.336 626.532 198.498 627.795 199.356 629.259L309.775 838.983L500.753 979.81L204.602 439.201Z" fill="#DA517E" stroke="#2E353A" stroke-linecap="round" stroke-linejoin="round"/>
<path opacity="0.25" d="M204.602 439.201L27.7726 302.302L132.995 499.694C135.482 504.468 128.893 505.363 122.18 501.136C115.392 496.885 108.704 497.83 111.364 502.653L165.94 601.859C166.807 603.272 167.948 604.498 169.296 605.464L195.95 625.554C197.336 626.532 198.498 627.795 199.356 629.259L309.775 838.983L500.753 979.81L204.602 439.201Z" fill="#2E353A" stroke="#2E353A" stroke-linecap="round" stroke-linejoin="round"/>
<path d="M957.795 740.573C957.757 740.483 957.686 740.412 957.596 740.374C954.687 739.106 930.246 739.33 929.6 740.772C929.6 740.946 929.724 741.17 930.097 741.418C930.619 741.746 931.168 742.029 931.738 742.264C932.434 742.562 933.28 742.885 934.224 743.208C935.169 743.532 936.064 743.855 937.034 744.153L941.186 745.446L943.374 746.093L944.816 746.49L919.505 770.981C914.233 775.794 908.696 780.31 902.921 784.507L901.777 783.363C900.123 781.764 898.371 780.27 896.531 778.888V778.241C894.389 779.605 892.154 780.818 889.843 781.871C881.19 786.222 856.923 797.113 848.271 814.567C843.934 823.424 839.12 832.039 833.85 840.375V841.519H833.154C824.775 840.798 808.812 846.367 797.077 852.161C787.055 857.702 777.404 863.89 768.185 870.684V870.684L759.085 873.891C755.778 874.364 749.712 875.135 748.866 876.154C748.021 877.173 742.128 876.154 739.518 876.8C736.907 877.447 737.653 879.287 737.653 879.287L742.626 879.759L709.831 891.172L736.211 912.107L771.989 898.83L773.904 899.302C777.719 900.474 781.842 900.109 785.391 898.283C786.653 897.809 787.89 897.27 789.096 896.666C795.709 895.796 815.824 891.37 822.811 889.829C828.057 896.94 843.025 908.899 845.586 914.071C845.707 914.345 845.806 914.627 845.884 914.916C845.884 914.916 845.884 915.041 845.884 915.115C845.936 915.328 845.936 915.549 845.884 915.762C844.7 918.655 843.154 921.387 841.284 923.892C837.877 922.485 834.359 921.363 830.767 920.535C817.167 917.403 809.732 931.525 807.37 932.221C805.008 932.918 802.124 935.006 804.884 936.995C807.644 938.984 803.467 940.824 801.776 943.509C800.725 945.632 800.012 947.905 799.663 950.247C790.687 951.018 783.004 954.723 781.015 960.193C778.529 967.18 801.179 972.301 801.179 972.301C801.179 972.301 832.532 984.559 856.451 976.876C880.37 969.193 879.45 956.389 881.315 949.526C883.179 942.664 902.697 925.782 924.602 914.021C946.507 902.261 956.03 891.644 935.194 875.706C921.519 865.239 909.485 860.216 899.565 859.819C899.813 859.222 900.087 858.625 900.36 858.053L900.857 856.959C901.156 856.338 901.504 855.741 901.827 855.119L902.324 854.224C902.847 853.329 903.394 852.459 903.99 851.589C905.029 850.113 905.936 848.549 906.7 846.914C909.117 841.861 909.756 836.14 908.515 830.678C908.09 829.104 907.857 827.485 907.819 825.855C908.317 822.598 913.737 809.793 915.129 804.099C915.18 803.703 915.18 803.302 915.129 802.906C914.93 801.299 914.423 799.746 913.637 798.331C919.232 794.999 930.495 788.932 935.666 783.189C940.838 777.446 952.151 756.983 956.378 746.49C956.552 746.068 956.701 745.645 956.85 745.247C956.999 744.874 957.124 744.476 957.248 744.128C957.348 743.78 957.447 743.457 957.546 743.159V743.034C957.546 742.786 957.696 742.512 957.745 742.288C957.734 742.248 957.734 742.205 957.745 742.164C957.745 741.94 957.745 741.741 957.745 741.567V741.393C957.757 741.261 957.757 741.128 957.745 740.996V740.797C957.745 740.797 957.82 740.647 957.795 740.573ZM825.695 880.53C818.012 882.668 800.309 888.262 790.886 891.395L773.481 875.458C777.708 873.27 787.082 869.192 797.723 864.617C807.591 860.922 817.827 858.296 828.256 856.785C829.12 858.385 829.685 860.129 829.922 861.932C830.916 865.013 832.163 868.007 833.651 870.883C831.652 874.586 828.95 877.863 825.695 880.53V880.53Z" fill="#2E353A"/>
<path d="M928.008 620.879C933.217 636.73 937.575 652.848 941.062 669.165C944.568 688.384 951.902 728.39 951.902 728.39C951.902 728.39 933.454 729.434 933.13 732.442C932.807 735.451 957.472 747.361 961.152 746.192C964.831 745.023 966.945 669.96 964.732 652.904C962.519 635.847 950.734 613.122 949.814 608C948.894 602.878 946.88 592.908 946.88 592.908L928.008 620.879Z" fill="white" stroke="#2E353A" stroke-linecap="round" stroke-linejoin="round"/>
<path d="M961.152 746.192C962.072 745.919 962.892 741.219 963.638 733.76C956.403 739.081 951.206 733.76 951.206 733.76L951.877 728.439C951.877 728.439 933.429 729.484 933.105 732.492C932.782 735.501 957.472 747.336 961.152 746.192Z" fill="#DA517E" stroke="#2E353A" stroke-linecap="round" stroke-linejoin="round"/>
<path d="M917.044 395.988C917.044 395.988 887.754 365.804 883.403 363.666C879.052 361.527 877.535 366.152 878.779 368.763C880.022 371.373 909.808 410.857 914.856 416.004C919.903 421.15 917.044 395.988 917.044 395.988Z" fill="white" stroke="#2E353A" stroke-linecap="round" stroke-linejoin="round"/>
<path d="M841.061 310.482L801.801 338.777L848.246 405.785L884.149 375.575L841.061 310.482Z" fill="#2E353A" stroke="#2E353A" stroke-linecap="round" stroke-linejoin="round"/>
<path d="M841.334 317.767L808.116 341.711L847.426 398.425L877.809 372.865L841.334 317.767Z" fill="#DA517E" stroke="#2E353A" stroke-linecap="round" stroke-linejoin="round"/>
<path d="M886.909 369.011C885.635 365.872 884.07 362.859 882.234 360.011C879.002 355.038 876.939 352.378 871.245 352.701C867.014 352.825 862.782 352.517 858.614 351.781C855.357 351.433 855.307 356.132 857.023 357.748C858.738 359.364 868.211 358.966 868.211 358.966C867.242 357.698 867.963 359.762 874.228 368.39C875.994 370.876 882.185 371.299 883.577 371.448" fill="white"/>
<path d="M886.909 369.011C885.635 365.872 884.07 362.859 882.234 360.011C879.002 355.038 876.939 352.378 871.245 352.701C867.014 352.825 862.782 352.517 858.614 351.781C855.357 351.433 855.307 356.132 857.023 357.748C858.738 359.364 868.211 358.966 868.211 358.966C867.242 357.698 867.963 359.762 874.228 368.39C875.994 370.876 882.185 371.299 883.577 371.448" stroke="#2E353A" stroke-linecap="round" stroke-linejoin="round"/>
<path d="M928.928 261.277C927.44 267.418 926.467 273.672 926.019 279.975C926.019 285.942 929.252 291.512 925.224 294.048C921.196 296.584 922.887 302.004 924.851 304.441C926.815 306.877 925.796 337.733 941.435 337.957C957.074 338.18 972.116 330.125 975.299 321.522C978.482 312.919 986.363 288.428 976.443 276.892C966.522 265.355 938.078 245.862 928.928 261.277Z" fill="white" stroke="#2E353A" stroke-linecap="round" stroke-linejoin="round"/>
<path d="M929.525 289.846L931.987 294.371L929.003 294.47" stroke="#2E353A" stroke-linecap="round" stroke-linejoin="round"/>
<path d="M929.028 282.586C929.028 282.586 933.702 282.586 934.001 290.343" stroke="#2E353A" stroke-linecap="round" stroke-linejoin="round"/>
<path d="M953.867 333.332C954.46 340.281 954.46 347.268 953.867 354.217C953.68 355.351 953.228 356.424 952.549 357.35C960.315 352.017 968.655 347.572 977.412 344.098L979.899 343.153C978.627 332.601 977.996 321.981 978.009 311.353L953.867 333.332Z" fill="white" stroke="#2E353A" stroke-linecap="round" stroke-linejoin="round"/>
<path d="M887.158 630.949C887.158 630.949 885.815 664.639 888.649 676.151C891.484 687.663 901.951 782.891 901.504 791.493C901.056 800.096 900.708 803.627 900.708 803.627C900.708 803.627 874.825 807.406 872.19 808.152C869.554 808.898 868.684 812.354 883.005 816.457C897.327 820.559 908.341 826.849 911.4 822.101C914.458 817.352 918.61 799.723 919.828 786.869C922.688 757.033 927.586 723.516 924.652 708.449C921.718 693.382 914.085 674.635 915.129 669.662C916.173 664.689 932.335 609.989 932.335 609.989L887.158 630.949Z" fill="white" stroke="#2E353A" stroke-linecap="round" stroke-linejoin="round"/>
<path d="M911.4 822.1C912.978 818.823 914.059 815.329 914.607 811.732C907.024 815.735 897.7 810.066 897.7 810.066L900.708 803.627C900.708 803.627 874.825 807.406 872.19 808.152C869.554 808.898 868.684 812.354 883.005 816.456C897.327 820.559 908.341 826.849 911.4 822.1Z" fill="#DA517E" stroke="#2E353A" stroke-linecap="round" stroke-linejoin="round"/>
<path d="M953.867 333.332C954.46 340.281 954.46 347.268 953.867 354.217C952.822 363.79 909.485 391.861 910.579 402.428C911.673 412.995 916.77 427.714 913.911 440.071C911.051 452.429 895.189 495.443 892.031 510.759C888.873 526.075 876.864 642.536 882.284 647.658C887.705 652.779 909.634 650.616 920.674 644.376C931.713 638.135 954.513 614.539 956.527 602.828C958.541 591.118 960.804 563.768 962.27 557.204C963.737 550.64 975.15 534.827 973.882 505.537C972.614 476.248 983.181 440.892 985.667 418.092C988.153 395.292 985.667 364.387 981.714 352.029C977.76 339.672 977.959 311.353 977.959 311.353L953.867 333.332Z" fill="#DA517E" stroke="#2E353A" stroke-linecap="round" stroke-linejoin="round"/>
<path d="M956.477 602.828C958.516 591.118 960.754 563.768 962.221 557.204C963.688 550.64 975.1 534.827 973.832 505.537C973.111 489.475 975.995 471.574 979.153 454.89C970.873 462.747 949.317 481.047 926.318 483.185C909.684 484.751 904.264 479.903 902.697 475.378C898.098 489.252 893.523 503.3 891.981 510.759C888.799 526.075 876.814 642.536 882.235 647.658C887.655 652.779 909.585 650.616 920.624 644.376C931.663 638.135 954.463 614.539 956.477 602.828Z" fill="#2E353A" stroke="#2E353A" stroke-linecap="round" stroke-linejoin="round"/>
<path d="M951.778 568.865L918.212 627.344" stroke="white" stroke-width="0.5" stroke-linecap="round" stroke-linejoin="round"/>
<path d="M936.437 606.26L921.096 636.941" stroke="white" stroke-width="0.5" stroke-linecap="round" stroke-linejoin="round"/>
<path d="M1062.02 374.805C1055.53 346.684 1037.16 336.962 1020.95 327.24C1013.49 322.79 1011 315.182 1010.66 308.22L1009.83 315.679C1009.43 312.152 1009.43 308.589 1009.83 305.062C1010.11 303.421 1010.46 301.656 1010.85 299.741C1010.5 302.52 1010.42 305.326 1010.61 308.12L1012.27 292.556V292.73C1014.76 278.781 1015.88 260.208 1001.26 240.74C981.739 214.733 942.703 223.907 942.703 223.907C942.703 223.907 916.671 223.286 915.055 238.03C913.438 252.774 923.135 266.499 936.238 269.433C936.238 269.433 938.899 275.102 941.932 283.58C940.556 284.874 939.494 286.464 938.824 288.23C938.824 288.23 943.15 290.393 945.314 304.441C947.477 318.489 925.845 344.446 927.909 361.627C929.973 378.808 948.446 379.031 947.352 388.654C946.258 398.276 933.304 396.113 934.398 408.097C935.169 416.625 949.864 427.391 959.262 435.198C958.682 443.474 958.624 451.778 959.088 460.062C953.291 469.467 950.33 480.344 950.56 491.39C951.206 507.402 966 513.096 980.048 509.341C983.911 508.287 987.672 506.889 991.286 505.164C1004.51 510.485 1036.69 506.383 1052.15 480.599C1068.36 453.572 1053.22 444.92 1052.15 425.476C1051.08 406.033 1068.51 402.9 1062.02 374.805Z" fill="#2E353A" stroke="#2E353A" stroke-linecap="round" stroke-linejoin="round"/>
<path d="M934.324 247.503C942.179 257.965 951.735 267.034 962.594 274.331C983.131 287.31 969.083 326.221 952.872 343.501C936.661 360.782 939.893 377.017 958.267 385.645C976.642 394.273 1009.06 404.019 990.59 435.372C972.117 466.725 970.053 491.564 997.08 499.147" stroke="white" stroke-width="0.5" stroke-linecap="round" stroke-linejoin="round"/>
<path d="M928.008 238.627C928.008 238.627 929.5 241.113 932.235 244.718" stroke="white" stroke-width="0.5" stroke-linecap="round" stroke-linejoin="round"/>
<path d="M1020.18 495.443C1021.96 495.868 1023.81 495.931 1025.62 495.627C1027.42 495.324 1029.15 494.661 1030.69 493.677" stroke="white" stroke-width="0.5" stroke-linecap="round" stroke-linejoin="round"/>
<path d="M1000.34 376.818C1017.09 382.835 1035.15 387.908 1037.16 405.064C1040.42 433.159 1002.57 446.138 1002.57 468.814C1002.57 479.48 1006.63 487.039 1011.92 491.39" stroke="white" stroke-width="0.5" stroke-linecap="round" stroke-linejoin="round"/>
<path d="M962.594 274.331C962.594 274.331 988.526 284.052 994.916 300.264C1001.31 316.475 961.425 340.269 974.379 360.806C978.382 367.122 985.543 371.075 993.673 374.357" stroke="white" stroke-width="0.5" stroke-linecap="round" stroke-linejoin="round"/>
<path d="M998.745 251.506C998.745 251.506 1021.12 274.356 1010.9 299.841C1000.68 325.326 995.985 336.838 1003.44 343.551C1010.9 350.264 1050.46 353.148 1060.11 383.731" stroke="white" stroke-width="0.5" stroke-linecap="round" stroke-linejoin="round"/>
<path d="M907.844 466.253C907.844 466.253 885.218 449.544 874.527 431.046C863.835 412.547 854.835 396.834 855.059 394.82C855.282 392.806 856.376 382.736 853.244 378.832C850.111 374.929 839.419 370.18 838.027 369.011C836.635 367.843 833.726 371.1 836.958 373.984C840.19 376.868 843.398 380.299 843.398 380.299L822.612 374.979C822.096 375.848 821.859 376.854 821.93 377.863C822.001 378.871 822.377 379.834 823.009 380.623C825.297 382.91 831.836 383.606 832.06 386.192C832.284 388.778 838.897 393.651 841.707 395.889C842.902 397.075 844.384 397.932 846.008 398.375C846.008 398.375 857.918 438.381 866.297 455.089C874.676 471.797 887.431 489.898 896.307 492.384C905.184 494.871 916.074 479.256 916.074 479.256L907.844 466.253Z" fill="white" stroke="#2E353A" stroke-linecap="round" stroke-linejoin="round"/>
<path d="M947.153 386.043C947.153 386.043 935.045 394.397 931.266 405.685C927.486 416.973 908.192 444.398 905.407 451.235C904.143 454.644 902.42 457.865 900.286 460.808C900.286 460.808 902.772 475.726 913.065 483.583C923.359 491.44 926.541 490.669 926.541 490.669C926.541 490.669 963.837 430.052 969.854 415.954C975.871 401.856 963.19 379.131 947.153 386.043Z" fill="#DA517E" stroke="#2E353A" stroke-linecap="round" stroke-linejoin="round"/>
</svg>
